<svg id="Layer_1" data-name="Layer 1" xmlns="http://www.w3.org/2000/svg" viewBox="0 0 399.67 109.34"><defs><style>.cls-1{fill:#e0e0e0;}</style></defs><path class="cls-1" d="M115.29,95.56A4,4,0,0,1,111,99.1c-3.44,0-4.71-2.5-4.71-5.68s1.57-5.62,4.8-5.62c2.87,0,4.06,1.76,4.19,3.52h-1.94A2.15,2.15,0,0,0,111,89.37c-2,0-2.69,1.93-2.69,4s.64,4.13,2.72,4.13a2.27,2.27,0,0,0,2.35-2Z"/><path class="cls-1" d="M119,96.07l-.9,2.87h-1.94c.36-1.07,3.08-9.78,3.49-11h2.55l3.67,11h-2.09l-.93-2.87Zm3.42-1.61c-.78-2.45-1.3-4-1.55-5h0c-.28,1.25-.82,3-1.47,5Z"/><path class="cls-1" d="M136.41,93.38c0,3.16-1.53,5.72-5,5.72s-4.83-2.55-4.83-5.73c0-2.77,1.52-5.57,5-5.57C134.86,87.8,136.41,90.34,136.41,93.38Zm-7.78,0c0,2.32,1,4.16,2.89,4.16s2.87-1.74,2.87-4.15c0-2.19-.82-4-2.9-4S128.63,91.14,128.63,93.37Z"/><path class="cls-1" d="M144,86.45v16.67h-1.63V86.45Z"/><path class="cls-1" d="M152.33,87.94v7c0,1.41.46,2.59,2.27,2.59s2.21-1.12,2.21-2.59v-7h2v7c0,2.3-1,4.11-4.26,4.11s-4.22-1.65-4.22-4.08V87.94Z"/><path class="cls-1" d="M160.32,98.94V96.52h1.87v2.42Z"/><path class="cls-1" d="M165.36,95.74a2,2,0,0,0,2.2,1.81c1.29,0,1.89-.6,1.89-1.52,0-1.08-.6-1.52-2.35-2-2.51-.71-3.39-1.57-3.39-3.15,0-1.94,1.55-3.06,3.67-3.06,2.6,0,3.69,1.37,3.82,3.07h-1.94a1.72,1.72,0,0,0-1.91-1.57c-1.11,0-1.67.52-1.67,1.36s.58,1.19,2.24,1.67c2.82.83,3.56,1.92,3.56,3.47,0,1.81-1.24,3.27-4,3.27-2.4,0-3.91-1.22-4.06-3.33Z"/><path class="cls-1" d="M172.83,98.94V96.52h1.87v2.42Z"/><path class="cls-1" d="M180.57,87.94h2v4.44H187V87.94h2v11h-2V94h-4.48v4.93h-2Z"/><path class="cls-1" d="M200.94,93.38c0,3.16-1.53,5.72-5,5.72s-4.83-2.55-4.83-5.73c0-2.77,1.52-5.57,5-5.57C199.39,87.8,200.94,90.34,200.94,93.38Zm-7.78,0c0,2.32,1,4.16,2.89,4.16s2.87-1.74,2.87-4.15c0-2.19-.81-4-2.9-4S193.16,91.14,193.16,93.37Z"/><path class="cls-1" d="M204.92,87.94v7c0,1.41.46,2.59,2.27,2.59s2.22-1.12,2.22-2.59v-7h2v7c0,2.3-1,4.11-4.25,4.11s-4.23-1.65-4.23-4.08V87.94Z"/><path class="cls-1" d="M215,95.74a2,2,0,0,0,2.21,1.81c1.29,0,1.89-.6,1.89-1.52,0-1.08-.6-1.52-2.35-2-2.51-.71-3.39-1.57-3.39-3.15,0-1.94,1.55-3.06,3.67-3.06,2.59,0,3.68,1.37,3.81,3.07h-1.94A1.71,1.71,0,0,0,217,89.3c-1.1,0-1.66.52-1.66,1.36s.57,1.19,2.24,1.67c2.82.83,3.55,1.92,3.55,3.47,0,1.81-1.24,3.27-4,3.27-2.4,0-3.92-1.22-4.06-3.33Z"/><path class="cls-1" d="M229.84,94H224.9v3.33h5.45l-.25,1.6H223v-11h7.07v1.62H224.9v2.83h4.94Z"/><path class="cls-1" d="M245.34,93.38c0,3.16-1.54,5.72-5,5.72s-4.83-2.55-4.83-5.73c0-2.77,1.51-5.57,5-5.57C243.79,87.8,245.34,90.34,245.34,93.38Zm-7.78,0c0,2.32,1,4.16,2.88,4.16,2.07,0,2.87-1.74,2.87-4.15,0-2.19-.81-4-2.9-4S237.56,91.14,237.56,93.37Z"/><path class="cls-1" d="M247.41,87.94h7v1.62h-5v3.07h4.71v1.6h-4.71v4.71h-1.94Z"/><path class="cls-1" d="M262.08,94.23v4.71h-1.94v-11h4.36c2.07,0,3.54,1,3.54,2.93a2.49,2.49,0,0,1-1.78,2.56c1.14.42,1.57,1.28,1.57,2.69v.26a15.21,15.21,0,0,0,.16,2.56h-1.93a9.6,9.6,0,0,1-.19-2.58v-.25c0-1.37-.51-1.88-2.11-1.88Zm0-1.55h1.85c1.2,0,2.13-.32,2.13-1.65,0-1.07-.76-1.54-1.82-1.54h-2.16Z"/><path class="cls-1" d="M277,94h-4.94v3.33h5.45l-.25,1.6h-7.13v-11h7.08v1.62h-5.15v2.83H277Z"/><path class="cls-1" d="M279.22,87.94h4c2.1,0,3.85,1.06,3.85,3.2s-1.66,3.38-4,3.38h-1.83v4.42h-2Zm2,5h1.72c1.28,0,2.13-.46,2.13-1.79,0-1.18-.86-1.7-2.08-1.7h-1.77Z"/><path class="cls-1" d="M290.79,94.23v4.71h-1.94v-11h4.35c2.07,0,3.54,1,3.54,2.93A2.49,2.49,0,0,1,295,93.43c1.14.42,1.57,1.28,1.57,2.69v.26a16.35,16.35,0,0,0,.16,2.56h-1.92a9.07,9.07,0,0,1-.2-2.58v-.25c0-1.37-.5-1.88-2.1-1.88Zm0-1.55h1.84c1.21,0,2.14-.32,2.14-1.65,0-1.07-.77-1.54-1.83-1.54h-2.15Z"/><path class="cls-1" d="M305.69,94h-4.94v3.33h5.45l-.25,1.6h-7.12v-11h7.08v1.62h-5.16v2.83h4.94Z"/><path class="cls-1" d="M309.31,95.74a2,2,0,0,0,2.2,1.81c1.29,0,1.9-.6,1.9-1.52,0-1.08-.61-1.52-2.35-2-2.51-.71-3.4-1.57-3.4-3.15,0-1.94,1.55-3.06,3.67-3.06,2.6,0,3.69,1.37,3.82,3.07h-1.94a1.71,1.71,0,0,0-1.91-1.57c-1.11,0-1.66.52-1.66,1.36s.57,1.19,2.23,1.67c2.83.83,3.56,1.92,3.56,3.47,0,1.81-1.24,3.27-4,3.27-2.4,0-3.92-1.22-4.06-3.33Z"/><path class="cls-1" d="M324.17,94h-4.94v3.33h5.45l-.25,1.6H317.3v-11h7.08v1.62h-5.15v2.83h4.94Z"/><path class="cls-1" d="M326.4,98.94v-11H329c3.72,7.08,4.29,8.17,4.47,8.66h0c-.11-1.36-.13-3.14-.13-4.93V87.94h1.83v11h-2.43c-4-7.75-4.37-8.56-4.57-9h0c.08,1.39.08,3.28.08,5.25v3.73Z"/><path class="cls-1" d="M339.83,89.56H336.7V87.94h8.23v1.62h-3.11v9.38h-2Z"/><path class="cls-1" d="M347,96.07l-.9,2.87h-1.94c.36-1.07,3.08-9.78,3.49-11h2.55l3.67,11h-2.09l-.93-2.87Zm3.43-1.61c-.79-2.45-1.31-4-1.55-5h0c-.28,1.25-.82,3-1.47,5Z"/><path class="cls-1" d="M356.09,89.56H353V87.94h8.24v1.62h-3.11v9.38h-2Z"/><path class="cls-1" d="M364.65,87.94v11h-2v-11Z"/><path class="cls-1" d="M369.72,98.94l-3.65-11h2.12l1.58,5.14c.46,1.49.93,3,1.14,4h0c.23-.95.75-2.55,1.21-4l1.66-5.19h2l-3.76,11Z"/><path class="cls-1" d="M384.06,94h-4.95v3.33h5.45l-.24,1.6h-7.13v-11h7.08v1.62h-5.16v2.83h4.95Z"/><path class="cls-1" d="M387.68,95.74a2,2,0,0,0,2.2,1.81c1.29,0,1.89-.6,1.89-1.52,0-1.08-.6-1.52-2.35-2-2.51-.71-3.39-1.57-3.39-3.15,0-1.94,1.55-3.06,3.67-3.06,2.59,0,3.68,1.37,3.82,3.07h-1.95a1.71,1.71,0,0,0-1.9-1.57c-1.11,0-1.67.52-1.67,1.36s.57,1.19,2.24,1.67c2.82.83,3.55,1.92,3.55,3.47,0,1.81-1.24,3.27-4,3.27-2.4,0-3.91-1.22-4.06-3.33Z"/><path class="cls-1" d="M106.36,36.2h6.9V51.48h9.29V36.2h7V74.8h-7V57.47h-9.29V74.8h-6.9Z"/><path class="cls-1" d="M156.69,59.8c0,10.72-3.93,15.57-11.17,15.57s-11-4.62-11-15.39c0-10.49,4.39-15.17,11.34-15.17S156.69,49.94,156.69,59.8Zm-15.28.12c0,6.33,1,9.75,4.34,9.75,3,0,4.1-3.37,4.1-9.69,0-6.5-1.08-9.47-4.16-9.47S141.41,53.59,141.41,59.92Z"/><path class="cls-1" d="M181.94,66.13c0,4.28,0,7.13.06,8.67h-6.5a20.06,20.06,0,0,1-.23-3.25c-1.31,2.73-3.48,3.76-6.61,3.76-4.16,0-7.35-2-7.35-8.84V45.27h6.78V64.93c0,2.91.63,4.56,3.14,4.56s3.93-1.42,3.93-6.09V45.27h6.78Z"/><path class="cls-1" d="M192.77,65.85c0,2.05,1,4.27,3.82,4.27,2.22,0,3.31-1.19,3.31-3.13s-.92-3.2-4.39-4.51c-7-2.56-8.73-5-8.73-9.29,0-4,2.57-8.44,9.58-8.44,7.75,0,9.64,5.31,9.64,9.18h-6.5c0-1.08-.12-4-3.31-4a2.55,2.55,0,0,0-2.74,2.74c0,1.88,1,2.73,4.56,4,6.28,2.33,8.61,4.67,8.61,9.46,0,5.81-3.65,9.12-10.32,9.12-7.06,0-10.2-4.22-10.2-9.46Z"/><path class="cls-1" d="M216.54,61.8c0,3.76.46,7.92,4.22,7.92,3.42,0,3.82-2.9,4-3.87h6.5c-.12.91-.8,9.52-10.55,9.52-9.58,0-10.95-8-10.95-15.51,0-9.35,3.6-15,11.06-15,8.56,0,10.66,6.39,10.66,14.08,0,1-.05,2.4-.11,2.91Zm8.21-4.9c0-2.91-.34-6.56-3.94-6.56-3.93,0-4.16,4.39-4.16,6.56Z"/><path class="cls-1" d="M247,36.2h6.9V51.48h9.29V36.2h7V74.8h-7V57.47h-9.29V74.8H247Z"/><path class="cls-1" d="M283.74,58.32V74.8H276.9V36.2h11.8c7,0,11,3.71,11,10.55,0,5.59-3,8-5,8.78,3,1.42,4.39,3.93,4.39,9.63V66.7a47.88,47.88,0,0,0,.52,8.1h-6.67c-.57-1.77-.63-4.85-.63-8.15V65.28c0-5.19-1.2-7-5.59-7Zm0-5.58H287c4.16,0,5.81-1.77,5.81-5.65,0-3.36-1.59-5.3-5.13-5.3h-3.93Z"/><path class="cls-1" d="M315.54,36.2h6.9V51.48h9.29V36.2h7V74.8h-7V57.47h-9.29V74.8h-6.9Z"/><path class="cls-1" d="M365.08,66.13c0,4.28,0,7.13.05,8.67h-6.49a19,19,0,0,1-.23-3.25c-1.31,2.73-3.48,3.76-6.61,3.76-4.17,0-7.36-2-7.36-8.84V45.27h6.79V64.93c0,2.91.62,4.56,3.13,4.56s3.93-1.42,3.93-6.09V45.27h6.79Z"/><path class="cls-1" d="M371.12,34.32h6.78V48.23c1-1.82,3-3.42,6.56-3.42,6,0,8.6,5.3,8.6,14.42,0,9.35-2.28,16.08-9.52,16.08-3.81,0-5.07-1.88-5.87-3.36,0,.68-.05,2-.11,2.85h-6.5c.06-1.94.06-5.31.06-8.33Zm11,16.25c-3.31,0-4.45,2.39-4.45,9.63,0,6.9,1,9.35,4.16,9.35s4.39-3.08,4.39-10.2C386.22,53.65,385.43,50.57,382.12,50.57Z"/><path class="cls-1" d="M2.49,7.8v99.09H91V7.8ZM89.07,105H4.46V9.74H89.07Z"/><path class="cls-1" d="M39.51,84.19v-9c1.72-1.79,1.34-3.14-1.65-4.12A111.86,111.86,0,0,0,8.05,66.93H7.81L6.68,67v14.1C18.55,81,30.36,82.06,39.51,84.19Zm-2.29-7.35c0-1.18.51-1.22.51,0v5.23l-.51-.14ZM35,76c0-1.27.7-1.31.7,0v5.58l-.7-.17Zm-3.25-1c0-1.34,1.19-1.38,1.19,0v6l-1.19-.23Zm-4-1c.06-1.37,1.64-1.41,1.64,0v6.29L27.76,80Zm-4.69-.79a1,1,0,1,1,1.92,0v6.4h-.8l-1.12-.12ZM18,72.68a1,1,0,1,1,2,0v6.51c-.67-.06-1.33-.1-2-.15Zm-5.33-.37a1,1,0,1,1,2.06,0v6.56l-2.06-.08Zm-5.75,0a1.06,1.06,0,1,1,2.12,0v6.39l-2.12,0Z"/><path class="cls-1" d="M6.68,88.39v14.43h.16V94.14C6.92,92.05,9,92,9,94.14v8.68h1l.07-14.43C9,88.38,7.83,88.39,6.68,88.39Z"/><path class="cls-1" d="M37.75,90.83l0,12h.44V98.51c0-2.12.53-2.2.53,0v4.31H40l0-11.41C39.3,91.21,38.55,91,37.75,90.83Z"/><path class="cls-1" d="M45,94.86a1.7,1.7,0,0,0-.28-.9l0,8.86H45v-8Z"/><path class="cls-1" d="M42.81,92.48l0,10.34h1.44V93.48A5.84,5.84,0,0,0,42.81,92.48Z"/><path class="cls-1" d="M35.22,90.32l.07,12.5H36V97.69c0-2.14.72-2.22.72,0v5.13h.5l0-12.11C36.58,90.57,35.92,90.44,35.22,90.32Z"/><path class="cls-1" d="M40.53,91.58l0,11.24h1.68l0-10.59A16.39,16.39,0,0,0,40.53,91.58Z"/><path class="cls-1" d="M11.55,88.41l.14,14.41h1.1V94.14c.07-2.09,2.13-2.16,2.13,0v8.68h.87l.07-14.3C14.44,88.47,13,88.44,11.55,88.41Z"/><path class="cls-1" d="M17.27,88.58l.13,14.24h.91V94.65c.07-2.08,2.08-2.15,2.08,0v8.17h.75l.06-14C19.91,88.7,18.6,88.63,17.27,88.58Z"/><path class="cls-1" d="M22.52,88.86l.12,14h1V95.11c.07-2,2-2.07,2,0v7.71h.79l.05-13.65C25.16,89.06,23.86,89,22.52,88.86Z"/><path class="cls-1" d="M31.79,89.78l.08,13h.73v-6c0-2.11,1.23-2.18,1.23,0v6h.61l0-12.63C33.62,90,32.72,89.91,31.79,89.78Z"/><path class="cls-1" d="M27.66,89.29l.12,13.53h.67V95.89c.06-2.06,1.7-2.13,1.7,0v6.93h.68l0-13.16C29.84,89.52,28.77,89.4,27.66,89.29Z"/><path class="cls-1" d="M9.88,57.64c.07-9.83-.32-16.27-1.21-20.09H8.12q-.73,0-1.44.06v1.1A11.24,11.24,0,0,1,7,37.59l.51,0a18.86,18.86,0,0,0-.86,3.34V57.6C7.75,57.6,8.81,57.6,9.88,57.64ZM7.22,50.76l.73-.7.76.7v2.59L8,54l-.73-.63Z"/><polygon class="cls-1" points="21.02 40.73 21.02 40.73 21.02 40.73 21.02 40.73"/><polygon class="cls-1" points="17.4 39.02 17.39 39.02 17.4 39.02 17.4 39.02"/><polygon class="cls-1" points="21.43 40.98 21.43 40.98 21.43 40.98 21.43 40.98"/><polygon class="cls-1" points="13.28 37.93 13.28 37.93 13.28 37.93 13.28 37.93"/><path class="cls-1" d="M10.85,37.63l-.46,0,.46,0Z"/><path class="cls-1" d="M15.74,38.48h0c.3.08.58.17.87.27Q16.19,38.6,15.74,38.48Z"/><polygon class="cls-1" points="14.63 38.2 14.63 38.2 14.63 38.2 14.63 38.2"/><path class="cls-1" d="M12.59,37.82c-.3,0-.6-.08-.91-.12h0C12,37.74,12.29,37.77,12.59,37.82Z"/><polygon class="cls-1" points="26.23 59.6 26.23 59.6 26.23 59.6 26.23 59.6"/><path class="cls-1" d="M23.19,59h0c1,.19,2,.39,3,.61.54-8-4.3-17.55-10.49-21.12l-1.11-.28C20,41.88,23.8,50.87,23.19,59Zm1.21-7.28.68.63.31,2.57-.52.7-.7-.56-.31-2.57Z"/><path class="cls-1" d="M26.68,59.7c.92.21,1.83.43,2.73.67.65-8.33-5.06-17.45-11-21q-.46-.21-1-.39C23,43.23,27.22,52.2,26.68,59.7Zm.71-7.38.65.61.46,2.55-.42.71-.66-.53L27,53.11Z"/><path class="cls-1" d="M18.31,39.37l.05,0,.13.05Z"/><path class="cls-1" d="M18.49,39.46c.4.17.8.35,1.18.54C19.29,39.81,18.89,39.63,18.49,39.46Z"/><path class="cls-1" d="M14.88,57.91c1.32.11,2.63.25,3.92.41.58-8.4-2.54-17.47-7.12-20.62h0l-.83-.07C13.27,41.44,15.31,49.88,14.88,57.91Zm2-7.51.76.67.14,2.59-.7.66-.8-.59-.13-2.59Z"/><path class="cls-1" d="M19.27,58.38h-.15c1.22.15,2.43.34,3.62.55h0c.63-8.5-3.63-17.94-9.45-21l-.69-.11C16.94,41.43,19.83,50.22,19.27,58.38ZM20.79,51l.73.65.18,2.59-.63.67-.74-.58-.19-2.58Z"/><path class="cls-1" d="M29.86,60.49c.74.2,1.46.41,2.18.63C32.3,54,27.12,45.54,21.43,41c-.13-.09-.27-.17-.41-.25C26.18,45.09,30.48,53.1,29.86,60.49ZM29.63,53l.55.59.66,2.51-.22.71-.55-.51-.65-2.51Z"/><path class="cls-1" d="M32.51,61.26l-.07,0c.59.19,1.17.37,1.74.57A35.9,35.9,0,0,0,31,52.11a30.31,30.31,0,0,0-4.21-6.48,23.07,23.07,0,0,0-2.72-2.69c.27.23.54.46.79.7C29.33,48.51,32.78,55.37,32.51,61.26Z"/><path class="cls-1" d="M9.16,37.55h0Z"/><path class="cls-1" d="M10.27,37.59Z"/><path class="cls-1" d="M10.35,57.65h-.18c1.42,0,2.83.12,4.24.23h0c.47-8.79-2-17.06-4.14-20.28l-1.11,0C10,41.43,10.42,47.88,10.35,57.65Zm1.48-6.74.76-.7.73.7V53.5l-.73.64-.76-.64Z"/><path class="cls-1" d="M44.87,91.4v2c2.11-.81,2.6-3.11,0-4.8C40,84.87,23.2,83.12,6.68,83.2v2.31C23.46,85.39,40.51,87.25,44.87,91.4Z"/><path class="cls-1" d="M18.29,38.18v.87a1.35,1.35,0,0,0,0-2.07c-1.45-1.79-6.77-2.53-11.61-2.31v1C11.58,35.43,17,36.2,18.29,38.18Z"/><path class="cls-1" d="M15,33.45V34a.94.94,0,0,0,0-1.43c-1-1.28-4.91-1.77-8.29-1.56v.7C10.11,31.51,14.06,32,15,33.45Z"/><path class="cls-1" d="M15,20.57v.6a.94.94,0,0,0,0-1.43c-1-1.28-4.91-1.77-8.29-1.56v.7C10.11,18.64,14.06,19.16,15,20.57Z"/><path class="cls-1" d="M17.07,65.71c1,.09,2.05.19,3.08.3V62.1c-1-.13-2-.24-3.08-.34Z"/><path class="cls-1" d="M9.72,61.33c-1,0-2,0-3,0v4c1,0,2,0,3,0Z"/><path class="cls-1" d="M11.79,65.38c1.1,0,2.2.1,3.29.18v-4c-1.09-.09-2.19-.15-3.29-.19Z"/><path class="cls-1" d="M21.92,66.23c.9.11,1.8.24,2.7.37V62.8c-.88-.16-1.79-.31-2.7-.45Z"/><path class="cls-1" d="M30.14,67.56l1.66.35V64.5L30.14,64Z"/><path class="cls-1" d="M35.2,68.69l1.11.27V66.08l-1.11-.43Z"/><path class="cls-1" d="M33,68.18l1.32.29V65.34L33,64.89Z"/><path class="cls-1" d="M26.35,66.87l2.13.38V63.61l-2.13-.47Z"/><path class="cls-1" d="M36.86,69.1l1,.24V66.75l-1-.43Z"/><path class="cls-1" d="M31,61.91a83.72,83.72,0,0,0-24.28-3V60A134,134,0,0,1,31,61.91Z"/><path class="cls-1" d="M7.49,22.08v8.26H8.85V22.08C8.89,20.81,7.49,20.76,7.49,22.08Z"/><path class="cls-1" d="M10.28,22.14v8.17l1.26.21v-8C11.57,21.28,10.28,20.84,10.28,22.14Z"/><path class="cls-1" d="M12.4,22.6v8.17l.71.21V23C13.14,21.74,12.39,21.3,12.4,22.6Z"/><path class="cls-1" d="M10.21,14,10,13.82a3,3,0,0,1-.64-1.67,2.45,2.45,0,0,1,0-.27H6.66v5.31a12,12,0,0,1,5.51.64,2.69,2.69,0,0,0,0-.4A4,4,0,0,0,10.21,14Z"/></svg>