<svg id="Layer_1" data-name="Layer 1" xmlns="http://www.w3.org/2000/svg" viewBox="0 0 250 250"><defs><style>.cls-1{fill:none;stroke:#fff;stroke-linecap:round;stroke-linejoin:round;stroke-width:7px;}.cls-2{fill:#fff;}</style></defs><ellipse class="cls-1" cx="92.08" cy="83.29" rx="14.4" ry="16.8"/><path class="cls-1" d="M72.88,114.49c0-7.95,8.6-14.4,19.2-14.4s19.21,6.45,19.21,14.4"/><line class="cls-1" x1="130.49" y1="76.08" x2="164.1" y2="76.08"/><line class="cls-1" x1="130.49" y1="95.29" x2="164.1" y2="95.29"/><line class="cls-1" x1="130.49" y1="114.49" x2="135.3" y2="114.49"/><line class="cls-1" x1="72.88" y1="133.7" x2="134.13" y2="133.7"/><line class="cls-1" x1="72.88" y1="152.9" x2="120.89" y2="152.9"/><path class="cls-1" d="M185.37,64c-54.91-.83-44.25,9.59-45.14-45.13L185.37,64Zm0,38.15V64L140.23,18.9H96.75m88.62,81.19V64L140.23,18.9H58.54a7,7,0,0,0-6.93,6.92V194a7,7,0,0,0,6.93,6.93c27.5-.09,83.54.06,110.85,0m16-100.83M67.58,200.92H178.44a7,7,0,0,0,6.93-6.93v-30.4"/><path class="cls-1" d="M202.34,131.33a33.52,33.52,0,1,0-37.16,33.32h7.28A33.52,33.52,0,0,0,202.34,131.33Z"/><path class="cls-2" d="M165.18,164.65V222a3.27,3.27,0,0,0,3.26,3.26h.76a3.27,3.27,0,0,0,3.26-3.26V164.65a33.22,33.22,0,0,1-7.28,0Z"/></svg>