<svg id="Layer_1" data-name="Layer 1" xmlns="http://www.w3.org/2000/svg" viewBox="0 0 250 250"><defs><style>.cls-1{fill:#333;}</style></defs><path class="cls-1" d="M229.38,234.31H187.64a3.12,3.12,0,1,1,0-6.23h37.15L187.64,135.2,168.93,182a3.11,3.11,0,0,1-5.78-2.32l21.59-54a3.13,3.13,0,0,1,2.9-2h0a3.13,3.13,0,0,1,2.89,2L232.28,230a3.12,3.12,0,0,1-2.9,4.27Z"/><path class="cls-1" d="M62.37,234.31H20.61A3.12,3.12,0,0,1,17.72,230L59.48,125.65c.94-2.36,4.84-2.36,5.78,0l21.6,54A3.11,3.11,0,0,1,81.08,182L62.37,135.19,25.21,228.08H62.37a3.12,3.12,0,1,1,0,6.23Z"/><path class="cls-1" d="M180.94,48.52l9.28-13.93a3.11,3.11,0,0,0-2.58-4.84H159.43V22.42a3.11,3.11,0,0,0-3.11-3.11H125a3.11,3.11,0,0,0-3.11,3.11V85.05a3.12,3.12,0,1,0,6.23,0V56.85H153.2v7.33a3.12,3.12,0,0,0,3.12,3.11h31.32a3.11,3.11,0,0,0,2.58-4.84Zm-52.82-23H153.2V50.62H128.12Zm31.31,35.52V36h22.38L174.6,46.79a3.11,3.11,0,0,0,0,3.46l7.21,10.81Z"/><path class="cls-1" d="M190.5,230,127.86,83.83a3.23,3.23,0,0,0-5.72,0L59.51,230a3.11,3.11,0,0,0,2.86,4.34H187.64A3.12,3.12,0,0,0,190.5,230ZM125,93l23.37,54.52-2.31,4-7.84-15.67a3.16,3.16,0,0,0-3-1.71,3.13,3.13,0,0,0-2.74,2.12L125,158.71l-7.48-22.45a3.13,3.13,0,0,0-2.74-2.12,3.17,3.17,0,0,0-3,1.71l-7.84,15.67-2.3-4ZM67.1,228.08l31.46-73.42,2.86,5a3.37,3.37,0,0,0,2.79,1.57,3.1,3.1,0,0,0,2.7-1.72L114,145.37l8.06,24.18a2.26,2.26,0,0,0,.11.22c.06.13.12.25.19.37a3.6,3.6,0,0,0,.45.58c.09.08.16.17.26.25a3.16,3.16,0,0,0,.89.51l.07,0h0a3.18,3.18,0,0,0,1,.16,3.13,3.13,0,0,0,1-.16h0l.06,0a3,3,0,0,0,.89-.51,3.78,3.78,0,0,0,.71-.83,2.58,2.58,0,0,0,.19-.37c0-.08.09-.14.12-.22L136,145.37l7.08,14.15a3.08,3.08,0,0,0,2.69,1.72,3.42,3.42,0,0,0,2.8-1.57l2.86-5,31.46,73.42Z"/></svg>