<svg id="Layer_1" data-name="Layer 1" xmlns="http://www.w3.org/2000/svg" viewBox="0 0 250 250"><defs><style>.cls-1{fill:none;stroke:#fff;stroke-linecap:round;stroke-linejoin:round;stroke-width:7px;}.cls-2{fill:#fff;}</style></defs><path class="cls-1" d="M121.67,101.37a47.21,47.21,0,0,0-15.22,4.89,59.53,59.53,0,0,0-11.38,7.92h0a59.89,59.89,0,0,0-11.39-7.92A45.73,45.73,0,0,0,64.14,101c-.33,0-.66,0-1,0s-.66,0-1,0a45.74,45.74,0,0,0-19.54,5.26,59.85,59.85,0,0,0-11.38,7.92h0s5.86-82.54,90.44-85V23.4a4.37,4.37,0,1,1,8.74,0v5.74c86.36,1.3,92.32,85,92.32,85h0a59.89,59.89,0,0,0-11.39-7.92A45.69,45.69,0,0,0,191.8,101c-.34,0-.66,0-1,0s-.66,0-1,0a45.74,45.74,0,0,0-19.54,5.26,59.53,59.53,0,0,0-11.38,7.92h0a59.89,59.89,0,0,0-11.39-7.92,46.39,46.39,0,0,0-17.09-5.11Z"/><path class="cls-2" d="M121.67,101.37V214.23c0,15.15,8,24.55,20.8,24.55,15.53,0,21.58-11.27,22.6-17.23a4.36,4.36,0,0,0-8.6-1.49c-.07.41-1.86,10-14,10-10,0-12.06-8.6-12.06-15.82V101.15"/><path class="cls-1" d="M73.3,215.24c-39.51-20-29.21-64.74-29.21-64.74a78.67,78.67,0,0,0,16.83-7.82,53,53,0,0,0,7.31-5.47l.7-.64a25.42,25.42,0,0,0,4.14-4.77A27.6,27.6,0,0,0,78,137.21a52.85,52.85,0,0,0,7.41,5.47,78.66,78.66,0,0,0,16.77,7.67,69.89,69.89,0,0,1-.08,27.15c-2.7,13.18-10.16,28.19-28.78,37.74"/><line class="cls-1" x1="60.56" y1="171.6" x2="85.76" y2="171.6"/><line class="cls-1" x1="73.16" y1="159" x2="73.16" y2="184.2"/></svg>