<svg id="Layer_1" data-name="Layer 1" xmlns="http://www.w3.org/2000/svg" viewBox="0 0 169.21 192.62"><defs><style>.cls-1{fill:none;stroke:#fff;stroke-linecap:round;stroke-linejoin:round;stroke-width:5px;}.cls-2{fill:#fff;}</style></defs><path class="cls-1" d="M71.24,47V37.94a2,2,0,0,1,2-2H196.09a2,2,0,0,1,2,2v172a2,2,0,0,1-2,2H185.86" transform="translate(-43.72 -21.79)"/><path class="cls-1" d="M83.57,35.37V26.31a2,2,0,0,1,2-2H208.42a2,2,0,0,1,2,2v172a2,2,0,0,1-2,2H198.19" transform="translate(-43.72 -21.79)"/><path class="cls-2" d="M50.65,104.9v12.41H43.77V86.94H54c5.85,0,8.86,2.88,8.86,8.42,0,4.18-2.07,6.16-3.91,6.88,2.38,1.08,3.51,3,3.51,7.38v1.08a50.37,50.37,0,0,0,.31,6.61H56.05a30.93,30.93,0,0,1-.49-6.83v-1c0-3.6-.72-4.54-3.38-4.54Zm0-5.27h1.62c2.66,0,3.65-.94,3.65-3.91,0-2.48-.9-3.6-3.2-3.6H50.65Z" transform="translate(-43.72 -21.79)"/><path class="cls-2" d="M82.51,104.45H73.29v7.24H83.73l-.81,5.62H66.45V86.94H82.92v5.72H73.29v6.07h9.22Z" transform="translate(-43.72 -21.79)"/><path class="cls-2" d="M92.77,108.5c.18,2.52.86,4.23,3,4.23s2.66-1.35,2.66-3.11c0-2.07-1-3.33-4.64-5.17-5.26-2.7-7.24-5-7.24-9.45,0-5.22,3.15-8.64,9.18-8.64,7.11,0,9.13,4.45,9.18,9.09H98.17c-.13-2.12-.54-3.92-2.52-3.92-1.53,0-2.25,1-2.25,2.7s.68,2.66,4,4.28c5.62,2.83,8,5.26,8,10.34s-2.93,9.05-9.77,9.05c-7.38,0-9.63-4.23-9.76-9.4Z" transform="translate(-43.72 -21.79)"/><path class="cls-2" d="M115.45,86.94v21.24c0,2,.41,4.23,2.88,4.23s2.79-1.93,2.79-4.18V86.94h7V108c0,6.21-3,9.9-10,9.9s-9.72-3.69-9.72-9.94v-21Z" transform="translate(-43.72 -21.79)"/><path class="cls-2" d="M151,107.6c0-4.73.09-11,.18-14.72H151c-.9,6.35-2.16,16.65-3.55,24.43h-5.63c-1.08-8.09-2.34-18.35-3.15-24.47h-.22c.13,3.55.27,9.72.27,15v9.49h-6.17V86.94h9.86c1,6.35,2,14,2.43,18.23H145c.59-4.55,1.76-11.12,2.88-18.23h9.72v30.37H151Z" transform="translate(-43.72 -21.79)"/><path class="cls-2" d="M178.23,104.45H169v7.24h10.44l-.81,5.62H162.16V86.94h16.47v5.72H169v6.07h9.23Z" transform="translate(-43.72 -21.79)"/><path class="cls-2" d="M43.72,126.94H53.85c5.44,0,8.46,2.75,8.46,7.79,0,3.77-1.71,5.57-3.6,6.25,2.16.9,4.45,2.79,4.45,7.33,0,6-3.69,9-9.54,9h-9.9Zm8.69,11.84c2.56,0,3.15-1,3.15-3.38s-1-3.37-3.11-3.37H50.52v6.75Zm-1.89,13.49h2.2c2.16,0,3.29-1,3.29-4.23,0-3-.9-4.36-3.69-4.36h-1.8Z" transform="translate(-43.72 -21.79)"/><path class="cls-2" d="M72.79,150.79l-1,6.52h-7l6-30.37h9.81l6.07,30.37H79.41l-1.08-6.52Zm4.64-5.85c-.72-4.45-1.4-9.4-1.76-12.19h-.22c-.32,2.92-1,7.74-1.76,12.19Z" transform="translate(-43.72 -21.79)"/><path class="cls-2" d="M89,157.31V126.94h7.65c4.64,14.31,5.67,17.77,6,19.12h.13c-.31-3.82-.4-8.81-.4-13.54v-5.58h6.16v30.37H101c-4.82-15.79-5.72-18.85-6-20.15h-.14c.23,3.64.36,9.26.36,14.22v5.93Z" transform="translate(-43.72 -21.79)"/><path class="cls-2" d="M113.11,126.94h6.8v12.64c1.48-3.05,4.41-9.22,6.21-12.64h7.74L127,138.82l7,18.49h-7.6l-4.32-12.46-2.16,3.24v9.22h-6.8Z" transform="translate(-43.72 -21.79)"/></svg>