<?xml version="1.0" encoding="utf-8"?>
<!-- Generator: Adobe Illustrator 26.0.1, SVG Export Plug-In . SVG Version: 6.00 Build 0)  -->
<svg version="1.1" id="Layer_1" xmlns="http://www.w3.org/2000/svg" xmlns:xlink="http://www.w3.org/1999/xlink" x="0px" y="0px"
	 viewBox="0 0 250 250" style="enable-background:new 0 0 250 250;" xml:space="preserve">
<style type="text/css">
	.st0{fill:#FFFFFF;}
	.st1{fill:#FFFFFF;stroke:#FFFFFF;stroke-width:4;stroke-miterlimit:10;}
	.st2{fill:none;stroke:#FFFFFF;stroke-width:7;stroke-linecap:round;stroke-linejoin:round;}
</style>
<path class="st0" d="M168.1,137.5l-2-50.2c-0.7-16.7-79.5-15.5-82-0.2c-2.1,9.5-2.4,31.1-2.6,47.5c-0.1,7.9-2.8,24.3,8.3,23
	c3.2-0.2,6.7-3.1,9.3-10.6l0.4,0.1l-0.3,31.4l-0.5,39.9c-0.1,15.1,26.2,15.3,26.3,0.3c0.1,15,26.6,14.8,26.4-0.3l-0.5-39.9
	l-0.3-30.8l0.3-0.7c3.7,10.7,9.3,12,13.2,9.6C170.6,152.6,168.4,144.2,168.1,137.5z"/>
<path class="st1" d="M124.5,18.6c10.7,0,19.3,9.5,19.3,21.1c0.1,7.4-3.6,14.4-9.8,18.4c-2.9,1.9-6.3,2.9-9.8,2.9
	c-10.7,0-19.3-9.5-19.3-21.1c-0.1-7.4,3.6-14.4,9.8-18.4C117.6,19.7,121,18.6,124.5,18.6z"/>
<path class="st2" d="M59.2,166.3v52.3c0,13.5,24.5,13.3,24.4-0.2l-0.4-35.2L83,177 M62.1,91c-18.5-0.1-37.8,3.7-38.9,10.7
	c-1.9,8.5-2.1,20.4-2.3,35.1c-0.1,7.1-2.5,21.8,7.4,20.6c2.9-0.2,6-2.8,8.3-9.5 M37.3,117l-0.6,66.1l-0.5,35.2
	c-0.1,13.5,22.9,13.7,22.9,0.2 M59.4,39.3c9.6,0,17.3,8.5,17.3,19c0.1,6.6-3.2,12.9-8.8,16.5c-2.6,1.7-5.7,2.6-8.8,2.6
	c-9.6,0-17.3-8.5-17.3-19c-0.1-6.6,3.2-12.9,8.8-16.5C53.2,40.2,56.3,39.3,59.4,39.3z M189.6,166.3v52.3c0,13.5,24.5,13.3,24.4-0.2
	l-0.4-35.2l-0.6-66.1 M213.6,146.4c3.3,9.6,8.3,10.8,11.8,8.6c5.8-3.6,3.8-11.1,3.5-17.1l-1.8-36c-0.4-8.3-22.4-11.7-42.3-10.7
	 M167.2,175.1l-0.1,3.1l-0.4,39c-0.1,15,22.9,15.2,22.9,0.2 M189.8,39.2c9.6,0,17.3,8.5,17.3,19c0.1,6.6-3.2,12.9-8.8,16.5
	c-2.6,1.7-5.7,2.6-8.8,2.6c-9.6,0-17.3-8.5-17.3-19c-0.1-6.6,3.3-12.8,8.8-16.4C183.6,40.2,186.7,39.3,189.8,39.2L189.8,39.2z"/>
<line class="st2" x1="184.5" y1="102.8" x2="214.9" y2="93.2"/>
<line class="st2" x1="185" y1="116" x2="225.9" y2="103.2"/>
<line class="st2" x1="185.6" y1="129.2" x2="226.5" y2="116.4"/>
<line class="st2" x1="176.8" y1="49.9" x2="197.1" y2="43.5"/>
<line class="st2" x1="178.6" y1="62.7" x2="203.4" y2="55"/>
<line class="st2" x1="183.1" y1="74.7" x2="202.4" y2="68.7"/>
<line class="st2" x1="186.1" y1="142.5" x2="227" y2="129.7"/>
<line class="st2" x1="186.7" y1="155.7" x2="227.6" y2="142.9"/>
<line class="st2" x1="168.9" y1="174.8" x2="212.2" y2="161.2"/>
<line class="st2" x1="168.9" y1="188.2" x2="212.2" y2="174.6"/>
<line class="st2" x1="168.9" y1="201.6" x2="212.2" y2="188"/>
<line class="st2" x1="168.9" y1="215" x2="212.2" y2="201.4"/>
<line class="st2" x1="174.5" y1="226.7" x2="212.2" y2="214.9"/>
</svg>
