<svg id="Layer_1" data-name="Layer 1" xmlns="http://www.w3.org/2000/svg" viewBox="0 0 250 250"><defs><style>.cls-1{fill:none;stroke:#333;stroke-linecap:round;stroke-linejoin:round;stroke-width:7px;}</style></defs><path class="cls-1" d="M113.16,133.36v20.22l-8.71,29.58c-5.32,18.09-26.71,13.14-25.64-1.75l10.81-27.18.31-24.08.44-34.74L76,123c-6.38,16.78-20.2,5.86-17.29-1.78l17.4-39.95c4.41-16.9,21-7.85,29-7.46,18.56,4.34,35.53-10.92,49.41-18.72,12.44-7,22.9,9.49,9.14,17.71l-33,20.89.18,14.11L154.47,109c5.37.26,10.14,7.16,10.14,12.52v37.14c0,14.62-23.9,11.87-23.9,0l.35-23.8-27.9-1.47Z"/><path class="cls-1" d="M114,18.43A21.07,21.07,0,1,1,92.94,39.49,21.06,21.06,0,0,1,114,18.43Z"/><polyline class="cls-1" points="77.52 235.66 77.12 208.61 130.86 208.91 130.47 181.86 184.2 182.17 183.81 155.11 237.55 155.42"/><line class="cls-1" x1="130.86" y1="199.78" x2="130.86" y2="235.66"/><line class="cls-1" x1="184.2" y1="173.72" x2="184.2" y2="235.66"/><polyline class="cls-1" points="237.55 155.42 237.55 235.66 23.39 235.66"/></svg>