<?xml version="1.0" encoding="UTF-8"?><svg id="Layer_1" xmlns="http://www.w3.org/2000/svg" viewBox="0 0 250 250"><defs><style>.cls-1{fill:#027353;}.cls-2{fill:#cde7f7;}</style></defs><circle class="cls-2" cx="125.6" cy="125.04" r="124.5"/><g><path class="cls-1" d="M129.37,203.2c-.55,.55-.85,1.29-.85,2.06v10.16h5.83v-8.95l7.04-7.04h0c1.09-1.1,1.7-2.58,1.71-4.12v-21.75c0-2.32-.93-4.54-2.56-6.18-1.64-1.64-3.86-2.56-6.18-2.56v-37.23c0-3.12-1.67-6.01-4.37-7.57s-6.04-1.56-8.75,0-4.37,4.45-4.37,7.57v16.82h-2.92c-1.81,0-3.57,.56-5.05,1.61-1.48,1.04-2.59,2.52-3.2,4.22h-3.41c-1.81,0-3.57,.56-5.05,1.61-1.48,1.04-2.59,2.52-3.2,4.22h-.5c-3.09,0-6.06,1.23-8.24,3.42-2.19,2.19-3.42,5.15-3.42,8.24v28.38c0,1.15,.34,2.28,.98,3.23l4.36,6.54c.32,.48,.49,1.04,.49,1.62v7.91h5.83v-7.91c0-1.73-.51-3.42-1.47-4.85l-4.36-6.54v-28.38c0-1.55,.62-3.03,1.71-4.12,1.09-1.09,2.57-1.71,4.12-1.71v9.78h5.83v-12.7c0-1.61,1.31-2.92,2.92-2.92h2.92v11.66h5.83v-14.58c0-1.61,1.31-2.92,2.92-2.92h2.92v11.66h5.83v-34.32c0-1.61,1.31-2.92,2.92-2.92s2.92,1.31,2.92,2.92v61.89h5.83v-18.83c1.61,0,2.91,1.31,2.92,2.92v21.75l-7.89,7.89Z"/><path class="cls-1" d="M146.01,127.03c0-6.46-3.06-12.53-8.24-16.38-5.18-3.85-11.88-5.02-18.06-3.15-6.18,1.86-11.11,6.54-13.31,12.62-2.19,6.07-1.38,12.82,2.19,18.2l4.86-3.23h0c-1.92-2.9-2.74-6.39-2.31-9.84,.43-3.45,2.07-6.64,4.64-8.98,2.57-2.34,5.89-3.69,9.37-3.8,3.48-.11,6.88,1.03,9.59,3.21,2.71,2.18,4.55,5.25,5.19,8.67,.64,3.42,.04,6.95-1.7,9.97l5.04,2.92c1.79-3.1,2.73-6.62,2.73-10.21h0Z"/><path class="cls-1" d="M189.74,101.72c6.96,0,13.63-2.76,18.55-7.69,4.92-4.92,7.69-11.59,7.69-18.55s-2.76-13.63-7.69-18.55c-4.92-4.92-11.59-7.69-18.55-7.69s-13.63,2.76-18.55,7.69c-4.92,4.92-7.69,11.59-7.69,18.55,0,6.96,2.77,13.63,7.69,18.55,4.92,4.92,11.59,7.69,18.55,7.69Zm-8.75-7.83v-6.75c0-1.55,.62-3.03,1.71-4.12s2.57-1.71,4.12-1.71h5.83c1.55,0,3.03,.62,4.12,1.71s1.71,2.57,1.71,4.12v6.75c-5.53,2.66-11.97,2.66-17.49,0h0Zm8.75-18.41c-1.77,0-3.36-1.07-4.04-2.7-.68-1.63-.3-3.52,.95-4.77s3.13-1.62,4.77-.95c1.63,.68,2.7,2.27,2.7,4.04,0,2.41-1.96,4.37-4.37,4.37h0Zm0-20.41c5.39,0,10.56,2.12,14.38,5.92,3.82,3.79,5.99,8.95,6.03,14.33,.04,5.39-2.06,10.57-5.83,14.41v-2.59c0-2.11-.59-4.18-1.68-5.98-1.09-1.8-2.65-3.28-4.52-4.26,1.42-2.05,2.05-4.55,1.75-7.03-.3-2.48-1.49-4.76-3.36-6.42-1.87-1.66-4.28-2.57-6.77-2.57s-4.91,.92-6.77,2.57c-1.87,1.66-3.06,3.94-3.36,6.42-.3,2.48,.33,4.98,1.75,7.03-1.86,.98-3.43,2.46-4.52,4.26-1.09,1.8-1.67,3.87-1.68,5.98v2.59c-3.77-3.85-5.87-9.03-5.83-14.41,.04-5.39,2.2-10.54,6.03-14.33,3.82-3.79,8.99-5.92,14.38-5.92h0Z"/><path class="cls-1" d="M61.46,101.72c6.96,0,13.63-2.76,18.55-7.69,4.92-4.92,7.69-11.59,7.69-18.55s-2.76-13.63-7.69-18.55c-4.92-4.92-11.59-7.69-18.55-7.69s-13.63,2.76-18.55,7.69c-4.92,4.92-7.69,11.59-7.69,18.55,0,6.96,2.77,13.63,7.69,18.55,4.92,4.92,11.59,7.69,18.55,7.69Zm0-46.65c5.41,0,10.6,2.15,14.43,5.98,3.83,3.83,5.98,9.02,5.98,14.43s-2.15,10.6-5.98,14.43c-3.83,3.83-9.02,5.98-14.43,5.98s-10.6-2.15-14.43-5.98c-3.83-3.83-5.98-9.02-5.98-14.43,0-5.41,2.16-10.6,5.98-14.42,3.83-3.83,9.01-5.98,14.42-5.98Z"/><path class="cls-1" d="M61.46,84.22c-1.61,0-2.91-1.31-2.92-2.92h-5.83c0,1.8,.57,3.56,1.61,5.03,1.04,1.47,2.52,2.58,4.22,3.18v3.45h5.83v-3.45c2.61-.92,4.64-3.02,5.45-5.67,.81-2.65,.32-5.53-1.33-7.75-1.65-2.23-4.26-3.53-7.03-3.53-1.18,0-2.24-.71-2.69-1.8-.45-1.09-.2-2.34,.63-3.18s2.09-1.08,3.18-.63c1.09,.45,1.8,1.51,1.8,2.69h5.83c0-1.8-.57-3.56-1.61-5.03s-2.52-2.58-4.22-3.18v-3.45h-5.83v3.45c-2.61,.92-4.64,3.03-5.45,5.67-.81,2.65-.32,5.53,1.33,7.75,1.65,2.23,4.26,3.53,7.03,3.53,1.61,0,2.92,1.31,2.92,2.92s-1.31,2.92-2.92,2.92h0Z"/><path class="cls-1" d="M134.95,83.35l.02-2.91h0c1.15-.52,2.25-1.13,3.29-1.83l.29,.05,2.52,1.41c1.12,.62,2.51,.45,3.43-.43,3.48-3.3,5.99-7.5,7.23-12.13,.35-1.29-.23-2.65-1.39-3.3l-2.62-1.47c.06-.62,.09-1.22,.09-1.83s-.03-1.22-.09-1.83l2.62-1.47h0c1.16-.65,1.74-2.01,1.39-3.29-1.24-4.64-3.74-8.84-7.22-12.14-.93-.88-2.32-1.05-3.43-.43l-2.53,1.41,1.42,2.55-1.71-2.5c-1.07-.7-2.18-1.35-3.32-1.94v-2.82c0-1.32-.89-2.48-2.16-2.82-2.46-.65-4.99-.97-7.53-.95-2.31,.04-4.61,.36-6.84,.97-1.28,.34-2.16,1.5-2.16,2.82l-.03,2.91h0c-1.15,.52-2.25,1.13-3.29,1.83l-.29-.05-2.52-1.41c-1.12-.62-2.5-.45-3.43,.43-3.48,3.3-5.99,7.5-7.23,12.13-.35,1.29,.23,2.65,1.39,3.3l2.62,1.47c-.06,.62-.09,1.22-.09,1.83s.03,1.22,.09,1.83l-2.62,1.47h0c-1.16,.65-1.74,2.01-1.39,3.29,1.24,4.64,3.74,8.84,7.22,12.14,.93,.88,2.32,1.06,3.43,.43l2.53-1.41,.29-.05c1.07,.7,2.18,1.35,3.32,1.94v2.82h0c0,1.32,.89,2.47,2.16,2.82,2.34,.63,4.75,.95,7.17,.96,.12,0,.24,0,.36,0h0c2.31-.04,4.61-.36,6.84-.97,1.28-.34,2.16-1.5,2.16-2.82h0Zm-5.83-2.81v.46h0c-1.07,.18-2.16,.28-3.25,.3-1.27,.03-2.54-.07-3.78-.29v-.47c0-1.14-.32-2.26-.93-3.21-.61-.96-1.49-1.72-2.52-2.2-.85-.38-1.66-.84-2.44-1.35-.94-.62-2.04-.96-3.17-1-1.13-.04-2.24,.24-3.23,.79l-.56,.31c-1.47-1.71-2.63-3.66-3.45-5.76l2.27-1.27h0c1.1-.61,1.68-1.86,1.44-3.09-.38-1.88-.38-3.83,0-5.71,.23-1.23-.35-2.48-1.44-3.09l-2.27-1.27h0c.83-2.1,2-4.04,3.46-5.75l.54,.3c.98,.56,2.09,.83,3.22,.79,1.13-.04,2.22-.38,3.16-1,.77-.52,1.59-.98,2.44-1.36,1.03-.48,1.91-1.24,2.52-2.2,.61-.96,.94-2.08,.93-3.22v-.46c1.07-.18,2.16-.28,3.24-.3,1.27-.03,2.54,.07,3.79,.29v.47c0,1.14,.32,2.25,.93,3.21,.61,.96,1.49,1.72,2.52,2.2,.85,.38,1.66,.84,2.44,1.35,.94,.62,2.04,.97,3.17,1,1.13,.04,2.24-.24,3.23-.79l.56-.31c1.47,1.71,2.63,3.66,3.45,5.76l-2.27,1.27h0c-1.1,.61-1.68,1.86-1.44,3.09,.38,1.88,.38,3.83,0,5.71-.23,1.23,.35,2.48,1.44,3.09l2.27,1.27h0c-.83,2.1-2,4.04-3.46,5.75l-.54-.3c-.98-.55-2.1-.83-3.22-.79-1.13,.04-2.22,.38-3.16,1-.78,.52-1.59,.98-2.45,1.36-1.03,.48-1.91,1.24-2.52,2.2s-.93,2.08-.93,3.21h0Z"/><path class="cls-1" d="M125.6,49.24c-3.09,0-6.06,1.23-8.25,3.42-2.19,2.19-3.42,5.15-3.42,8.25s1.23,6.06,3.42,8.25c2.19,2.19,5.15,3.42,8.25,3.42s6.06-1.23,8.25-3.42c2.19-2.19,3.42-5.15,3.42-8.25,0-3.09-1.23-6.06-3.42-8.24s-5.15-3.42-8.24-3.42Zm0,17.49c-1.55,0-3.03-.61-4.12-1.71s-1.71-2.58-1.71-4.12,.61-3.03,1.71-4.12,2.58-1.71,4.12-1.71,3.03,.61,4.12,1.71,1.71,2.58,1.71,4.12c0,1.55-.62,3.03-1.71,4.12s-2.57,1.71-4.12,1.71h0Z"/><path class="cls-1" d="M122.69,90.05h5.83v14.58h-5.83v-14.58Z"/><path class="cls-1" d="M141.39,107.1l22.77-16.49,3.42,4.72-22.77,16.49-3.42-4.72Z"/><path class="cls-1" d="M83.63,95.33l3.42-4.72,22.77,16.49-3.42,4.72-22.77-16.49Z"/></g></svg>