<svg id="Layer_1" data-name="Layer 1" xmlns="http://www.w3.org/2000/svg" viewBox="0 0 250 250"><defs><style>.cls-1{fill:none;stroke:#fff;stroke-linecap:round;stroke-linejoin:round;stroke-width:7px;}</style></defs><path class="cls-1" d="M22.29,176.94,48.37,76.45c3.71-14.32,14.4-26.61,32.17-26.61s32.14,11.93,32.17,26.61l.2,109.44M63.67,52,67.81,36c2.16-8.33,8-16,18.35-16s18.72,7,18.73,15.49l0,20.85M231.42,176.94,205.34,76.45c-3.72-14.32-14.41-26.61-32.17-26.61S141,61.77,141,76.45l-.2,109.44M190,52,185.9,36c-2.17-8.33-8-16-18.36-16s-18.71,7-18.73,15.49l0,20.85M62,144.19A46.13,46.13,0,1,1,20.22,194.3,46.12,46.12,0,0,1,62,144.19Zm1.55,17.15a28.91,28.91,0,0,1,31.4,26.17m88.69-43.32a46.13,46.13,0,1,1-41.77,50.11,46.12,46.12,0,0,1,41.77-50.11Zm1.55,17.15a28.91,28.91,0,0,1,31.4,26.17M127,161.81a13.65,13.65,0,1,1-13.65,13.65A13.65,13.65,0,0,1,127,161.81Zm-13.65-61.73a13.65,13.65,0,0,1,27.29,0"/></svg>