<svg id="Layer_1" data-name="Layer 1" xmlns="http://www.w3.org/2000/svg" viewBox="0 0 250 250"><defs><style>.cls-1{fill:none;stroke:#fff;stroke-linecap:round;stroke-linejoin:round;stroke-width:7px;}</style></defs><path class="cls-1" d="M156.35,191l.11,33.71c0,8.51,14.3,10.61,14.49-.2l.42-24"/><path class="cls-1" d="M200.88,195.6v16c0,9.74,14.83,9.13,14.81-1.36l-.05-21.65,0-22.17c0-24.55-15.23-14.27-14.85-35.79"/><path class="cls-1" d="M156.41,181.43l-.06,7.91c-.08,10.81-14.95,17.47-14.93,9l.08-31.53c.14-10.75,8.08-18.21,14.71-22.18,5.92-3.55,4.14-7.34,4.14-14"/><path class="cls-1" d="M186.37,200.22l.09,30.61c0,8.52-14.87,10.64-14.94-.19l-.17-29.72"/><path class="cls-1" d="M201,213.11l0,10.52c0,8.51-14.3,10.64-14.56-.2"/><polyline class="cls-1" points="215.8 91.52 215.8 127.58 147.34 127.58 147.34 105.79"/><path class="cls-1" d="M180.93,90.46l33.71-.11c8.51,0,10.61-14.3-.2-14.49l-24-.42"/><path class="cls-1" d="M185.56,45.92l16,0c9.74,0,9.13-14.83-1.36-14.81l-21.65.05-22.17,0c-24.55,0-14.27,15.23-35.79,14.85"/><path class="cls-1" d="M171.39,90.4l7.91.06c10.81.07,17.47,15,9,14.93l-31.53-.08c-10.75-.15-18.21-8.08-22.18-14.71-3.55-5.92-7.34-4.14-14-4.14"/><path class="cls-1" d="M190.18,60.44l30.61-.09c8.52,0,10.64,14.87-.19,14.93l-29.72.17"/><path class="cls-1" d="M203.07,45.86l10.52,0c8.51,0,10.64,14.29-.2,14.56"/><polyline class="cls-1" points="81.48 31.01 117.53 31.01 117.53 99.47 95.75 99.47"/><path class="cls-1" d="M80.42,65.87l-.11-33.7c0-8.52-14.3-10.61-14.49.19l-.42,24"/><path class="cls-1" d="M35.88,61.25l0-16c0-9.74-14.83-9.13-14.81,1.36l.05,21.65,0,22.17C21.1,115,36.35,104.73,36,126.25"/><path class="cls-1" d="M80.36,75.42l.06-7.91c.07-10.81,15-17.47,14.93-9l-.08,31.53c-.15,10.74-8.08,18.21-14.71,22.18-5.92,3.55-4.14,7.34-4.14,14"/><path class="cls-1" d="M50.4,56.62,50.31,26c0-8.52,14.87-10.64,14.93.19l.17,29.72"/><path class="cls-1" d="M35.82,43.74l0-10.52c0-8.51,14.29-10.64,14.56.19"/><polyline class="cls-1" points="20.97 165.32 20.97 129.27 89.43 129.27 89.43 151.06"/><path class="cls-1" d="M55.83,166.39l-33.7.11c-8.52,0-10.61,14.3.19,14.49l24,.42"/><path class="cls-1" d="M51.21,210.93l-16,0c-9.74,0-9.13,14.83,1.36,14.81l21.65-.05,22.17,0c24.55,0,14.27-15.23,35.79-14.85"/><path class="cls-1" d="M65.38,166.45l-7.91-.06c-10.81-.08-17.48-14.95-9-14.93l31.53.08c10.74.14,18.21,8.08,22.18,14.71,3.55,5.92,7.34,4.14,14,4.14"/><path class="cls-1" d="M46.58,196.41,16,196.5c-8.51,0-10.63-14.87.2-14.94l29.72-.17"/><path class="cls-1" d="M33.7,211l-10.52,0c-8.51,0-10.64-14.3.19-14.56"/><polyline class="cls-1" points="155.28 225.84 119.23 225.84 119.23 157.38 141.02 157.38"/></svg>