<?xml version="1.0" encoding="UTF-8"?><svg id="Layer_1" xmlns="http://www.w3.org/2000/svg" viewBox="0 0 250 250"><defs><style>.cls-1{letter-spacing:-.05em;}.cls-2{letter-spacing:0em;}.cls-3{letter-spacing:.02em;}.cls-4{letter-spacing:0em;}.cls-5{letter-spacing:.02em;}.cls-6{letter-spacing:0em;}.cls-7{fill:#027353;}.cls-8{fill:#cde7f7;}.cls-9{letter-spacing:0em;}.cls-10{letter-spacing:0em;}.cls-11{letter-spacing:0em;}.cls-12{letter-spacing:-.01em;}.cls-13{letter-spacing:0em;}.cls-14{letter-spacing:0em;}.cls-15{letter-spacing:0em;}.cls-16{letter-spacing:-.01em;}.cls-17{letter-spacing:-.05em;}.cls-18{letter-spacing:-.08em;}.cls-19{letter-spacing:0em;}.cls-20{letter-spacing:0em;}.cls-21{letter-spacing:0em;}.cls-22{letter-spacing:0em;}.cls-23{letter-spacing:-.01em;}.cls-24{letter-spacing:-.03em;}.cls-25{fill:#c0e1f5;font-family:MyriadPro-Regular, 'Myriad Pro';font-size:21px;}.cls-26{letter-spacing:.02em;}</style></defs><circle class="cls-8" cx="124.96" cy="125.04" r="124.5"/><text class="cls-25" transform="translate(8.71 -213.48)"><tspan class="cls-10" x="0" y="0">M</tspan><tspan class="cls-21" x="17.01" y="0">anage</tspan><tspan class="cls-1" x="71.17" y="0"> </tspan><tspan class="cls-18" x="74.65" y="0">Y</tspan><tspan x="84.42" y="0">our </tspan><tspan class="cls-10" x="118.84" y="0">M</tspan><tspan x="135.85" y="0">oney and </tspan><tspan class="cls-4" x="221.97" y="0">B</tspan><tspan class="cls-21" x="233.43" y="0">enefits</tspan><tspan class="cls-4" x="0" y="25.2">D</tspan><tspan class="cls-21" x="14.07" y="25.2">e</tspan><tspan class="cls-20" x="24.59" y="25.2">v</tspan><tspan class="cls-21" x="34.48" y="25.2">elop</tspan><tspan class="cls-1" x="73.44" y="25.2"> </tspan><tspan class="cls-18" x="76.92" y="25.2">Y</tspan><tspan x="86.69" y="25.2">our </tspan><tspan class="cls-13" x="121.1" y="25.2">C</tspan><tspan class="cls-21" x="133.14" y="25.2">a</tspan><tspan class="cls-20" x="143.26" y="25.2">r</tspan><tspan x="149.92" y="25.2">eer</tspan><tspan class="cls-11" x="0" y="50.4">I</tspan><tspan class="cls-21" x="5.23" y="50.4">mp</tspan><tspan class="cls-20" x="34.69" y="50.4">r</tspan><tspan class="cls-13" x="41.35" y="50.4">o</tspan><tspan class="cls-19" x="52.73" y="50.4">v</tspan><tspan x="62.62" y="50.4">e</tspan><tspan class="cls-1" x="73.14" y="50.4"> </tspan><tspan class="cls-18" x="76.63" y="50.4">Y</tspan><tspan x="86.39" y="50.4">our Health</tspan><tspan class="cls-24" x="0" y="75.6">F</tspan><tspan x="9.68" y="75.6">ind Child and </tspan><tspan class="cls-17" x="130.62" y="75.6">F</tspan><tspan x="139.9" y="75.6">amily </tspan><tspan class="cls-15" x="191.75" y="75.6">C</tspan><tspan x="203.78" y="75.6">a</tspan><tspan class="cls-19" x="213.9" y="75.6">r</tspan><tspan x="220.56" y="75.6">e</tspan><tspan class="cls-22" x="0" y="100.8">G</tspan><tspan class="cls-21" x="13.67" y="100.8">et </tspan><tspan class="cls-12" x="35.59" y="100.8">L</tspan><tspan x="45.21" y="100.8">egal Help and </tspan><tspan class="cls-11" x="170.64" y="100.8">I</tspan><tspan x="175.87" y="100.8">n</tspan><tspan class="cls-23" x="187.53" y="100.8">f</tspan><tspan class="cls-14" x="193.39" y="100.8">o</tspan><tspan class="cls-26" x="0" y="126">O</tspan><tspan class="cls-14" x="14.83" y="126">ther Helpful </tspan><tspan class="cls-10" x="123.5" y="126">S</tspan><tspan x="133.98" y="126">e</tspan><tspan class="cls-3" x="144.5" y="126">r</tspan><tspan x="151.89" y="126">vi</tspan><tspan class="cls-9" x="166.9" y="126">c</tspan><tspan class="cls-21" x="176.19" y="126">es</tspan><tspan class="cls-2" x="0" y="151.2">A</tspan><tspan x="12.79" y="151.2">b</tspan><tspan class="cls-13" x="24.74" y="151.2">o</tspan><tspan class="cls-19" x="36.12" y="151.2">v</tspan><tspan x="46.01" y="151.2">e </tspan><tspan class="cls-5" x="60.98" y="151.2">O</tspan><tspan x="75.79" y="151.2">ffi</tspan><tspan class="cls-6" x="92.9" y="151.2">c</tspan><tspan class="cls-21" x="102.19" y="151.2">e</tspan><tspan class="cls-16" x="112.71" y="151.2">s</tspan><tspan x="120.79" y="151.2">, </tspan><tspan class="cls-13" x="129.59" y="151.2">b</tspan><tspan x="141.39" y="151.2">y Name</tspan></text><g><path class="cls-7" d="M117.25,140.24c4.04,2.22,8.92,2.22,12.96,0,32.71-18.1,48.92-40.56,48.19-66.66,.03-8.51-3.32-16.69-9.32-22.73-5.99-6.04-14.14-9.46-22.65-9.51-8.54-.02-16.73,3.42-22.7,9.54-5.97-6.12-14.15-9.56-22.7-9.54-8.5,.04-16.63,3.45-22.62,9.47-5.99,6.03-9.35,14.18-9.34,22.68-.73,26.17,15.48,48.64,48.19,66.74h0Zm-16.22-93.15c7.98-.01,15.52,3.65,20.45,9.92,.57,.65,1.39,1.03,2.25,1.03s1.69-.38,2.25-1.03c4.93-6.27,12.47-9.93,20.45-9.92,7,.05,13.69,2.87,18.61,7.86,4.92,4.98,7.65,11.71,7.61,18.71,.68,24.2-14.11,44.33-45.22,61.56-2.3,1.26-5.09,1.26-7.39,0-31.11-17.24-45.91-37.35-45.22-61.64-.03-6.99,2.72-13.7,7.63-18.67,4.92-4.97,11.6-7.78,18.59-7.82h0Z"/><path class="cls-7" d="M109.94,99.96h4.02v4.02c0,1.68,.67,3.28,1.85,4.47,1.19,1.19,2.79,1.85,4.47,1.85h6.9c1.68,0,3.28-.67,4.47-1.85,1.19-1.19,1.85-2.79,1.85-4.47v-4.02h4.02c1.68,0,3.28-.67,4.47-1.85,1.19-1.19,1.85-2.79,1.85-4.47v-6.9c0-1.68-.67-3.28-1.85-4.47-1.19-1.19-2.79-1.85-4.47-1.85h-4.02v-4.02c0-1.68-.67-3.28-1.85-4.47-1.19-1.19-2.79-1.85-4.47-1.85h-6.9c-1.68,0-3.28,.67-4.47,1.85-1.19,1.19-1.85,2.79-1.85,4.47v4.02h-4.02c-1.68,0-3.28,.67-4.47,1.85-1.19,1.19-1.85,2.79-1.85,4.47v6.9c0,1.68,.67,3.28,1.85,4.47,1.19,1.19,2.79,1.85,4.47,1.85Zm-.57-13.22c0-.32,.26-.57,.57-.57h6.9c.76,0,1.49-.3,2.03-.84s.84-1.27,.84-2.03v-6.9c0-.32,.26-.57,.57-.57h6.9c.15,0,.3,.06,.41,.17s.17,.25,.17,.41v6.9c0,.76,.3,1.49,.84,2.03s1.27,.84,2.03,.84h6.9c.15,0,.3,.06,.41,.17s.17,.25,.17,.41v6.9c0,.15-.06,.3-.17,.41s-.25,.17-.41,.17h-6.9c-1.59,0-2.87,1.29-2.87,2.87v6.9c0,.15-.06,.3-.17,.41s-.25,.17-.41,.17h-6.9c-.32,0-.57-.26-.57-.57v-6.9c0-.76-.3-1.49-.84-2.03s-1.27-.84-2.03-.84h-6.9c-.32,0-.57-.26-.57-.57v-6.9Z"/><path class="cls-7" d="M110.15,182.93v-12.64c0-3.81-1.51-7.47-4.21-10.16l-32.15-32.13c-2.52-2.51-6.17-3.52-9.62-2.66v-21.07c.02-2.54-.88-5-2.55-6.91-1.66-1.92-3.97-3.16-6.48-3.5-2.82-.26-5.63,.67-7.73,2.57-2.1,1.9-3.32,4.59-3.35,7.43v44.31c0,3.81,1.51,7.47,4.21,10.16l18.78,18.78v5.82c-1.56,.13-3.02,.84-4.08,1.99-1.06,1.15-1.66,2.66-1.66,4.23v13.31c0,1.66,.66,3.26,1.84,4.43,1.18,1.18,2.77,1.84,4.44,1.84h42.04c1.66,0,3.26-.66,4.44-1.84,1.18-1.18,1.84-2.77,1.84-4.43v-13.31c0-1.57-.6-3.08-1.66-4.23-1.06-1.15-2.52-1.86-4.08-1.99h0Zm-57.81-28.66c-1.61-1.62-2.52-3.81-2.53-6.09v-44.31c.01-1.22,.53-2.38,1.44-3.19,.91-.81,2.11-1.21,3.32-1.1,2.28,.37,3.94,2.38,3.86,4.7v25.18c-1.38,1.91-2.02,4.24-1.81,6.59,.21,2.34,1.25,4.53,2.95,6.16l11.91,11.91h0c.54,.55,1.27,.87,2.04,.88,.77,0,1.51-.3,2.06-.84s.85-1.29,.84-2.06c0-.77-.32-1.51-.88-2.04l-11.86-11.86c-.86-.78-1.35-1.89-1.35-3.05s.49-2.27,1.35-3.05c.8-.82,1.9-1.29,3.04-1.29s2.25,.47,3.04,1.29l32.12,32.1c1.61,1.62,2.52,3.81,2.53,6.09v12.58h-31.61v-6.95c0-.76-.3-1.49-.84-2.03l-19.62-19.62Zm57.81,48.19c0,.14-.06,.27-.16,.37-.1,.1-.23,.15-.37,.15h-42.04c-.14,0-.27-.05-.37-.15-.1-.1-.16-.23-.16-.37v-13.31c0-.14,.06-.27,.16-.37,.1-.1,.23-.15,.37-.15h42.04c.14,0,.27,.05,.37,.15,.1,.1,.16,.23,.16,.37v13.31Z"/><path class="cls-7" d="M134.01,189.15v13.31c0,1.66,.66,3.26,1.84,4.43,1.18,1.18,2.77,1.84,4.44,1.84h42.04c1.66,0,3.26-.66,4.44-1.84,1.18-1.18,1.84-2.77,1.84-4.43v-13.31c0-1.57-.6-3.08-1.66-4.23-1.06-1.15-2.52-1.86-4.08-1.99v-5.82l18.78-18.78c2.7-2.69,4.22-6.35,4.21-10.16v-44.31c-.03-2.84-1.24-5.53-3.35-7.43-2.11-1.9-4.91-2.83-7.73-2.57-2.52,.34-4.82,1.58-6.48,3.5-1.66,1.92-2.57,4.38-2.55,6.91v21.07c-3.45-.87-7.1,.14-9.62,2.65l-32.15,32.15c-2.7,2.69-4.22,6.34-4.21,10.16v12.64c-1.56,.13-3.02,.84-4.08,1.99-1.06,1.15-1.66,2.66-1.66,4.23h0Zm43.94-15.26c-.54,.54-.84,1.27-.84,2.03v6.95h-31.61v-12.58c0-2.28,.91-4.47,2.53-6.09l32.11-32.11c.8-.83,1.9-1.29,3.04-1.29s2.25,.47,3.04,1.29c.86,.78,1.35,1.89,1.35,3.05s-.49,2.27-1.35,3.05l-11.86,11.86h0c-1.09,1.13-1.07,2.92,.03,4.03s2.9,1.12,4.03,.03l11.91-11.91h0c1.69-1.63,2.73-3.82,2.94-6.16s-.43-4.68-1.81-6.58v-25.18c-.08-2.31,1.57-4.33,3.86-4.7,1.21-.12,2.42,.28,3.32,1.1,.91,.81,1.43,1.97,1.44,3.19v44.31c0,2.28-.91,4.47-2.53,6.09l-19.62,19.62Zm-38.19,15.26c0-.14,.06-.27,.16-.37,.1-.1,.23-.15,.37-.15h42.04c.14,0,.27,.05,.37,.15,.1,.1,.16,.23,.16,.37v13.31c0,.14-.06,.27-.16,.37-.1,.1-.23,.15-.37,.15h-42.04c-.14,0-.27-.05-.37-.15-.1-.1-.16-.23-.16-.37v-13.31Z"/></g></svg>