<svg id="Layer_1" data-name="Layer 1" xmlns="http://www.w3.org/2000/svg" viewBox="0 0 250 250"><defs><style>.cls-1{fill:none;stroke:#fff;stroke-linecap:round;stroke-linejoin:round;stroke-width:7px;}</style></defs><path class="cls-1" d="M113.16,130.43v20.22l-8.71,29.57c-5.32,18.09-26.71,13.15-25.64-1.74L89.62,151.3l.31-24.08.44-34.74L76,120.05c-6.38,16.78-20.2,5.86-17.29-1.78l17.4-39.95c4.41-16.9,21-7.85,29-7.46,18.56,4.34,35.53-10.92,49.41-18.72,12.44-7,22.9,9.49,9.14,17.71l-33,20.89.18,14.11L154.47,106c5.37.26,10.14,7.16,10.14,12.52V155.7c0,14.62-23.9,11.87-23.9,0l.35-23.8-27.9-1.47Z"/><path class="cls-1" d="M114,15.5A21.07,21.07,0,1,1,92.94,36.56,21.06,21.06,0,0,1,114,15.5Z"/><polyline class="cls-1" points="77.52 232.73 77.12 205.68 130.86 205.99 130.47 178.93 184.2 179.24 183.81 152.18 237.55 152.49"/><line class="cls-1" x1="130.86" y1="196.85" x2="130.86" y2="232.73"/><line class="cls-1" x1="184.2" y1="170.79" x2="184.2" y2="232.73"/><polyline class="cls-1" points="237.55 152.49 237.55 232.73 23.39 232.73"/></svg>