<svg id="Layer_1" data-name="Layer 1" xmlns="http://www.w3.org/2000/svg" viewBox="0 0 250 250"><defs><style>.cls-1{fill:none;stroke:#fff;stroke-linecap:round;stroke-linejoin:round;stroke-width:7px;}</style></defs><path class="cls-1" d="M216.35,98.3H110.56l-1.84-12.66a8.71,8.71,0,0,0-8.09-4.88H54a10.12,10.12,0,0,0-9.65,8.35l-6,38.89L31.8,170.33l-4.93,31.84c-1.32,8.51,4.51,15.4,13,15.4H196.41a14.3,14.3,0,0,0,13.64-11.81l13.36-99.1A7,7,0,0,0,216.35,98.3Z"/><polygon class="cls-1" points="105.35 166.78 52.45 166.78 60.63 113.88 113.53 113.88 105.35 166.78"/><path class="cls-1" d="M90.09,132.45a7,7,0,0,1-6.64,5.75,4.8,4.8,0,0,1-4.85-5.75,7,7,0,0,1,6.63-5.74A4.8,4.8,0,0,1,90.09,132.45Z"/><path class="cls-1" d="M94.27,154s-4.48,2-13.56,2c-9.77,0-12.95-2-12.95-2h0A16.05,16.05,0,0,1,83.07,140.7h0c7.32,0,12.34,5.94,11.2,13.26Z"/><line class="cls-1" x1="48.84" y1="59.86" x2="176.69" y2="59.86"/><line class="cls-1" x1="121.49" y1="78.64" x2="174.95" y2="78.64"/><line class="cls-1" x1="133.83" y1="121.5" x2="201.52" y2="121.5"/><line class="cls-1" x1="129.93" y1="138.42" x2="197.62" y2="138.42"/><line class="cls-1" x1="126.04" y1="155.33" x2="193.73" y2="155.33"/><path class="cls-1" d="M29.2,96.66c0-30.25,0-56.41,0-56.41H197.91V97.87"/><path class="cls-1" d="M26.68,204.32l-13.4-93c-.31-7.86,4.28-14.25,10.26-14.25H43.13"/></svg>