<svg id="Layer_1" data-name="Layer 1" xmlns="http://www.w3.org/2000/svg" viewBox="0 0 250 250"><defs><style>.cls-1{fill:none;stroke:#fff;stroke-linecap:round;stroke-linejoin:round;stroke-width:7px;}</style></defs><path class="cls-1" d="M58.61,179.09v47.67c0,14.5-23.71,11.78-23.71,0l1.11-87-9,27.35c-6.33,16.65-20,5.82-17.16-1.76L21.9,125.68c4.38-16.77,20.87-7.78,28.75-7.4a37,37,0,0,0,8.54.91c20.52.09,20.88-10,43.92-22.93,12.34-6.93,22.71,9.41,9.07,17.56L81.13,138l1.27,88.76c.18,14.49-23.7,11.85-23.7,0m.75-163.39A20.9,20.9,0,1,1,38.56,84.26,20.89,20.89,0,0,1,59.45,63.37Zm37.38,93.09,35-28.16,23.47,7.3,36.34-61L168.85,80m24.49-5.39,3.52,23.81M50.73,50V34.45H227.34V175.32H97m42.09.43v48.18m0-190V18.51m.28,182.12,39.64,36m-40.2-36-39.64,36"/></svg>