<svg id="Layer_1" data-name="Layer 1" xmlns="http://www.w3.org/2000/svg" viewBox="0 0 250 250"><defs><style>.cls-1,.cls-2{fill:none;stroke:#333;stroke-linejoin:round;stroke-width:7px;}.cls-2{stroke-linecap:round;}</style></defs><path class="cls-1" d="M90.63,89.52H49.5a13.71,13.71,0,0,0-13.71,13.71v68.56A13.71,13.71,0,0,0,49.5,185.5h9.14V211a4.57,4.57,0,0,0,7.8,3.23L90.63,185.5h41.14a13.71,13.71,0,0,0,13.71-13.71V150.86"/><path class="cls-2" d="M209.68,58.65v68.56A13.71,13.71,0,0,1,196,140.92h-9.15v25.53a4.57,4.57,0,0,1-7.8,3.23l-24.19-28.76H113.7A13.71,13.71,0,0,1,100,127.21V58.65A13.71,13.71,0,0,1,113.7,44.94H196A13.71,13.71,0,0,1,209.68,58.65Z"/></svg>