<?xml version="1.0" encoding="utf-8"?>
<!-- Generator: Adobe Illustrator 25.3.1, SVG Export Plug-In . SVG Version: 6.00 Build 0)  -->
<svg version="1.1" id="Layer_1" xmlns="http://www.w3.org/2000/svg" xmlns:xlink="http://www.w3.org/1999/xlink" x="0px" y="0px"
	 viewBox="0 0 250 250" style="enable-background:new 0 0 250 250;" xml:space="preserve">
<style type="text/css">
	.st0{fill:#C0E1F5;}
	.st1{fill:none;stroke:#027353;stroke-width:7;stroke-miterlimit:10;}
	.st2{fill:#027353;}
</style>
<circle class="st0" cx="125.5" cy="125.5" r="124.5"/>
<g>
	<g>
		<path class="st1" d="M189.3,100.8c-0.9,2.9-2.8,7.4-4.9,12.1c-0.6,1.2-0.7,2.6-0.4,3.9c0.9,3.6,0.4,8-2.1,12.7
			c-0.7,1.3-1.5,2.7-2.5,4c-2.5,3.5-6.1,7.2-9.8,11.5c-0.3,0.3-0.5,0.5-0.8,0.8c-1,1-2.5,1.3-3.7,0.5c-1.5-1-1.7-2.9-0.5-4.2
			c0.3-0.3,0.7-0.7,0.8-1c4.9-5.4,9.6-10.4,11.6-14.3c3.7-7.2,1.2-12-2.4-14.1c-2.9-1.7-6.9-1.7-9.1,1.5c-3.2,4.7-7.6,9.8-11.8,14.5
			c-4.9,5.6-9.8,11.5-12.5,16c-3,5.2-7.1,17.5-7.7,30.3c-0.3,6.2-0.5,13.5-0.7,17.8c0,2.2,1.7,4,4,4h25.4c2.2,0,3.9-1.9,3.9-3.9
			v-7.2c0-1.7,0.8-3.4,2.2-4.4c9.1-6.2,17.5-13.8,22.4-19.4c10.4-12.1,14.1-48,14.7-58.6C206,93.4,192.4,90.9,189.3,100.8z"/>
		<path class="st1" d="M109.7,145.1c-2.9-4.7-7.6-10.4-12.5-16c-4.2-4.7-8.6-9.8-11.8-14.5c-2.2-3.4-6.2-3.4-9.1-1.5
			c-3.5,2-6.1,6.9-2.4,14.1c2,3.9,6.7,8.9,11.6,14.3c0.3,0.3,0.7,0.7,0.8,1c1.2,1.2,0.8,3.2-0.5,4.2c-1.2,0.7-2.7,0.5-3.7-0.5
			c-0.3-0.3-0.5-0.5-0.8-0.8c-3.7-4.4-7.2-8.3-9.8-11.6c-1-1.3-1.9-2.9-2.5-4c-2.5-4.8-2.9-9.2-2.1-12.8c0.3-1.3,0.1-2.7-0.4-3.9
			c-2.1-4.9-4-9.2-4.9-12.1c-3-9.9-16.7-7.4-16.2,3.2s4.4,46.5,14.7,58.6c4.7,5.6,13.3,13,22.4,19.4c1.3,1,2.2,2.5,2.2,4.4v7.2
			c0,2.2,1.9,3.9,3.9,3.9H114c2.2,0,4-1.9,3.9-4c-0.2-4.4-0.3-11.6-0.7-17.8C116.7,162.6,112.9,150.3,109.7,145.1z"/>
		<path class="st1" d="M97.9,110.2c5.7,2.6,11.6-3.5,8.6-8.9c-3-5.4-5.2-11.7-5.2-18.6c0-1.4,0.1-2.8,0.3-4.1c0.4-3.3-1.8-6.4-5-7.1
			c-5.1-1.1-9.9-1.3-13.1-1.3c-2.2,0-3.9,1.7-3.9,3.9c-0.2,6.7,0.8,21.2,9.8,30.1C91.9,106.8,94.8,108.7,97.9,110.2z"/>
		<path class="st1" d="M143.5,101.2c-3,5.4,2.8,11.5,8.5,9c3.2-1.4,6.2-3.3,8.7-5.9c8.9-8.9,9.9-23.4,9.8-30.1
			c0-2.2-1.7-3.9-3.9-3.9c-3.1,0-8,0.2-13.1,1.3c-3.2,0.7-5.4,3.8-5,7.1c0.2,1.3,0.3,2.7,0.3,4.1C148.7,89.6,146.5,95.9,143.5,101.2
			z"/>
		<path class="st1" d="M128.2,54.5c-1.5-1.5-4-1.5-5.6,0c-4.9,4.7-14.5,15.7-14.5,28.3s9.6,23.6,14.5,28.3c1.5,1.5,4,1.5,5.6,0
			c4.9-4.7,14.5-15.7,14.5-28.3C142.7,70,133.1,59.2,128.2,54.5z"/>
	</g>
</g>
</svg>
