<svg id="Layer_1" data-name="Layer 1" xmlns="http://www.w3.org/2000/svg" viewBox="0 0 250 250"><defs><style>.cls-1{fill:none;stroke:#fff;stroke-linecap:round;stroke-linejoin:round;stroke-width:7px;}</style></defs><path class="cls-1" d="M84.17,95.17c-12.73,0-22.85,7.82-22.85,29.71s10.12,29.7,22.85,29.71S107,146.76,107,124.88,96.91,95.17,84.17,95.17Z"/><line class="cls-1" x1="47.61" y1="204.86" x2="56.75" y2="204.86"/><path class="cls-1" d="M65.1,143.71s-14.4,6.85-19.56,9.43-7.27,9.41-9.19,14.19-13.21,38.06-13.21,38.06a10,10,0,0,0,3.95,11.86l16,10.47H61.32c15.08,0,15.08-22.86,0-22.86H56.75v-32H84.17"/><path class="cls-1" d="M103.25,143.71s14.4,6.85,19.56,9.43,7.27,9.41,9.19,14.19,13.21,38.06,13.21,38.06c1.77,4.16-.12,9.46-4,11.86l-15.94,10.47H107c-15.08,0-15.08-22.86,0-22.86h4.57v-32H84.17"/><line class="cls-1" x1="120.74" y1="204.86" x2="111.6" y2="204.86"/><path class="cls-1" d="M120.74,31.18V99.74a13.71,13.71,0,0,0,13.71,13.71h9.14V139a4.57,4.57,0,0,0,7.8,3.23l24.19-28.76h41.14a13.71,13.71,0,0,0,13.71-13.71V31.18a13.71,13.71,0,0,0-13.71-13.71H134.45A13.71,13.71,0,0,0,120.74,31.18Z"/><line class="cls-1" x1="61.32" y1="227.72" x2="107.03" y2="227.72"/><ellipse class="cls-1" cx="175.58" cy="60.89" rx="13.71" ry="16"/><path class="cls-1" d="M157.3,90.6c0-7.57,8.19-13.71,18.28-13.71S193.87,83,193.87,90.6"/></svg>