<svg id="Layer_1" data-name="Layer 1" xmlns="http://www.w3.org/2000/svg" viewBox="0 0 250 250"><defs><style>.cls-1{fill:none;stroke:#fff;stroke-linecap:round;stroke-linejoin:round;stroke-width:7px;}</style></defs><path class="cls-1" d="M67.41,208.83a42.16,42.16,0,0,1,24.69-5.16l58.33,7.84a4.49,4.49,0,0,0,3.16-.77l73.89-51.48a4.48,4.48,0,0,0,1.31-5.92h0a17.79,17.79,0,0,0-23.3-7l-52.34,26"/><path class="cls-1" d="M111.82,175.77l29.59,2.9A11.94,11.94,0,0,0,154.47,168h0a12,12,0,0,0-10.73-13.06l-25.2-2.47a22,22,0,0,1-8.26-2.52l-2.76-1.47a46.78,46.78,0,0,0-44.52.14L48,155.8"/><polyline class="cls-1" points="29.4 155.6 45.29 149.4 71.7 217.08 54.15 223.93"/><line class="cls-1" x1="34.52" y1="167.37" x2="41.17" y2="164.78"/><line class="cls-1" x1="208.78" y1="148.34" x2="208.78" y2="148.34"/><path class="cls-1" d="M127.78,117c0-4.86-4-9.11-9.69-10.37h0a54.6,54.6,0,0,0-23.46,0h0c-5.72,1.26-9.69,5.51-9.69,10.37v17.42h0"/><line class="cls-1" x1="98.43" y1="124.76" x2="98.43" y2="134.42"/><line class="cls-1" x1="114.29" y1="137.64" x2="114.29" y2="124.76"/><path class="cls-1" d="M170.62,151.69V117c0-4.86-4-9.11-9.69-10.37h0a54.6,54.6,0,0,0-23.46,0h0c-5.72,1.26-9.69,5.51-9.69,10.37v26.45"/><line class="cls-1" x1="141.27" y1="124.76" x2="141.27" y2="144.08"/><line class="cls-1" x1="157.13" y1="148.06" x2="157.13" y2="124.76"/><path class="cls-1" d="M213.47,134.23V117c0-4.86-4-9.11-9.69-10.37h0a54.64,54.64,0,0,0-23.47,0h0c-5.71,1.26-9.69,5.51-9.69,10.37"/><line class="cls-1" x1="184.11" y1="124.76" x2="184.11" y2="144.76"/><line class="cls-1" x1="199.97" y1="136.86" x2="199.97" y2="124.76"/><path class="cls-1" d="M105.82,74h1.08a8.54,8.54,0,0,1,8.48,9.52l-.54,4.63a8.53,8.53,0,0,1-8.48,7.55h0a8.54,8.54,0,0,1-8.48-7.55l-.54-4.63A8.54,8.54,0,0,1,105.82,74Z"/><path class="cls-1" d="M127.24,47.06h1.08a8.54,8.54,0,0,1,8.48,9.52l-.54,4.62a8.54,8.54,0,0,1-8.48,7.56h0a8.54,8.54,0,0,1-8.48-7.56l-.54-4.62A8.54,8.54,0,0,1,127.24,47.06Z"/><path class="cls-1" d="M170.09,47.06h1.07a8.53,8.53,0,0,1,8.48,9.52l-.54,4.62a8.54,8.54,0,0,1-8.48,7.56h0a8.54,8.54,0,0,1-8.48-7.56l-.53-4.62A8.53,8.53,0,0,1,170.09,47.06Z"/><path class="cls-1" d="M148.67,74h1.07a8.54,8.54,0,0,1,8.48,9.52l-.54,4.63a8.53,8.53,0,0,1-8.48,7.55h0a8.54,8.54,0,0,1-8.48-7.55l-.53-4.63A8.53,8.53,0,0,1,148.67,74Z"/><path class="cls-1" d="M191.51,74h1.07a8.53,8.53,0,0,1,8.48,9.52l-.54,4.63A8.53,8.53,0,0,1,192,95.74h0a8.54,8.54,0,0,1-8.48-7.55L183,83.56A8.53,8.53,0,0,1,191.51,74Z"/><path class="cls-1" d="M148.67,20.08h1.07a8.54,8.54,0,0,1,8.48,9.52l-.54,4.62a8.53,8.53,0,0,1-8.48,7.55h0a8.53,8.53,0,0,1-8.48-7.55l-.53-4.62A8.53,8.53,0,0,1,148.67,20.08Z"/></svg>