<svg id="Layer_1" data-name="Layer 1" xmlns="http://www.w3.org/2000/svg" viewBox="0 0 250 250"><defs><style>.cls-1{fill:none;stroke:#333;stroke-linecap:round;stroke-linejoin:round;stroke-width:7px;}</style></defs><path class="cls-1" d="M156.92,191l.11,33.71c0,8.51,14.3,10.61,14.49-.2l.42-24"/><path class="cls-1" d="M201.46,195.6l0,16c0,9.74,14.83,9.13,14.81-1.36l0-21.65V166.39c0-24.55-15.23-14.27-14.85-35.79"/><path class="cls-1" d="M157,181.43l0,7.91c-.08,10.81-15,17.47-14.94,9l.08-31.53c.15-10.75,8.08-18.21,14.71-22.18,5.93-3.55,4.14-7.34,4.14-14"/><path class="cls-1" d="M186.94,200.22l.09,30.61c0,8.52-14.87,10.64-14.93-.19l-.17-29.72"/><path class="cls-1" d="M201.52,213.11l0,10.52c0,8.51-14.29,10.64-14.56-.2"/><polyline class="cls-1" points="216.37 91.52 216.37 127.58 147.91 127.58 147.91 105.79"/><path class="cls-1" d="M181.51,90.46l33.7-.11c8.52,0,10.61-14.3-.19-14.49l-24-.42"/><path class="cls-1" d="M186.13,45.92l16,0c9.74,0,9.13-14.83-1.36-14.81l-21.65.05-22.17,0c-24.55,0-14.27,15.23-35.79,14.85"/><path class="cls-1" d="M172,90.4l7.9.06c10.81.07,17.48,15,9,14.93l-31.53-.08c-10.74-.15-18.2-8.08-22.18-14.71-3.55-5.92-7.34-4.14-14-4.14"/><path class="cls-1" d="M190.76,60.44l30.61-.09c8.51,0,10.63,14.87-.2,14.93l-29.72.17"/><path class="cls-1" d="M203.64,45.86l10.52,0c8.51,0,10.64,14.29-.19,14.56"/><polyline class="cls-1" points="82.06 31.01 118.11 31.01 118.11 99.47 96.32 99.47"/><path class="cls-1" d="M81,65.87l-.1-33.7c0-8.52-14.31-10.61-14.5.19l-.42,24"/><path class="cls-1" d="M36.46,61.25v-16c0-9.74-14.82-9.13-14.8,1.36l0,21.65,0,22.17c0,24.55,15.23,14.27,14.85,35.79"/><path class="cls-1" d="M80.93,75.42,81,67.51c.08-10.81,15-17.47,14.93-9l-.08,31.53c-.14,10.74-8.08,18.21-14.7,22.18-5.93,3.55-4.15,7.34-4.15,14"/><path class="cls-1" d="M51,56.62,50.89,26c0-8.52,14.86-10.64,14.93.19L66,55.93"/><path class="cls-1" d="M36.4,43.74l0-10.52c0-8.51,14.3-10.64,14.56.19"/><polyline class="cls-1" points="21.54 165.32 21.54 129.27 90 129.27 90 151.06"/><path class="cls-1" d="M56.41,166.39l-33.71.11c-8.51,0-10.61,14.3.2,14.49l24,.42"/><path class="cls-1" d="M51.78,210.93l-16,0c-9.74,0-9.13,14.83,1.36,14.81l21.65-.05,22.17,0c24.55,0,14.27-15.23,35.79-14.85"/><path class="cls-1" d="M66,166.45,58,166.39c-10.81-.08-17.47-14.95-9-14.93l31.53.08c10.75.14,18.21,8.08,22.18,14.71,3.55,5.92,7.34,4.14,14,4.14"/><path class="cls-1" d="M47.16,196.41l-30.61.09c-8.51,0-10.64-14.87.19-14.94l29.72-.17"/><path class="cls-1" d="M34.27,211l-10.52,0c-8.51,0-10.64-14.3.2-14.56"/><polyline class="cls-1" points="155.86 225.84 119.81 225.84 119.81 157.38 141.59 157.38"/></svg>