<svg id="Layer_1" data-name="Layer 1" xmlns="http://www.w3.org/2000/svg" viewBox="0 0 250 250"><defs><style>.cls-1{fill:none;stroke:#fff;stroke-linecap:round;stroke-linejoin:round;stroke-width:7px;}</style></defs><path class="cls-1" d="M130.12,112.4a51.17,51.17,0,1,1-47.79,32.7"/><path class="cls-1" d="M108.2,185.57a31,31,0,0,0,43.84,0"/><path class="cls-1" d="M139.92,157.57a8.47,8.47,0,0,1,8.47-8.47h0a8.48,8.48,0,0,1,8.48,8.47"/><path class="cls-1" d="M103.38,157.57a8.48,8.48,0,0,1,8.48-8.47h0a8.47,8.47,0,0,1,8.47,8.47"/><path class="cls-1" d="M174.92,144H186.7l.78-12.58a39.49,39.49,0,0,0,13.26-5.47l9.43,8.33,10.57-10.58-8.32-9.43A39.49,39.49,0,0,0,217.89,101l12.58-.78v-15l-12.58-.78a39.32,39.32,0,0,0-5.47-13.26l8.33-9.43L210.17,51.21l-9.43,8.33a39.28,39.28,0,0,0-13.26-5.47l-.78-12.58h-15L171,54.07a39.12,39.12,0,0,0-13.26,5.47l-9.43-8.33L137.69,61.79,146,71.22a39.12,39.12,0,0,0-5.47,13.26L128,85.26v15l12.58.78A39.28,39.28,0,0,0,146,114.26"/><circle class="cls-1" cx="179.22" cy="92.74" r="21.86"/><path class="cls-1" d="M132.38,101.61A51.22,51.22,0,0,1,85.2,145q-1.73.12-3.48.12a51.25,51.25,0,1,1,50.71-58.67"/><polyline class="cls-1" points="98.05 110.19 81.72 93.85 81.72 62.69"/></svg>