<svg id="Layer_1" data-name="Layer 1" xmlns="http://www.w3.org/2000/svg" viewBox="0 0 250 250"><defs><style>.cls-1{fill:none;stroke:#fff;stroke-linejoin:round;stroke-width:7px;}</style></defs><line class="cls-1" x1="100.24" y1="163.56" x2="100.24" y2="109.64"/><polyline class="cls-1" points="232.35 109.64 232.35 223.42 138.5 223.42"/><rect class="cls-1" x="155.23" y="82.97" width="22.14" height="140.45"/><polyline class="cls-1" points="153.77 109.64 93.3 109.64 93.3 82.97 239.29 82.97 239.29 109.64 178.82 109.64"/><path class="cls-1" d="M151.25,59.37a14.74,14.74,0,0,0-3.14-.37,14.38,14.38,0,0,0-10.58,24.12"/><path class="cls-1" d="M194.65,83.55A14.38,14.38,0,0,0,184.48,59a14.82,14.82,0,0,0-3.14.37"/><path class="cls-1" d="M148.11,59a14.31,14.31,0,0,1,10.17,4.22"/><path class="cls-1" d="M174.13,63.4A14.36,14.36,0,0,1,184.48,59"/><path class="cls-1" d="M144.86,61.11a21,21,0,0,1,42.1,0"/><ellipse class="cls-1" cx="46.54" cy="168.78" rx="27.88" ry="9.48"/><path class="cls-1" d="M74.42,198.89c0,5.24-12.48,9.48-27.88,9.48s-27.89-4.24-27.89-9.48"/><path class="cls-1" d="M74.42,213.94c0,5.24-12.48,9.48-27.88,9.48s-27.89-4.24-27.89-9.48"/><path class="cls-1" d="M74.42,198.89c0,5.24-12.48,9.48-27.88,9.48s-27.89-4.24-27.89-9.48"/><path class="cls-1" d="M74.42,183.84c0,5.23-12.48,9.48-27.88,9.48s-27.89-4.25-27.89-9.48"/><line class="cls-1" x1="74.42" y1="168.78" x2="74.42" y2="213.94"/><line class="cls-1" x1="18.65" y1="168.78" x2="18.65" y2="213.94"/><ellipse class="cls-1" cx="102.31" cy="183.84" rx="27.88" ry="9.48"/><path class="cls-1" d="M130.19,198.89c0,5.24-12.48,9.48-27.88,9.48s-27.89-4.24-27.89-9.48"/><path class="cls-1" d="M130.19,213.94c0,5.24-12.48,9.48-27.88,9.48s-27.89-4.24-27.89-9.48"/><path class="cls-1" d="M130.19,198.89c0,5.24-12.48,9.48-27.88,9.48s-27.89-4.24-27.89-9.48"/><path class="cls-1" d="M130.19,198.89c0,5.24-12.48,9.48-27.88,9.48s-27.89-4.24-27.89-9.48"/><line class="cls-1" x1="130.19" y1="183.84" x2="130.19" y2="213.94"/><line class="cls-1" x1="74.42" y1="183.84" x2="74.42" y2="213.94"/><circle class="cls-1" cx="46.54" cy="110.03" r="27.88" transform="translate(-71.19 130.37) rotate(-76.88)"/><line class="cls-1" x1="46.54" y1="37.28" x2="46.54" y2="67.62"/><line class="cls-1" x1="27.79" y1="53.04" x2="27.79" y2="76.05"/><line class="cls-1" x1="65.29" y1="53.04" x2="65.29" y2="76.05"/><line class="cls-1" x1="27.79" y1="45.7" x2="27.79" y2="38.32"/><line class="cls-1" x1="46.54" y1="29.93" x2="46.54" y2="22.56"/><line class="cls-1" x1="65.29" y1="45.7" x2="65.29" y2="38.32"/></svg>