<svg id="Layer_1" data-name="Layer 1" xmlns="http://www.w3.org/2000/svg" viewBox="0 0 250 250"><defs><style>.cls-1{fill:none;stroke:#fff;stroke-linecap:round;stroke-linejoin:round;stroke-width:7px;}</style></defs><path class="cls-1" d="M127.23,186.71l0,44c0,10.94,21.1,10.79,21-.16l-.4-30.19-.49-53.48"/><path class="cls-1" d="M147.86,176.24c2.94,7.72,7.34,8.69,10.45,6.92,5.12-2.91,3.34-9,3.12-13.82l-1.59-35.15c-.55-12.13-63-11.23-65-.13-1.66,6.88-1.88,22.58-2.08,34.42-.09,5.78-2.24,17.61,6.58,16.69,2.54-.16,5.32-2.26,7.37-7.67"/><path class="cls-1" d="M107.27,146.86l-.5,53.48-.39,30.19c-.12,10.95,20.82,11.11,20.82.16"/><path class="cls-1" d="M126.81,85.72A15.61,15.61,0,1,1,119,87.83a15.32,15.32,0,0,1,7.77-2.11Z"/><path class="cls-1" d="M130.63,68.59a30.8,30.8,0,0,1,9.91,3.18A39,39,0,0,1,148,76.93h0a39,39,0,0,1,7.41-5.16,29.77,29.77,0,0,1,12.72-3.42h1.29a29.76,29.76,0,0,1,12.71,3.42,39,39,0,0,1,7.41,5.16h0s-3.81-53.72-58.86-55.32V17.85a2.84,2.84,0,1,0-5.68,0v3.74c-56.2.84-60.08,55.34-60.08,55.34h0a38.93,38.93,0,0,1,7.4-5.16A29.77,29.77,0,0,1,85,68.35h1.29A29.72,29.72,0,0,1,99,71.77a39,39,0,0,1,7.41,5.16h0a38.93,38.93,0,0,1,7.4-5.16A30.37,30.37,0,0,1,125,68.45Z"/></svg>