<svg id="Layer_1" data-name="Layer 1" xmlns="http://www.w3.org/2000/svg" viewBox="0 0 250 250"><defs><style>.cls-1{fill:none;stroke:#fff;stroke-linecap:round;stroke-linejoin:round;stroke-width:7px;}</style></defs><ellipse class="cls-1" cx="195.91" cy="143.29" rx="29" ry="12.43"/><path class="cls-1" d="M166.91,202.5c0,6.87,13,12.43,29,12.43s29-5.56,29-12.43"/><path class="cls-1" d="M166.91,202.5c0,6.87,13,12.43,29,12.43s29-5.56,29-12.43"/><path class="cls-1" d="M166.91,182.76c0,6.87,13,12.43,29,12.43s29-5.56,29-12.43"/><path class="cls-1" d="M166.91,163c0,6.86,13,12.43,29,12.43s29-5.57,29-12.43"/><line class="cls-1" x1="166.91" y1="143.29" x2="166.91" y2="202.5"/><line class="cls-1" x1="224.91" y1="143.29" x2="224.91" y2="202.5"/><ellipse class="cls-1" cx="124.91" cy="163.03" rx="29" ry="12.43"/><path class="cls-1" d="M95.91,202.5c0,6.87,13,12.43,29,12.43s29-5.56,29-12.43"/><path class="cls-1" d="M95.91,202.5c0,6.87,13,12.43,29,12.43s29-5.56,29-12.43"/><path class="cls-1" d="M95.91,182.76c0,6.87,13,12.43,29,12.43s29-5.56,29-12.43"/><path class="cls-1" d="M95.91,182.76c0,6.87,13,12.43,29,12.43s29-5.56,29-12.43"/><line class="cls-1" x1="95.91" y1="163.03" x2="95.91" y2="202.5"/><line class="cls-1" x1="153.91" y1="163.03" x2="153.91" y2="202.5"/><ellipse class="cls-1" cx="53.91" cy="182.76" rx="29" ry="12.43"/><path class="cls-1" d="M24.91,202.5c0,6.87,13,12.43,29,12.43s29-5.56,29-12.43"/><path class="cls-1" d="M24.91,202.5c0,6.87,13,12.43,29,12.43s29-5.56,29-12.43"/><path class="cls-1" d="M24.91,182.76c0,6.87,13,12.43,29,12.43s29-5.56,29-12.43"/><path class="cls-1" d="M24.91,182.76c0,6.87,13,12.43,29,12.43s29-5.56,29-12.43"/><line class="cls-1" x1="24.91" y1="182.76" x2="24.91" y2="202.5"/><line class="cls-1" x1="82.91" y1="182.76" x2="82.91" y2="202.5"/><path class="cls-1" d="M166.91,202.5c0,6.87,13,12.43,29,12.43s29-5.56,29-12.43"/><path class="cls-1" d="M95.91,202.5c0,6.87,13,12.43,29,12.43s29-5.56,29-12.43"/><path class="cls-1" d="M24.91,202.5c0,6.87,13,12.43,29,12.43s29-5.56,29-12.43"/><path class="cls-1" d="M39.47,158.34V69A16.42,16.42,0,0,1,55.89,52.62h138A16.42,16.42,0,0,1,210.35,69v49.2"/><path class="cls-1" d="M101.27,31.07h47.29a5.39,5.39,0,0,1,5.39,5.39V52.62a0,0,0,0,1,0,0H95.88a0,0,0,0,1,0,0V36.45A5.39,5.39,0,0,1,101.27,31.07Z"/><path class="cls-1" d="M82.56,103.75H69a21.31,21.31,0,0,1-15.35-6.52h0a50.7,50.7,0,0,1-14.1-31.72"/><line class="cls-1" x1="148.54" y1="103.75" x2="101.29" y2="103.75"/><path class="cls-1" d="M210.19,65.33a50.78,50.78,0,0,1-15,32.07l-.24.23a21.34,21.34,0,0,1-15,6.12h-12.4"/><path class="cls-1" d="M101.29,92.94v21.62L100,116a10.69,10.69,0,0,1-16.17,0l-1.28-1.47V92.94Z"/><path class="cls-1" d="M167.61,92.94v21.62l-1.51,1.72a10.71,10.71,0,0,1-16,0l-1.51-1.72V92.94Z"/></svg>