<?xml version="1.0" encoding="utf-8"?>
<!-- Generator: Adobe Illustrator 25.3.1, SVG Export Plug-In . SVG Version: 6.00 Build 0)  -->
<svg version="1.1" id="Layer_1" xmlns="http://www.w3.org/2000/svg" xmlns:xlink="http://www.w3.org/1999/xlink" x="0px" y="0px"
	 viewBox="0 0 250 250" style="enable-background:new 0 0 250 250;" xml:space="preserve">
<style type="text/css">
	.st0{fill:#C0E1F5;}
	.st1{fill:none;stroke:#027353;stroke-width:7;stroke-miterlimit:10;}
	.st2{fill:#027353;}
</style>
<g>
	<circle class="st0" cx="123.7" cy="126.2" r="124.5"/>
</g>
<g>
	<g>
		<path class="st2" d="M61.4,195.9H187c5,0,8.7-4.1,8.7-8.7v-81.4c6.9-5.6,11.8-14,12.5-23.1c0.9-9.7-2.2-19-8.7-26.2
			c-7.8-8.4-19.3-12.5-30.5-10.6c-12.2,1.9-22.4,10.6-26.5,22.1h-81c-4.7,0-8.7,4.1-8.7,9v20.6v89.5
			C52.6,192.1,56.7,195.9,61.4,195.9z M131.8,164.1c-3.4-0.6-7.2-0.9-10.9-1.2v-5.6c4.4-4.7,7.2-11.5,7.2-19.3
			c0-2.2-0.3-4.4-0.6-6.5c-0.3-1.2-1.6-1.9-2.5-1.9c-0.6,0-1.2,0.3-2.2,0c-5-0.3-8.4-4.1-8.4-4.1c-0.3-0.6-0.9-0.9-1.6-0.9
			c-0.6,0-1.2,0-1.9,0.6c-4.1,3.4-9.4,5-13.1,5.3h-0.3c-2.5,0.3-4.4,0.3-5,0.3c-1.2,0-2.2,0.9-2.5,1.9c-0.3,1.6-0.3,3.1-0.3,5
			c0,7.8,2.8,15,7.2,19.3v5.6c-3.7,0.3-7.2,0.6-10.9,1.2v-23.7c0-13.7,10-24.9,22.4-24.9c5.9,0,11.5,2.5,15.9,7.2
			c4.4,4.7,6.5,10.9,6.5,17.8v24H131.8z M109,157.5c-8.1,0-14.3-9-14.3-19.9c0-0.9,0-1.6,0-2.2c0.9,0,2.2,0,3.4-0.3h0.3
			c5.3-0.6,10.3-2.5,14-5.3c1.9,1.6,5.3,4.1,10,4.1c0.3,0,0.6,0,0.9,0c0,1.2,0.3,2.2,0.3,3.4C123.7,148.5,117.2,157.5,109,157.5z
			 M101.9,163.5v-2.8c2.2,1.2,4.7,1.9,7.2,1.9s5-0.6,7.2-1.9v2.8c0,4.1-3.1,7.2-7.2,7.2C105.3,170.6,101.9,167.2,101.9,163.5z
			 M83.8,169.1c0.3,0,0.3,0,0.9,0c4.4-0.6,8.7-1.2,13.4-1.6c1.6,4.7,5.9,7.8,11.2,7.8c5,0,9.4-3.4,11.2-7.8c4.7,0.3,9,0.9,13.7,1.6
			h0.3c3.4,0.6,6.2,3.1,7.2,5.9l2.5,14.7H74.1l2.5-14.7C77.6,172.2,80.4,169.7,83.8,169.1z M189.5,187.2c0,1.6-1.2,2.5-2.5,2.5
			h-38.3l-2.5-15.6v-0.3c-1.2-4.4-5-7.8-9.7-9v-24.6c0-7.8-2.8-15.3-7.8-20.9c-5.3-5.6-12.2-8.7-19.3-8.7c-15,0-27.1,13.4-27.1,29.6
			v24.3c-4.7,1.2-8.4,4.7-9.7,9v0.3l-2.5,15.6h-8.7c-1.6,0-2.5-1.2-2.5-2.5v-86h79.5l-8.1,17.5c-0.6,1.2-0.3,2.5,0.6,3.4
			c0.6,0.6,1.2,0.9,2.2,0.9c0.3,0,0.9,0,1.2-0.3l24.3-10.9c0.9-0.3,2.2-0.6,3.1,0c4.1,1.6,8.1,2.5,12.5,2.5h0.9c5,0,9.7-1.6,14-3.7
			v77H189.5z M169.8,52.2c1.6-0.3,3.1-0.3,4.7-0.3c7.8,0,15.3,3.4,20.6,9c5.3,5.9,7.8,13.4,7.2,21.5c-1.2,13.7-13.1,24.6-26.8,25.2
			h-0.9c-3.4,0-6.9-0.6-10.3-1.9c-2.5-0.9-5.6-0.9-8.1,0.3l-16.5,7.5l8.1-17.5c1.2-2.5,1.2-5,0.6-7.5c-1.2-4.1-1.9-8.4-1.2-12.8
			C148.6,63.7,158,54.1,169.8,52.2z M58.9,77.1c0-1.6,1.2-2.5,2.5-2.5h79.5c0,0,0,0,0,0.3c-0.3,1.2-0.3,2.5-0.3,3.7h-28.7
			c-1.2,0-2.5,0.9-2.5,2.5s0.9,2.5,2.5,2.5h28.7c0.3,2.5,0.6,5,1.6,7.5c0.3,0.9,0.3,1.9-0.3,2.8l-0.6,1.2H58.9V77.1z"/>
		<path class="st2" d="M73.2,84.6L73.2,84.6c0-0.6,0-0.9-0.3-1.2V83c-0.3-0.3-0.3-0.6-0.6-0.9L72,81.8l-0.3-0.3l0,0
			c-0.6-0.6-1.6-0.9-2.5-0.9c-2.2,0-4.1,1.9-4.1,3.7c0,0.9,0.3,1.6,0.9,2.5l0,0c0,0,0,0,0.3,0.3l0.3,0.3c0.3,0.3,0.6,0.6,0.9,0.6
			h0.3c0.3,0,0.9,0.3,1.2,0.3l0,0c0.9,0,2.2-0.3,2.8-1.2c0.3-0.3,0.6-0.6,0.9-1.2C72.9,85.5,73.2,84.9,73.2,84.6z"/>
		<path class="st2" d="M84.4,85.8c0-0.3,0.3-0.6,0.3-1.2l0,0l0,0l0,0c0-0.6,0-0.9-0.3-1.2V83c-0.3-0.3-0.3-0.6-0.6-0.9l-0.3-0.3
			l-0.3-0.3l0,0c-0.6-0.6-1.6-0.9-2.5-0.9c-2.2,0-4.1,1.9-4.1,3.7c0,0.9,0.3,1.6,0.9,2.5l0,0c0,0,0,0,0.3,0.3l0.3,0.3
			c0.3,0.3,0.6,0.6,0.9,0.6h0.3c0.3,0,0.9,0.3,1.2,0.3l0,0c1.6,0,2.8-0.9,3.4-2.2C84.1,86.2,84.1,86.2,84.4,85.8L84.4,85.8z"/>
		<path class="st2" d="M96,83L96,83c-0.3-0.6-0.6-0.9-0.9-1.2c0,0-0.3,0-0.3-0.3l-0.3-0.3l0,0c-0.6-0.6-1.6-0.9-2.5-0.9
			c-2.2,0-4.1,1.9-4.1,3.7c0,0.9,0.3,1.6,0.9,2.2c0,0,0,0-0.3,0c0,0.3,0.3,0.3,0.3,0.6l0,0c0.3,0.3,0.6,0.6,0.9,0.6H90
			c0.3,0,0.6,0.3,1.2,0.3l0,0c1.2,0,2.2-0.6,3.1-1.6c0.6-0.6,0.9-1.6,0.9-2.5C96.3,84,96.3,83.7,96,83z"/>
		<path class="st2" d="M169.5,100.8c1.2,0,2.2-0.3,3.1-1.2L192.3,83c1.2-0.9,1.9-2.2,1.9-3.7c0-1.6-0.6-2.8-1.6-3.7L172.9,59
			c-0.9-0.6-1.9-1.2-3.1-1.2c-2.8,0.6-5,2.8-5,5.3v32.7C164.8,98.6,167,100.8,169.5,100.8z M169.8,63.1l19.6,16.5l-19.6,16.5l0,0
			l0,0V63.1z"/>
	</g>
</g>
</svg>
