<?xml version="1.0" encoding="UTF-8"?><svg id="Layer_1" xmlns="http://www.w3.org/2000/svg" viewBox="0 0 250 250"><defs><style>.cls-1{fill:none;stroke:#fff;stroke-linecap:round;stroke-linejoin:round;stroke-width:7px;}</style></defs><g><path class="cls-1" d="M51.16,94.17c-.07,0-.13,0-.2,0,.29,.76,0,51.23,0,51.23h.2v-51.28H20.95c-6.95,0-12.65,5.69-12.65,12.65v25.99c0,6.95,5.69,12.65,12.65,12.65h30s72.32,5.35,116.41,51.61V41.42s-44.11,49.99-116.21,52.75Z"/><path class="cls-1" d="M167.41,99.39h11.49c2.54,0,4.6,2.06,4.6,4.6v31.58c0,2.54-2.06,4.6-4.6,4.6h-9.99c-.83,0-1.5-.67-1.5-1.5v-39.29h0Z"/></g><line class="cls-1" x1="193.75" y1="58.82" x2="218.41" y2="32.44"/><line class="cls-1" x1="208.1" y1="116.16" x2="244.21" y2="116.16"/><line class="cls-1" x1="194.76" y1="172.87" x2="217.97" y2="200.53"/><line class="cls-1" x1="205.49" y1="144.09" x2="238.22" y2="159.35"/><line class="cls-1" x1="206.49" y1="87.38" x2="239.22" y2="72.12"/><polygon class="cls-1" points="20.95 145.98 31.46 214.51 50.96 214.51 39.2 145.7 20.95 145.98"/></svg>