<svg id="Layer_1" data-name="Layer 1" xmlns="http://www.w3.org/2000/svg" viewBox="0 0 250 250"><defs><style>.cls-1{fill:none;stroke:#fff;stroke-linecap:round;stroke-linejoin:round;stroke-width:7px;}</style></defs><polyline class="cls-1" points="174.27 130.2 184.25 143.22 204.62 116.85"/><path class="cls-1" d="M170.74,102.27H210a8.73,8.73,0,0,1,8.71,8.7v39.26a8.73,8.73,0,0,1-8.71,8.7H170.74a8.73,8.73,0,0,1-8.7-8.7V111a8.73,8.73,0,0,1,8.7-8.7Zm-83.69,62L87,225c0,15.09,29.12,14.88,29-.23l-.54-41.65-.68-73.77m.78,40.52c4,10.66,10.12,12,14.41,9.56,7.06-4,4.61-12.43,4.31-19.07L132,91.85c-.75-16.72-86.9-15.48-89.69-.16-2.28,9.48-2.59,31.13-2.86,47.47-.12,8-3.09,24.3,9.08,23,3.51-.23,7.33-3.13,10.17-10.59m.78-42.26-.68,73.77-.55,41.65C58.12,239.87,87,240.09,87,225M86.46,25a21.52,21.52,0,1,1-10.71,2.91A21.13,21.13,0,0,1,86.46,25Z"/><polyline class="cls-1" points="175.28 52.93 185.26 65.95 205.64 39.58"/><path class="cls-1" d="M171.76,25H211a8.72,8.72,0,0,1,8.7,8.7V73a8.73,8.73,0,0,1-8.7,8.71H171.76A8.74,8.74,0,0,1,163.05,73V33.7a8.73,8.73,0,0,1,8.71-8.7Z"/><polyline class="cls-1" points="173.25 207.47 183.23 220.49 203.61 194.12"/><path class="cls-1" d="M169.73,179.54H209a8.73,8.73,0,0,1,8.71,8.7V227.5a8.74,8.74,0,0,1-8.71,8.71H169.73A8.74,8.74,0,0,1,161,227.5V188.24a8.73,8.73,0,0,1,8.71-8.7Z"/></svg>