<svg id="Layer_1" data-name="Layer 1" xmlns="http://www.w3.org/2000/svg" viewBox="0 0 250 250"><defs><style>.cls-1{fill:none;stroke:#333;stroke-linecap:round;stroke-linejoin:round;stroke-width:7px;}</style></defs><path class="cls-1" d="M182.1,96.09h1.56A12.38,12.38,0,0,1,196,109.91l-.78,6.7a12.38,12.38,0,0,1-12.3,11h0a12.39,12.39,0,0,1-12.31-11l-.78-6.7A12.39,12.39,0,0,1,182.1,96.09Z"/><path class="cls-1" d="M212,158.67v-5.59c0-6.6-5.4-12.37-13.16-14.08h0a74.15,74.15,0,0,0-31.87,0h0c-7.76,1.71-13.15,7.48-13.15,14.08v5.59"/><circle class="cls-1" cx="182.88" cy="119.77" r="48.33"/><path class="cls-1" d="M187.78,178V232.5H40.55a4.16,4.16,0,0,1-4.16-4.16V38.65a4.16,4.16,0,0,1,4.16-4.16H85.31"/><path class="cls-1" d="M138.86,34.49h44.76a4.16,4.16,0,0,1,4.16,4.16V61.5"/><path class="cls-1" d="M140,51.59V34.49H84.1v17.1A8.87,8.87,0,0,0,93,60.47h38.19A8.87,8.87,0,0,0,140,51.59Z"/><polyline class="cls-1" points="170.68 176.94 170.68 215.22 104.78 215.22 53.49 215.22 53.49 51.59 84.1 51.59"/><polyline class="cls-1" points="142.6 51.59 170.68 51.59 170.68 62.6"/><path class="cls-1" d="M95.09,34.49a17,17,0,0,1,34,0"/><line class="cls-1" x1="98.08" y1="119.77" x2="124.39" y2="119.77"/><polyline class="cls-1" points="68.7 118.58 75.84 125.72 87.73 113.82"/><polyline class="cls-1" points="68.7 149.39 75.84 156.53 87.73 144.64"/><polyline class="cls-1" points="68.7 180.21 75.84 187.35 87.73 175.45"/><line class="cls-1" x1="98.08" y1="150.59" x2="133.21" y2="150.59"/><line class="cls-1" x1="98.08" y1="88.96" x2="133.19" y2="88.96"/><polyline class="cls-1" points="68.33 87.77 75.47 94.91 87.37 83.01"/><line class="cls-1" x1="98.08" y1="181.4" x2="155.84" y2="181.4"/></svg>