<svg id="Layer_1" data-name="Layer 1" xmlns="http://www.w3.org/2000/svg" viewBox="0 0 250 250"><defs><style>.cls-1{fill:#fff;}</style></defs><path class="cls-1" d="M135.38,37.12a14.5,14.5,0,1,0-20.77,0,25.44,25.44,0,0,0-15.16,21,3.33,3.33,0,0,0,3,3.63l.32,0a3.33,3.33,0,0,0,3.31-3,19,19,0,0,1,37.82-.15,3.33,3.33,0,0,0,6.63-.67A25.5,25.5,0,0,0,135.38,37.12ZM117.17,27A7.83,7.83,0,1,1,125,34.87,7.84,7.84,0,0,1,117.17,27Z"/><path class="cls-1" d="M150.55,197a3.33,3.33,0,0,0-6.63-.63,19,19,0,0,1-37.84,0,3.36,3.36,0,0,0-3.63-3,3.33,3.33,0,0,0-3,3.63,25.46,25.46,0,0,0,15.16,21,14.5,14.5,0,1,0,20.78,0A25.44,25.44,0,0,0,150.55,197ZM132.83,228a7.83,7.83,0,1,1-7.83-7.83A7.84,7.84,0,0,1,132.83,228Z"/><path class="cls-1" d="M56.2,146.46a19,19,0,0,1-.15-37.82,3.33,3.33,0,1,0-.67-6.63,25.47,25.47,0,0,0-20.79,15.15,14.5,14.5,0,1,0,0,20.77,25.46,25.46,0,0,0,21,15.16l.32,0a3.33,3.33,0,0,0,.31-6.65ZM24.5,135.37a7.84,7.84,0,1,1,7.83-7.83A7.84,7.84,0,0,1,24.5,135.37Z"/><path class="cls-1" d="M225.5,113a14.41,14.41,0,0,0-10.08,4.11,25.44,25.44,0,0,0-21-15.16,3.28,3.28,0,0,0-3.63,3,3.33,3.33,0,0,0,3,3.63,19,19,0,0,1,0,37.84,3.33,3.33,0,0,0,.31,6.65l.32,0a25.46,25.46,0,0,0,21-15.16A14.49,14.49,0,1,0,225.5,113Zm0,22.33a7.84,7.84,0,1,1,7.84-7.83A7.84,7.84,0,0,1,225.5,135.37Z"/><path class="cls-1" d="M93.83,60.25a25.54,25.54,0,0,0-25.42-4,14.36,14.36,0,0,0-4.22-10,14.85,14.85,0,0,0-20.51,0,14.47,14.47,0,0,0,10,24.72,25.46,25.46,0,0,0,4.12,25.58,3.35,3.35,0,0,0,2.57,1.21A3.28,3.28,0,0,0,62.53,97,3.32,3.32,0,0,0,63,92.27,19,19,0,0,1,89.61,65.42a3.34,3.34,0,0,0,4.22-5.17ZM48.39,62a7.84,7.84,0,1,1,11.09,0A7.82,7.82,0,0,1,48.39,62Z"/><path class="cls-1" d="M206.32,188.35a14.47,14.47,0,0,0-10-4.22,25.45,25.45,0,0,0-4.12-25.57,3.33,3.33,0,0,0-5.13,4.25,19,19,0,0,1-26.64,26.85,3.33,3.33,0,0,0-4.22,5.16,25.37,25.37,0,0,0,25.42,4,14.49,14.49,0,1,0,24.73-10.5Zm-4.71,15.79a7.85,7.85,0,1,1,2.29-5.54A7.85,7.85,0,0,1,201.61,204.14Z"/><path class="cls-1" d="M94.42,190a3.34,3.34,0,0,0-4.69-.44,19,19,0,0,1-26.85-26.63,3.33,3.33,0,0,0-5.16-4.22,25.49,25.49,0,0,0-4,25.42,14.5,14.5,0,1,0,14.68,14.73A25.29,25.29,0,0,0,94,194.7,3.33,3.33,0,0,0,94.42,190Zm-32.65,8.6a7.82,7.82,0,1,1-2.29-5.54A7.81,7.81,0,0,1,61.77,198.6Z"/><path class="cls-1" d="M210.56,56.47a14.39,14.39,0,0,0-4.24-10.25,14.85,14.85,0,0,0-20.51,0,14.38,14.38,0,0,0-4.22,10A25.5,25.5,0,0,0,156,60.38a3.33,3.33,0,0,0,4.25,5.13A19,19,0,0,1,187,92.26a3.33,3.33,0,0,0,5.13,4.26,25.46,25.46,0,0,0,4.12-25.58,14.44,14.44,0,0,0,14.28-14.47ZM201.61,62a7.85,7.85,0,1,1,2.29-5.54A7.86,7.86,0,0,1,201.61,62Z"/><path class="cls-1" d="M184.21,174.93a75.57,75.57,0,0,0,0-94.79s0-.06,0-.09a4,4,0,0,0-.27-.31,75.76,75.76,0,0,0-117.81,0,4,4,0,0,0-.28.32s0,.07,0,.09a75.57,75.57,0,0,0,0,94.79s0,.06,0,.09.19.2.27.31A75.76,75.76,0,0,0,184,175.17c0-.06.11-.09.15-.15S184.19,175,184.21,174.93Zm9.87-50.73H161.75a146.16,146.16,0,0,0-3.68-30.44A96.88,96.88,0,0,0,180.24,86,68.8,68.8,0,0,1,194.08,124.2Zm-32.33,6.67h32.33a68.8,68.8,0,0,1-13.84,38.25,96.88,96.88,0,0,0-22.17-7.8A146.17,146.17,0,0,0,161.75,130.87ZM175.87,80.7a92.59,92.59,0,0,1-19.51,6.63C153,76.09,148.27,66.9,142.61,60.64A69.3,69.3,0,0,1,175.87,80.7ZM125,196.79c-10.12,0-19.27-12.17-24.77-30.34a148.53,148.53,0,0,1,49.54,0C144.27,184.62,135.12,196.79,125,196.79Zm0-39.08A152.88,152.88,0,0,0,98.49,160a140.21,140.21,0,0,1-3.58-29.14h60.18A140.21,140.21,0,0,1,151.51,160,152.88,152.88,0,0,0,125,157.71ZM94.91,124.2a140.19,140.19,0,0,1,3.58-29.13A152.88,152.88,0,0,0,125,97.37a152.88,152.88,0,0,0,26.51-2.3,140.19,140.19,0,0,1,3.58,29.13ZM125,58.29c10.12,0,19.27,12.17,24.77,30.34A147.08,147.08,0,0,1,125,90.71a147.08,147.08,0,0,1-24.77-2.08C105.73,70.46,114.88,58.29,125,58.29Zm-17.61,2.35C101.73,66.9,97,76.09,93.64,87.33a92.87,92.87,0,0,1-19.5-6.62A69.16,69.16,0,0,1,107.39,60.64ZM55.92,130.87H88.25a146.17,146.17,0,0,0,3.68,30.45,96.88,96.88,0,0,0-22.17,7.8A68.72,68.72,0,0,1,55.92,130.87ZM69.76,86a96.88,96.88,0,0,0,22.17,7.81,146.16,146.16,0,0,0-3.68,30.44H55.92A68.72,68.72,0,0,1,69.76,86Zm4.37,88.42a93.17,93.17,0,0,1,19.51-6.62c3.35,11.23,8.09,20.43,13.75,26.68A69.22,69.22,0,0,1,74.13,174.37Zm68.48,20.06c5.66-6.25,10.4-15.45,13.75-26.68a93.17,93.17,0,0,1,19.51,6.62A69.15,69.15,0,0,1,142.61,194.43Z"/></svg>