<svg id="Layer_1" data-name="Layer 1" xmlns="http://www.w3.org/2000/svg" viewBox="0 0 250 250"><defs><style>.cls-1{fill:none;stroke:#333;stroke-linecap:round;stroke-linejoin:round;stroke-width:7px;}</style></defs><path class="cls-1" d="M124.57,186.6l0,44c0,10.94,21.11,10.79,21-.16l-.39-30.19-.5-53.48"/><path class="cls-1" d="M145.2,176.13c2.94,7.72,7.34,8.69,10.45,6.92,5.12-2.91,3.34-9,3.12-13.82l-1.59-35.15c-.55-12.13-63-11.23-65-.12-1.65,6.87-1.87,22.57-2.07,34.41-.09,5.78-2.24,17.61,6.58,16.69,2.54-.16,5.32-2.26,7.37-7.67"/><path class="cls-1" d="M104.61,146.75l-.5,53.48-.39,30.19c-.12,11,20.82,11.11,20.81.16"/><path class="cls-1" d="M124.15,85.61a15.63,15.63,0,1,1-7.77,2.12,15.32,15.32,0,0,1,7.77-2.12Z"/><path class="cls-1" d="M128,68.49a30.56,30.56,0,0,1,9.91,3.17,39.44,39.44,0,0,1,7.41,5.16h0a39.44,39.44,0,0,1,7.41-5.16,29.9,29.9,0,0,1,12.71-3.42h1.29a29.91,29.91,0,0,1,12.72,3.42,39.39,39.39,0,0,1,7.4,5.16h0S183,23.1,128,21.5V17.74a2.84,2.84,0,0,0-5.68,0v3.74c-56.2.84-60.08,55.34-60.08,55.34h0a39.39,39.39,0,0,1,7.4-5.16,29.91,29.91,0,0,1,12.72-3.42h1.29a29.86,29.86,0,0,1,12.71,3.42,39.44,39.44,0,0,1,7.41,5.16h0a39.39,39.39,0,0,1,7.4-5.16,30.37,30.37,0,0,1,11.13-3.32Z"/></svg>