<svg id="Layer_1" data-name="Layer 1" xmlns="http://www.w3.org/2000/svg" viewBox="0 0 250 250"><defs><style>.cls-1{fill:none;stroke:#fff;stroke-linecap:round;stroke-linejoin:round;stroke-width:7px;}</style></defs><path class="cls-1" d="M179.31,238.28a2.28,2.28,0,0,1-2.27,2.28H37.34a2.28,2.28,0,0,1-2.28-2.28V42.71a2.28,2.28,0,0,1,2.28-2.28H177a2.28,2.28,0,0,1,2.27,2.28Z"/><path class="cls-1" d="M50,38.43V28.13a2.27,2.27,0,0,1,2.27-2.27H191.94a2.28,2.28,0,0,1,2.28,2.27V223.71a2.28,2.28,0,0,1-2.28,2.27H180.31"/><path class="cls-1" d="M64,25.21V14.91a2.28,2.28,0,0,1,2.28-2.28H206a2.28,2.28,0,0,1,2.27,2.28V210.48a2.28,2.28,0,0,1-2.27,2.28H194.33"/><ellipse class="cls-1" cx="81.69" cy="91.91" rx="14.4" ry="16.8"/><path class="cls-1" d="M62.49,123.11c0-8,8.6-14.4,19.2-14.4s19.21,6.45,19.21,14.4"/><line class="cls-1" x1="120.1" y1="84.7" x2="153.71" y2="84.7"/><line class="cls-1" x1="120.1" y1="103.91" x2="153.71" y2="103.91"/><line class="cls-1" x1="120.1" y1="123.11" x2="153.71" y2="123.11"/><line class="cls-1" x1="62.49" y1="142.32" x2="153.71" y2="142.32"/><line class="cls-1" x1="62.49" y1="160.85" x2="153.71" y2="160.85"/><line class="cls-1" x1="62.49" y1="179.37" x2="153.71" y2="179.37"/><line class="cls-1" x1="62.49" y1="200.76" x2="110.5" y2="200.76"/></svg>