<svg id="Layer_1" data-name="Layer 1" xmlns="http://www.w3.org/2000/svg" viewBox="0 0 250 250"><defs><style>.cls-1{fill:none;stroke:#333;stroke-linecap:round;stroke-linejoin:round;stroke-width:7px;}.cls-2{fill:#333;}</style></defs><ellipse class="cls-1" cx="89.61" cy="83.29" rx="14.4" ry="16.8"/><path class="cls-1" d="M70.4,114.49c0-7.95,8.6-14.4,19.21-14.4s19.2,6.45,19.2,14.4"/><line class="cls-1" x1="128.02" y1="76.08" x2="161.63" y2="76.08"/><line class="cls-1" x1="128.02" y1="95.29" x2="161.63" y2="95.29"/><line class="cls-1" x1="128.02" y1="114.49" x2="132.83" y2="114.49"/><line class="cls-1" x1="70.4" y1="133.7" x2="131.66" y2="133.7"/><line class="cls-1" x1="70.4" y1="152.9" x2="118.42" y2="152.9"/><path class="cls-1" d="M182.89,64c-54.9-.83-44.24,9.59-45.13-45.13L182.89,64Zm0,38.15V64L137.76,18.9H94.27m88.62,81.19V64L137.76,18.9H56.06a7,7,0,0,0-6.92,6.92V194a7,7,0,0,0,6.92,6.93c27.51-.09,83.54.06,110.86,0m16-100.83M65.11,200.92H176a7,7,0,0,0,6.92-6.93v-30.4"/><path class="cls-1" d="M199.87,131.33a33.52,33.52,0,1,0-37.16,33.32H170A33.52,33.52,0,0,0,199.87,131.33Z"/><path class="cls-2" d="M162.71,164.65V222a3.27,3.27,0,0,0,3.26,3.26h.76A3.27,3.27,0,0,0,170,222V164.65a33.22,33.22,0,0,1-7.28,0Z"/></svg>