<svg id="Layer_1" data-name="Layer 1" xmlns="http://www.w3.org/2000/svg" viewBox="0 0 250 250"><defs><style>.cls-1{fill:#fff;}</style></defs><path class="cls-1" d="M210.66,231H39.34a3.42,3.42,0,0,1-3.42-3.43V111.11H22.21A3.43,3.43,0,0,1,20,105.05L122.81,19.39a3.41,3.41,0,0,1,4.38,0l49.2,41V32.3a3.43,3.43,0,0,1,3.43-3.42h30.84a3.42,3.42,0,0,1,3.42,3.42V91.79L230,105.05a3.43,3.43,0,0,1-2.19,6.06H214.08V227.6A3.42,3.42,0,0,1,210.66,231ZM42.77,224.18H207.23V107.68a3.43,3.43,0,0,1,3.43-3.42h7.67L208.46,96a3.44,3.44,0,0,1-1.23-2.64V35.73h-24v32a3.43,3.43,0,0,1-5.62,2.63L125,26.48,31.67,104.26h7.67a3.43,3.43,0,0,1,3.43,3.42Z"/><path class="cls-1" d="M103.89,114.53h0a15.56,15.56,0,0,1-3.19-.33c-9.2-1.93-15-11.79-13-22,1.79-8.9,9-15.36,17.27-15.36a15.73,15.73,0,0,1,3.2.33c9.2,1.93,15,11.79,13,22C119.38,108.07,112.11,114.53,103.89,114.53ZM105,83.7c-5,0-9.4,4.15-10.55,9.86-1.31,6.52,2.13,12.77,7.66,13.93a8.38,8.38,0,0,0,1.79.19c5,0,9.41-4.15,10.55-9.86,1.31-6.52-2.13-12.77-7.66-13.93A8.31,8.31,0,0,0,105,83.7Z"/><path class="cls-1" d="M193.53,210.47a3.42,3.42,0,0,1-3.43-3.42v-48H125a3.43,3.43,0,1,1,0-6.86h68.53a3.43,3.43,0,0,1,3.42,3.43v51.4A3.42,3.42,0,0,1,193.53,210.47Z"/><path class="cls-1" d="M184.38,145.37H159.26a3.43,3.43,0,0,1,0-6.85h25.12a3.43,3.43,0,0,1,0,6.85Z"/><path class="cls-1" d="M166.12,210.47a3.42,3.42,0,0,1-3.43-3.42v-51.4a3.43,3.43,0,1,1,6.85,0v51.4A3.42,3.42,0,0,1,166.12,210.47Z"/><path class="cls-1" d="M118.15,193.34H63a6.84,6.84,0,0,1-6.82-6.14l-1.12-10.63L50,129.1a6.85,6.85,0,0,1,6.81-7.58H84.31a6.87,6.87,0,0,1,6.79,6l6.06,45.31h21a6.86,6.86,0,0,1,6.85,6.86v6.85A6.85,6.85,0,0,1,118.15,193.34Zm-61.3-65,5,47.47L63,186.49h55.16v-6.85h-24a3.43,3.43,0,0,1-3.39-3l-6.46-48.28Z"/><path class="cls-1" d="M107.87,213.9a3.44,3.44,0,0,1-3.43-3.43v-3.42H70.18v3.42a3.43,3.43,0,1,1-6.85,0v-3.42a6.86,6.86,0,0,1,6.85-6.86h34.26a6.86,6.86,0,0,1,6.85,6.86v3.42A3.43,3.43,0,0,1,107.87,213.9Z"/><path class="cls-1" d="M87.31,207.05a3.44,3.44,0,0,1-3.43-3.43V189.91a3.43,3.43,0,0,1,6.86,0v13.71A3.44,3.44,0,0,1,87.31,207.05Z"/><path class="cls-1" d="M149,155.65a3.42,3.42,0,0,1-3.42-3.43V148.8a3.44,3.44,0,0,0-3.43-3.43h-13.7a3.43,3.43,0,0,1-3.23-2.27l-7.75-21.74a10.3,10.3,0,0,0-9.68-6.82H89a10.23,10.23,0,0,0-9.22,5.71l-3.07,6.22a3.43,3.43,0,0,1-6.15-3l3.08-6.22A17,17,0,0,1,89,107.68h18.8a17.16,17.16,0,0,1,16.13,11.38l6.94,19.46h11.29a10.29,10.29,0,0,1,10.28,10.28v3.42A3.42,3.42,0,0,1,149,155.65Z"/><path class="cls-1" d="M133.91,213.9a13.77,13.77,0,0,1-13.56-11.77L118.18,187a3.43,3.43,0,0,1,6.79-1l2.16,15.16a6.89,6.89,0,0,0,6.78,5.89,1,1,0,0,0,.73-.32,1,1,0,0,0,.25-.75l-2.63-31.62a3.45,3.45,0,0,0-2.48-3l-19.43-5.55a3.43,3.43,0,0,1-2.48-3.3v-24a3.43,3.43,0,1,1,6.85,0v21.4l16.95,4.84a10.36,10.36,0,0,1,7.42,9l2.63,31.62a7.83,7.83,0,0,1-7.81,8.49Z"/><path class="cls-1" d="M179.82,159.08a3.44,3.44,0,0,1-3.25-4.51l15.63-46.89H144.6l-6.93,20.79a3.43,3.43,0,0,1-6.5-2.17l7.71-23.13a3.43,3.43,0,0,1,3.25-2.34H197a3.42,3.42,0,0,1,3.25,4.51l-17.13,51.39A3.42,3.42,0,0,1,179.82,159.08Z"/></svg>