<svg id="Layer_1" data-name="Layer 1" xmlns="http://www.w3.org/2000/svg" viewBox="0 0 250 250"><defs><style>.cls-1{fill:#333;}</style></defs><path class="cls-1" d="M237.48,60.65a3.24,3.24,0,0,0-3.24-3.24H179.56A23,23,0,0,0,163.39,64l-4.8,4.64a3.24,3.24,0,1,0,4.5,4.66l4.82-4.66a16.53,16.53,0,0,1,11.65-4.76h54.68A3.24,3.24,0,0,0,237.48,60.65Z"/><path class="cls-1" d="M234.24,101.18h-8.12a29.68,29.68,0,0,0,3.2-13.37,3.24,3.24,0,1,0-6.48,0c0,13-11.21,23.91-24.47,23.91h-7.48a3.24,3.24,0,1,0,0,6.48h7.48a31.1,31.1,0,0,0,23.38-10.54h12.49a3.24,3.24,0,0,0,0-6.48Z"/><path class="cls-1" d="M187.44,163.6l-4.65-4.81a3.24,3.24,0,0,0-4.66,4.51l4.66,4.82a16.51,16.51,0,0,1,4.76,11.64v54.68a3.24,3.24,0,0,0,6.48,0V179.76A23,23,0,0,0,187.44,163.6Z"/><path class="cls-1" d="M163.63,223c-13,0-23.91-11.2-23.91-24.46v-7.49a3.24,3.24,0,0,0-6.48,0v7.49A31.08,31.08,0,0,0,143.78,222v12.49a3.24,3.24,0,0,0,6.48,0v-8.12a29.68,29.68,0,0,0,13.37,3.2,3.24,3.24,0,1,0,0-6.48Z"/><path class="cls-1" d="M68.44,83.53a16.58,16.58,0,0,1-4.75-11.65V17.2a3.25,3.25,0,0,0-6.49,0V71.88a23,23,0,0,0,6.6,16.17l4.65,4.8a3.24,3.24,0,0,0,4.58.08,3.25,3.25,0,0,0,.08-4.59Z"/><path class="cls-1" d="M107.46,29.69V17.2a3.25,3.25,0,0,0-6.49,0v8.12a29.68,29.68,0,0,0-13.37-3.2,3.25,3.25,0,0,0,0,6.49c13,0,23.91,11.2,23.91,24.47v7.47a3.25,3.25,0,0,0,6.49,0V53.08A31.12,31.12,0,0,0,107.46,29.69Z"/><path class="cls-1" d="M92.72,178.41a3.24,3.24,0,0,0-4.58-.07L83.32,183a16.56,16.56,0,0,1-11.64,4.75H17a3.24,3.24,0,0,0,0,6.48H71.68a22.93,22.93,0,0,0,16.16-6.59L92.65,183A3.25,3.25,0,0,0,92.72,178.41Z"/><path class="cls-1" d="M17,150.47h8.11a29.81,29.81,0,0,0-3.2,13.37,3.25,3.25,0,0,0,6.49,0c0-13,11.2-23.91,24.47-23.91h7.48a3.25,3.25,0,0,0,0-6.49H52.87A31.12,31.12,0,0,0,29.48,144H17a3.25,3.25,0,0,0,0,6.49Z"/><path class="cls-1" d="M95,71.54a3.25,3.25,0,0,1-1.53-6.11,68.72,68.72,0,0,1,32.19-8,3.24,3.24,0,1,1,0,6.48,62.07,62.07,0,0,0-29.13,7.27A3.24,3.24,0,0,1,95,71.54Z"/><path class="cls-1" d="M186,93.64a3.24,3.24,0,1,0-5.72,3.06,62,62,0,0,1,7.27,29.13,3.24,3.24,0,0,0,6.48,0A68.55,68.55,0,0,0,186,93.64Z"/><path class="cls-1" d="M125.62,57.41a3.23,3.23,0,0,0-3,2,3.27,3.27,0,0,0-.32,1.36V87.9a4.27,4.27,0,0,0,7.47,2.82,4,4,0,0,1,4.13-1.22,3.92,3.92,0,0,1,2.72,2.73,4,4,0,0,1-.68,3.55,4.11,4.11,0,0,1-6.16.2,4.3,4.3,0,0,0-4.73-1.18,4.24,4.24,0,0,0-2.75,4V125.9a3.24,3.24,0,1,0,6.48,0V103a10.66,10.66,0,0,0,12.28-3.27,10.47,10.47,0,0,0-5.52-16.53,10.81,10.81,0,0,0-6.76.43V64.07a61.84,61.84,0,0,1,43.49,21,3.24,3.24,0,1,0,4.88-4.26A68.44,68.44,0,0,0,125.62,57.41Z"/><path class="cls-1" d="M219.48,79.15a3.24,3.24,0,0,0-4.53.69,17.44,17.44,0,0,1-21.3,5.2,2.81,2.81,0,0,0-.55-.15,3.14,3.14,0,0,0-.58-.16,3,3,0,0,0-.85.07,2.47,2.47,0,0,0-.38,0,3.15,3.15,0,0,0-.82.41c-.09.06-.19.08-.28.15l-.08.06,0,0L172,99.92a3.94,3.94,0,0,1-4.73.46,3.81,3.81,0,0,1-.34-6.11l25.38-22.63A3.24,3.24,0,0,0,188,66.8L162.64,89.38a10.3,10.3,0,0,0,.93,16.35,9.93,9.93,0,0,0,5.66,1.73,10.61,10.61,0,0,0,6.86-2.53l16.63-13.25a23.29,23.29,0,0,0,8.49,1.61,23.62,23.62,0,0,0,19-9.61A3.25,3.25,0,0,0,219.48,79.15Z"/><path class="cls-1" d="M154.75,180.49a62.09,62.09,0,0,1-29.13,7.26,3.24,3.24,0,0,0,0,6.48,68.59,68.59,0,0,0,32.18-8,3.24,3.24,0,0,0-3.05-5.72Z"/><path class="cls-1" d="M190.79,122.58c-.13,0-.23.06-.35.07h-26.9a4.27,4.27,0,0,0-2.82,7.48A4,4,0,0,1,162,134a3.93,3.93,0,0,1-2.72,2.88,4,4,0,0,1-3.58-.64,3.91,3.91,0,0,1-1.55-3.14,4,4,0,0,1,1.36-3,4.27,4.27,0,0,0-2.81-7.48H125.54a3.25,3.25,0,0,0,0,6.49h22.87A10.42,10.42,0,0,0,158,143.56a10.92,10.92,0,0,0,2.88-.39,10.35,10.35,0,0,0,7.38-7.84,10.65,10.65,0,0,0-.54-6.19h19.61a61.92,61.92,0,0,1-21,43.34,3.24,3.24,0,1,0,4.26,4.88A68.4,68.4,0,0,0,194,125.83,3.25,3.25,0,0,0,190.79,122.58Z"/><path class="cls-1" d="M184.64,188.17l-22.58-25.33a10.28,10.28,0,1,0-15.54,13.46l13.24,16.63a23.29,23.29,0,0,0-1.61,8.49,23.67,23.67,0,0,0,9.61,19,3.24,3.24,0,1,0,3.84-5.23,17.12,17.12,0,0,1-7-13.74,16.87,16.87,0,0,1,1.77-7.56,3.59,3.59,0,0,0,.12-.47,2.83,2.83,0,0,0,.19-.69,3.28,3.28,0,0,0-.05-.63,3,3,0,0,0-.08-.6,2.75,2.75,0,0,0-.34-.66,2.63,2.63,0,0,0-.21-.41l-14.51-18.22a4,4,0,0,1-.47-4.74,3.8,3.8,0,0,1,3-1.7,3.74,3.74,0,0,1,3.14,1.37l22.63,25.38a3.24,3.24,0,1,0,4.84-4.32Z"/><path class="cls-1" d="M63.69,125.83a3.25,3.25,0,1,0-6.49,0,68.57,68.57,0,0,0,8,32.18A3.24,3.24,0,1,0,71,155,62,62,0,0,1,63.69,125.83Z"/><path class="cls-1" d="M128.79,190.63V163.89a4.27,4.27,0,0,0-7.48-2.82,4,4,0,0,1-3.89,1.23,3.91,3.91,0,0,1-2.89-2.72,4,4,0,0,1,.64-3.58,4.11,4.11,0,0,1,6.14-.19,4.26,4.26,0,0,0,7.48-2.81V125.9a3.25,3.25,0,1,0-6.49,0v22.86a10.66,10.66,0,0,0-12.28,3.3,10.51,10.51,0,0,0-1.75,9.21,10.37,10.37,0,0,0,7.84,7.39,10.64,10.64,0,0,0,6.19-.55v19.46a61.86,61.86,0,0,1-43.34-21,3.24,3.24,0,0,0-4.88,4.27,68.47,68.47,0,0,0,51.44,23.41h.1a3.24,3.24,0,0,0,3.24-3.24C128.86,190.86,128.8,190.76,128.79,190.63Z"/><path class="cls-1" d="M87.67,145.91a10.4,10.4,0,0,0-12.53.81L58.51,160A23.29,23.29,0,0,0,50,158.36a23.58,23.58,0,0,0-19,9.61,3.24,3.24,0,0,0,.69,4.53,3.24,3.24,0,0,0,4.53-.69,17.46,17.46,0,0,1,21.3-5.21,3,3,0,0,0,.49.14,3.05,3.05,0,0,0,.66.17,2.68,2.68,0,0,0,.69,0,3.33,3.33,0,0,0,.54-.07,3.25,3.25,0,0,0,.67-.34,2.63,2.63,0,0,0,.41-.21l18.23-14.52a4,4,0,0,1,4.73-.46,3.82,3.82,0,0,1,.33,6.12L59,180a3.24,3.24,0,0,0,4.32,4.84l25.32-22.58a10.18,10.18,0,0,0,3.59-8.36A10.34,10.34,0,0,0,87.67,145.91Z"/><path class="cls-1" d="M125.54,122.65H102.68a10.47,10.47,0,0,0-3.25-12.25,10.52,10.52,0,0,0-9.12-1.87,10.4,10.4,0,0,0-7.5,7.66,10.53,10.53,0,0,0,.51,6.46H63.86a61.91,61.91,0,0,1,21-43.48,3.24,3.24,0,1,0-4.27-4.88A68.46,68.46,0,0,0,57.2,125.83s0,0,0,0,0,0,0,0a3.25,3.25,0,0,0,3.25,3.24H87.53a4.28,4.28,0,0,0,4-2.79,4.2,4.2,0,0,0-1.17-4.66,4.06,4.06,0,0,1-1.26-4,4,4,0,0,1,2.78-2.86,4.09,4.09,0,0,1,3.55.7A4,4,0,0,1,97,118.66a4,4,0,0,1-1.38,3,4.27,4.27,0,0,0,2.84,7.46h27.09a3.25,3.25,0,1,0,0-6.49Z"/><path class="cls-1" d="M104.72,75.34,91.48,58.72a23.28,23.28,0,0,0,1.6-8.49,23.58,23.58,0,0,0-9.61-19,3.24,3.24,0,1,0-3.84,5.22,17.08,17.08,0,0,1,7,13.74,16.74,16.74,0,0,1-1.77,7.56,4.05,4.05,0,0,0-.12.47,4.15,4.15,0,0,0-.19.69,4.58,4.58,0,0,0,0,.63,3.11,3.11,0,0,0,.09.6,3.19,3.19,0,0,0,.32.64,3.48,3.48,0,0,0,.22.43L99.72,79.47a4,4,0,0,1,.46,4.74,3.82,3.82,0,0,1-3,1.7,3.76,3.76,0,0,1-3.15-1.37L71.43,59.16a3.24,3.24,0,1,0-4.83,4.31L89.18,88.8A10.22,10.22,0,0,0,97,92.4l.57,0a10.26,10.26,0,0,0,8-4.51A10.37,10.37,0,0,0,104.72,75.34Z"/></svg>