<svg id="Layer_1" data-name="Layer 1" xmlns="http://www.w3.org/2000/svg" viewBox="0 0 250 250"><defs><style>.cls-1{fill:#333;stroke:#333;stroke-linecap:round;stroke-linejoin:round;fill-rule:evenodd;}</style></defs><path class="cls-1" d="M48.33,79.31c20.36.06,30.2,24.71,16.08,38.91-8.45,8.81-23.69,8.83-32.14,0C18.17,104,28,79.37,48.33,79.31Zm0-5c-24.79.11-36.88,30.13-19.6,47.45,10.35,10.81,28.85,10.8,39.21,0C85.25,104.42,73.12,74.41,48.33,74.3Z"/><path class="cls-1" d="M201.64,79.31c20.35,0,30.19,24.73,16.07,38.91-8.43,8.8-23.69,8.81-32.12,0C171.48,104.05,181.3,79.37,201.64,79.31Zm0-5c-24.77.12-36.88,30.16-19.59,47.47,10.35,10.81,28.86,10.8,39.21,0C238.58,104.42,226.43,74.4,201.64,74.28Z"/><path class="cls-1" d="M201.64,137.08a29.08,29.08,0,0,0-29.16,29v20.06a2.52,2.52,0,1,0,5,0c0-5,0-15.06,0-20.06,0-21.58,26.26-31.79,41.25-17a23.73,23.73,0,0,1,7.05,17v36.47a10,10,0,0,1-10,10h-50c-4.77,0-6-6.76-3.62-10a5,5,0,0,1,3.84-2L182.85,199l16.87-1.56a12.16,12.16,0,0,0,4.24-1.09c3.39-1.49,4.64-5.18,4.49-8.56V164.59a2.52,2.52,0,1,0-5,0c0,5.79,0,17.41,0,23.19.05,3.14-.83,4.41-4.18,4.65L182.38,194l-16.86,1.55a10.35,10.35,0,0,0-7.43,4.09c-3.81,5.26-2.5,14,3.52,17a9.37,9.37,0,0,0,4.16,1h50a15.09,15.09,0,0,0,15.07-15.05V166.07A29.11,29.11,0,0,0,201.64,137.08Z"/><path class="cls-1" d="M48.33,137.08a29.07,29.07,0,0,0-29.17,29v46.28a2.51,2.51,0,0,0,2.51,2.51H39.51a2.52,2.52,0,1,0,0-5c-3.82,0-11.51,0-15.33,0,0-10.92,0-32.85,0-43.76a24.15,24.15,0,0,1,48.3,0v10.26a2.52,2.52,0,1,0,5,0V166.07A29.08,29.08,0,0,0,48.33,137.08Z"/><path class="cls-1" d="M95.53,145.93A2.49,2.49,0,0,0,93,148.09l-1.24,8.59-1.24,8.59a2.52,2.52,0,1,0,5,.71c.54-3.75,1.63-11.28,2.17-15h27l-8.16,56.6h-27l1.12-7.72c4.09-2.37,12.35-7.11,16.45-9.48,6.35-3.54,5.74-12.56.91-17.11a10.42,10.42,0,0,0-11.72-2.15l-13.22,5.84c-1.69.6-14.19,6.62-15.7,6.59-1.84.14-2.54-1.17-3.48-2.65L59,172.33l-4.9-8.56a2.51,2.51,0,1,0-4.36,2.5l4.9,8.55,4.9,8.56A9.94,9.94,0,0,0,64,187.92c2.52,1.1,5.23.61,7.86-.54l13.22-5.83,13.23-5.84a5.21,5.21,0,0,1,6.16,1.14c2.39,2.32,3.53,7.24.09,9.14l-19.5,11.26L65.58,208.5a10,10,0,0,1-13.69-3.66l-8.22-14.3-8.21-14.3a2.54,2.54,0,0,0-4.64.59,2.49,2.49,0,0,0,.27,1.93l8.21,14.29,8.21,14.28a15.12,15.12,0,0,0,20.6,5.54l8.5-4.91,8.51-4.91-.49,3.34-.48,3.35a2.51,2.51,0,0,0,2.48,2.86c8,0,24.12,0,32.12,0a2.52,2.52,0,0,0,2.48-2.16l4.46-30.81,4.45-30.81a2.53,2.53,0,0,0-2.5-2.89c-8,0-24.11,0-32.11,0Z"/><path class="cls-1" d="M94.55,37.44c15.16,0,45.66,0,60.82,0a9.15,9.15,0,0,1,9.2,9.26V79.07a9.17,9.17,0,0,1-9.2,9.27h-8.14a2.52,2.52,0,0,0-2.53,2.5c0,3.75,0,11.33,0,15.07a1.72,1.72,0,0,1-2.33,1.74,3.18,3.18,0,0,1-1.31-1.43l-4.75-8.31-4.75-8.31a2.47,2.47,0,0,0-2.17-1.26H94.56a9.16,9.16,0,0,1-9.2-9.27c0-8.06,0-24.31,0-32.37A9.14,9.14,0,0,1,94.55,37.44Zm0-5a14.29,14.29,0,0,0-14.23,14.3V79.08A14.29,14.29,0,0,0,94.56,93.37h33.37c2.19,3.83,6.58,11.52,8.76,15.35,3.57,6.48,12.84,4.72,13.05-2.8,0-3.12,0-9.42,0-12.54,1.4,0,4.22,0,5.63,0a14.31,14.31,0,0,0,14.24-14.3V46.7a14.29,14.29,0,0,0-14.24-14.29c-15.15,0-45.67,0-60.82,0Z"/></svg>