<?xml version="1.0" encoding="UTF-8"?><svg id="Layer_1" xmlns="http://www.w3.org/2000/svg" viewBox="0 0 250 250"><defs><style>.cls-1{fill:#027353;}.cls-2{fill:#cde7f7;}</style></defs><circle class="cls-2" cx="124.96" cy="125.04" r="124.5"/><g><path class="cls-1" d="M128.59,128.68h50.91c2.01,0,3.64-1.63,3.64-3.64s-1.63-3.64-3.64-3.64h-50.91c-2.01,0-3.64,1.63-3.64,3.64s1.63,3.64,3.64,3.64Z"/><path class="cls-1" d="M128.59,143.22h50.91c2.01,0,3.64-1.63,3.64-3.64s-1.63-3.64-3.64-3.64h-50.91c-2.01,0-3.64,1.63-3.64,3.64s1.63,3.64,3.64,3.64Z"/><path class="cls-1" d="M201.32,70.49H48.59c-2.01,0-3.64,1.62-3.64,3.63,0,0,0,0,0,0v101.82c0,2.01,1.62,3.64,3.63,3.64H201.32c2.01,0,3.64-1.62,3.64-3.63h0V74.13c0-2.01-1.62-3.64-3.63-3.64h0Zm-149.09,7.27H197.68v14.55H52.23v-14.55Zm145.45,94.55H52.23V99.59H197.68v72.73Z"/><path class="cls-1" d="M86.77,143.22h-16.36c-2.01,0-3.64,1.63-3.64,3.64s1.63,3.64,3.64,3.64h7.27v3.64c0,2.01,1.63,3.64,3.64,3.64s3.64-1.63,3.64-3.64v-3.64h1.82c5.02,0,9.09-4.07,9.09-9.09s-4.07-9.09-9.09-9.09h-10.91c-1,0-1.82-.81-1.82-1.82s.81-1.82,1.82-1.82h16.36c2.01,0,3.64-1.63,3.64-3.64s-1.63-3.64-3.64-3.64h-7.27v-3.64c0-2.01-1.63-3.64-3.64-3.64s-3.64,1.63-3.64,3.64v3.64h-1.82c-5.02,0-9.09,4.07-9.09,9.09s4.07,9.09,9.09,9.09h10.91c1,0,1.82,.81,1.82,1.82s-.81,1.82-1.82,1.82Z"/><path class="cls-1" d="M128.59,157.77h21.82c2.01,0,3.64-1.63,3.64-3.64s-1.63-3.64-3.64-3.64h-21.82c-2.01,0-3.64,1.63-3.64,3.64s1.63,3.64,3.64,3.64Z"/></g></svg>