<svg id="Layer_1" data-name="Layer 1" xmlns="http://www.w3.org/2000/svg" viewBox="0 0 250 250"><defs><style>.cls-1{fill:none;stroke:#333;stroke-linecap:round;stroke-linejoin:round;stroke-width:7px;}</style></defs><ellipse class="cls-1" cx="112.83" cy="110.07" rx="14.4" ry="16.8"/><path class="cls-1" d="M93.62,141.28c0-8,8.6-14.41,19.21-14.41s19.2,6.45,19.2,14.41"/><line class="cls-1" x1="151.24" y1="102.87" x2="184.85" y2="102.87"/><line class="cls-1" x1="151.24" y1="122.07" x2="184.85" y2="122.07"/><line class="cls-1" x1="151.24" y1="141.28" x2="184.85" y2="141.28"/><line class="cls-1" x1="93.62" y1="160.48" x2="184.85" y2="160.48"/><line class="cls-1" x1="93.62" y1="179.69" x2="141.63" y2="179.69"/><path class="cls-1" d="M206.11,90.81C151.21,90,161.86,100.4,161,45.68l45.13,45.13Zm0,67.38V90.81L161,45.68H117.49m-29.16,182H199.19a7,7,0,0,0,6.92-6.93v-130L161,45.68H79.28a7,7,0,0,0-6.92,6.93V220.77a7,7,0,0,0,6.92,6.93c27.51-.09,83.54.06,110.86,0"/><polyline class="cls-1" points="55.26 214.87 46.42 215.99 23.46 34.99 161.59 17.47 163.78 34.74"/></svg>