<svg id="Layer_1" data-name="Layer 1" xmlns="http://www.w3.org/2000/svg" viewBox="0 0 250 250"><defs><style>.cls-1{fill:none;stroke:#fff;stroke-linecap:round;stroke-linejoin:round;stroke-width:7px;}</style></defs><path class="cls-1" d="M172.61,160.24l-.05,59.38c0,14.77,28.5,14.56,28.34-.22l-.53-40.76-.67-72.19"/><path class="cls-1" d="M200.46,146.1c4,10.43,9.91,11.75,14.11,9.36,6.91-3.94,4.5-12.16,4.21-18.66l-2.15-47.46c-.74-16.37-85-15.15-87.76-.17-2.24,9.29-2.54,30.47-2.8,46.46-.13,7.81-3,23.78,8.88,22.54,3.43-.23,7.18-3.06,10-10.36"/><path class="cls-1" d="M145.67,106.45,145,178.64l-.53,40.76c-.16,14.78,28.1,15,28.09.22"/><path class="cls-1" d="M172,23.91a21.07,21.07,0,1,1-10.48,2.85A20.68,20.68,0,0,1,172,23.91Z"/><line class="cls-1" x1="30.58" y1="99.33" x2="98.55" y2="99.33"/><polyline class="cls-1" points="73.81 72.03 101.11 99.33 73.81 126.63"/></svg>