<svg id="Layer_1" data-name="Layer 1" xmlns="http://www.w3.org/2000/svg" viewBox="0 0 250 250"><defs><style>.cls-1{fill:none;stroke:#fff;stroke-linecap:round;stroke-linejoin:round;stroke-width:7px;}</style></defs><path class="cls-1" d="M69.21,155l0,59.38c0,14.76,28.5,14.56,28.34-.23L97,173.4l-.67-72.19"/><path class="cls-1" d="M97.06,140.86c4,10.43,9.91,11.74,14.11,9.35,6.91-3.93,4.5-12.16,4.21-18.66l-2.15-47.46c-.74-16.36-85-15.15-87.77-.16-2.23,9.28-2.53,30.47-2.79,46.46-.13,7.81-3,23.77,8.87,22.53,3.44-.22,7.18-3.06,10-10.35"/><path class="cls-1" d="M42.26,101.21l-.67,72.19-.53,40.75c-.15,14.79,28.11,15,28.1.23"/><path class="cls-1" d="M68.64,18.67a21.06,21.06,0,1,1-10.49,2.85,20.68,20.68,0,0,1,10.49-2.85Z"/><path class="cls-1" d="M227.13,138.22,217.05,148m-11.94,11.55-23.88,23.11m0-48.71a48.71,48.71,0,1,1-48.71,48.7,48.7,48.7,0,0,1,48.71-48.7Zm0,0v-18.2m0,31.51v5.48m-35.4,29.92h5.48M181.23,218v-5.48m35.39-29.92h-5.48m-29.91-4.23a4.24,4.24,0,1,1-4.24,4.24,4.23,4.23,0,0,1,4.24-4.24Zm13.17-62.67H168.06"/></svg>