<svg id="Layer_1" data-name="Layer 1" xmlns="http://www.w3.org/2000/svg" viewBox="0 0 250 250"><defs><style>.cls-1{fill:none;stroke:#333;stroke-linecap:round;stroke-linejoin:round;stroke-width:7px;}</style></defs><path class="cls-1" d="M70.84,220a42.15,42.15,0,0,1,24.69-5.17l58.33,7.84a4.46,4.46,0,0,0,3.15-.76l73.9-51.48a4.49,4.49,0,0,0,1.31-5.93h0a17.81,17.81,0,0,0-23.31-7l-52.34,26"/><path class="cls-1" d="M115.25,186.9l29.58,2.9a12,12,0,0,0,13.06-10.73h0A11.94,11.94,0,0,0,147.16,166L122,163.54A22,22,0,0,1,113.7,161L111,159.55a46.82,46.82,0,0,0-44.53.14l-15,7.23"/><polyline class="cls-1" points="32.83 166.72 48.71 160.52 75.13 228.2 57.57 235.06"/><line class="cls-1" x1="37.95" y1="178.49" x2="44.6" y2="175.9"/><line class="cls-1" x1="212.21" y1="159.46" x2="212.21" y2="159.46"/><rect class="cls-1" x="71.43" y="36.39" width="32.41" height="105.79"/><path class="cls-1" d="M93.6,123a6,6,0,1,1-6-6A6,6,0,0,1,93.6,123Z"/><path class="cls-1" d="M93.6,55.58a6,6,0,1,1-6-6A6,6,0,0,1,93.6,55.58Z"/><line class="cls-1" x1="93.6" y1="84.32" x2="81.67" y2="84.32"/><line class="cls-1" x1="93.6" y1="94.24" x2="81.67" y2="94.24"/><circle class="cls-1" cx="120.05" cy="122.99" r="5.97"/><circle class="cls-1" cx="120.05" cy="55.58" r="5.97"/><rect class="cls-1" x="103.84" y="36.39" width="32.41" height="105.79"/><line class="cls-1" x1="126.02" y1="94.24" x2="114.08" y2="94.24"/><line class="cls-1" x1="126.02" y1="84.32" x2="114.08" y2="84.32"/><path class="cls-1" d="M179.8,118.35a6,6,0,1,1-7.2-4.41A6,6,0,0,1,179.8,118.35Z"/><path class="cls-1" d="M164.09,52.8a6,6,0,1,1-7.19-4.42A6,6,0,0,1,164.09,52.8Z"/><rect class="cls-1" x="149.93" y="34.07" width="32.41" height="105.79" transform="translate(-15.69 41.09) rotate(-13.47)"/><line class="cls-1" x1="173.1" y1="90.4" x2="161.49" y2="93.18"/><line class="cls-1" x1="170.79" y1="80.75" x2="159.18" y2="83.53"/></svg>