<?xml version="1.0" encoding="UTF-8"?><svg id="Layer_1" xmlns="http://www.w3.org/2000/svg" viewBox="0 0 250 250"><defs><style>.cls-1{letter-spacing:-.05em;}.cls-2{letter-spacing:0em;}.cls-3{letter-spacing:.02em;}.cls-4{letter-spacing:0em;}.cls-5{letter-spacing:.02em;}.cls-6{letter-spacing:0em;}.cls-7{fill:#cde7f7;}.cls-8{letter-spacing:0em;}.cls-9{letter-spacing:0em;}.cls-10{letter-spacing:0em;}.cls-11{letter-spacing:-.01em;}.cls-12{letter-spacing:0em;}.cls-13{letter-spacing:0em;}.cls-14{letter-spacing:0em;}.cls-15{letter-spacing:-.01em;}.cls-16{letter-spacing:-.05em;}.cls-17{letter-spacing:-.08em;}.cls-18{letter-spacing:0em;}.cls-19{letter-spacing:0em;}.cls-20{letter-spacing:0em;}.cls-21{letter-spacing:0em;}.cls-22{letter-spacing:-.01em;}.cls-23{letter-spacing:-.03em;}.cls-24{fill:#c0e1f5;font-family:MyriadPro-Regular, 'Myriad Pro';font-size:21px;}.cls-25{fill:none;stroke:#027353;stroke-linecap:round;stroke-linejoin:round;stroke-width:6px;}.cls-26{letter-spacing:.02em;}</style></defs><circle class="cls-7" cx="124.96" cy="125.04" r="124.5"/><text class="cls-24" transform="translate(-261.29 -213.48)"><tspan class="cls-9" x="0" y="0">M</tspan><tspan class="cls-20" x="17.01" y="0">anage</tspan><tspan class="cls-1" x="71.17" y="0"> </tspan><tspan class="cls-17" x="74.65" y="0">Y</tspan><tspan x="84.42" y="0">our </tspan><tspan class="cls-9" x="118.84" y="0">M</tspan><tspan x="135.85" y="0">oney and </tspan><tspan class="cls-4" x="221.97" y="0">B</tspan><tspan class="cls-20" x="233.43" y="0">enefits</tspan><tspan class="cls-4" x="0" y="25.2">D</tspan><tspan class="cls-20" x="14.07" y="25.2">e</tspan><tspan class="cls-19" x="24.59" y="25.2">v</tspan><tspan class="cls-20" x="34.48" y="25.2">elop</tspan><tspan class="cls-1" x="73.44" y="25.2"> </tspan><tspan class="cls-17" x="76.92" y="25.2">Y</tspan><tspan x="86.69" y="25.2">our </tspan><tspan class="cls-12" x="121.1" y="25.2">C</tspan><tspan class="cls-20" x="133.14" y="25.2">a</tspan><tspan class="cls-19" x="143.26" y="25.2">r</tspan><tspan x="149.92" y="25.2">eer</tspan><tspan class="cls-10" x="0" y="50.4">I</tspan><tspan class="cls-20" x="5.23" y="50.4">mp</tspan><tspan class="cls-19" x="34.69" y="50.4">r</tspan><tspan class="cls-12" x="41.35" y="50.4">o</tspan><tspan class="cls-18" x="52.73" y="50.4">v</tspan><tspan x="62.62" y="50.4">e</tspan><tspan class="cls-1" x="73.14" y="50.4"> </tspan><tspan class="cls-17" x="76.63" y="50.4">Y</tspan><tspan x="86.39" y="50.4">our Health</tspan><tspan class="cls-23" x="0" y="75.6">F</tspan><tspan x="9.68" y="75.6">ind Child and </tspan><tspan class="cls-16" x="130.62" y="75.6">F</tspan><tspan x="139.9" y="75.6">amily </tspan><tspan class="cls-14" x="191.75" y="75.6">C</tspan><tspan x="203.78" y="75.6">a</tspan><tspan class="cls-18" x="213.9" y="75.6">r</tspan><tspan x="220.56" y="75.6">e</tspan><tspan class="cls-21" x="0" y="100.8">G</tspan><tspan class="cls-20" x="13.67" y="100.8">et </tspan><tspan class="cls-11" x="35.59" y="100.8">L</tspan><tspan x="45.21" y="100.8">egal Help and </tspan><tspan class="cls-10" x="170.64" y="100.8">I</tspan><tspan x="175.87" y="100.8">n</tspan><tspan class="cls-22" x="187.53" y="100.8">f</tspan><tspan class="cls-13" x="193.39" y="100.8">o</tspan><tspan class="cls-26" x="0" y="126">O</tspan><tspan class="cls-13" x="14.83" y="126">ther Helpful </tspan><tspan class="cls-9" x="123.5" y="126">S</tspan><tspan x="133.98" y="126">e</tspan><tspan class="cls-3" x="144.5" y="126">r</tspan><tspan x="151.89" y="126">vi</tspan><tspan class="cls-8" x="166.9" y="126">c</tspan><tspan class="cls-20" x="176.19" y="126">es</tspan><tspan class="cls-2" x="0" y="151.2">A</tspan><tspan x="12.79" y="151.2">b</tspan><tspan class="cls-12" x="24.74" y="151.2">o</tspan><tspan class="cls-18" x="36.12" y="151.2">v</tspan><tspan x="46.01" y="151.2">e </tspan><tspan class="cls-5" x="60.98" y="151.2">O</tspan><tspan x="75.79" y="151.2">ffi</tspan><tspan class="cls-6" x="92.9" y="151.2">c</tspan><tspan class="cls-20" x="102.19" y="151.2">e</tspan><tspan class="cls-15" x="112.71" y="151.2">s</tspan><tspan x="120.79" y="151.2">, </tspan><tspan class="cls-12" x="129.59" y="151.2">b</tspan><tspan x="141.39" y="151.2">y Name</tspan></text><g><path class="cls-25" d="M112.14,129.72v14.97l-6.45,21.9c-3.94,13.39-19.78,9.73-18.98-1.29l8.01-20.13,.23-17.83,.33-25.72-10.61,20.42c-4.72,12.42-14.96,4.34-12.81-1.32l12.88-29.58c3.27-12.52,15.58-5.81,21.46-5.53,13.74,3.22,26.3-8.09,36.58-13.86,9.21-5.17,16.95,7.02,6.77,13.11l-24.46,15.47,.13,10.45,17.52,.88c3.97,.2,7.51,5.31,7.51,9.27v27.49c0,10.83-17.69,8.79-17.69,0l.26-17.62-20.66-1.09h0Z"/><path class="cls-25" d="M112.77,44.62c8.61,0,15.6,6.98,15.6,15.6s-6.98,15.6-15.6,15.6-15.6-6.98-15.6-15.6,6.98-15.6,15.6-15.6h0Z"/><polyline class="cls-25" points="85.75 205.46 85.46 185.43 125.24 185.66 124.96 165.62 164.74 165.85 164.45 145.82 204.23 146.05"/><line class="cls-25" x1="125.25" y1="178.89" x2="125.25" y2="205.46"/><line class="cls-25" x1="164.74" y1="159.6" x2="164.74" y2="205.46"/><polyline class="cls-25" points="204.23 146.05 204.23 205.46 45.68 205.46"/></g></svg>