<svg id="Layer_1" data-name="Layer 1" xmlns="http://www.w3.org/2000/svg" viewBox="0 0 250 250"><defs><style>.cls-1{fill:none;stroke:#333;stroke-linecap:round;stroke-linejoin:round;stroke-width:7px;}</style></defs><polyline class="cls-1" points="172.44 130.2 182.42 143.22 202.8 116.85"/><path class="cls-1" d="M168.92,102.27h39.26a8.72,8.72,0,0,1,8.7,8.7v39.26a8.72,8.72,0,0,1-8.7,8.7H168.92a8.72,8.72,0,0,1-8.7-8.7V111a8.72,8.72,0,0,1,8.7-8.7Zm-83.7,62,0,60.68c0,15.09,29.11,14.88,28.95-.23l-.54-41.65-.69-73.77m.79,40.52c4,10.66,10.12,12,14.41,9.56,7.06-4,4.6-12.43,4.3-19.07l-2.19-48.5c-.76-16.72-86.9-15.48-89.69-.16-2.28,9.48-2.59,31.13-2.86,47.47-.13,8-3.09,24.3,9.07,23,3.51-.23,7.34-3.13,10.18-10.59m.78-42.26L57,183.11l-.54,41.65c-.16,15.11,28.73,15.33,28.72.23M84.64,25a21.53,21.53,0,1,1-10.71,2.91A21.14,21.14,0,0,1,84.64,25Z"/><polyline class="cls-1" points="173.46 52.93 183.44 65.95 203.82 39.58"/><path class="cls-1" d="M169.94,25H209.2a8.73,8.73,0,0,1,8.7,8.7V73a8.73,8.73,0,0,1-8.7,8.71H169.94A8.74,8.74,0,0,1,161.23,73V33.7a8.73,8.73,0,0,1,8.71-8.7Z"/><polyline class="cls-1" points="171.43 207.47 181.41 220.49 201.78 194.12"/><path class="cls-1" d="M167.9,179.54h39.26a8.73,8.73,0,0,1,8.71,8.7V227.5a8.74,8.74,0,0,1-8.71,8.71H167.9a8.73,8.73,0,0,1-8.7-8.71V188.24a8.73,8.73,0,0,1,8.7-8.7Z"/></svg>