<svg id="Layer_1" data-name="Layer 1" xmlns="http://www.w3.org/2000/svg" viewBox="0 0 250 250"><defs><style>.cls-1{fill:#fff;}</style></defs><path class="cls-1" d="M148.36,71.11c-4.17-3.34-12-4.88-12.9-5a3,3,0,0,0-2.68.86L125,75.05,117,66.91a3,3,0,0,0-2.61-.85c-.89.15-8.8,1.56-12.91,5.13a19,19,0,0,0-6.59,13.86V102.4a3,3,0,0,0,3,3h54.22a3,3,0,0,0,3-3V85.07A17.3,17.3,0,0,0,148.36,71.11Zm.79,28.33h-7.63V87.55a3,3,0,0,0-5.92,0V99.44H114.4V87.55a3,3,0,0,0-5.92,0V99.44h-7.63V85.05a12.91,12.91,0,0,1,4.54-9.4c2-1.7,6-2.89,8.53-3.46l9,9.18a3,3,0,0,0,2.12.89,3.11,3.11,0,0,0,2.13-.91l8.78-9.13c2.53.62,6.71,1.87,8.76,3.51a11.28,11.28,0,0,1,4.48,9.34Z"/><path class="cls-1" d="M125,63.64A16.61,16.61,0,1,0,108.37,47,16.63,16.63,0,0,0,125,63.64Zm0-27.3A10.69,10.69,0,1,1,114.29,47,10.7,10.7,0,0,1,125,36.34Z"/><path class="cls-1" d="M125,177.86a16.61,16.61,0,1,0-16.61-16.61A16.63,16.63,0,0,0,125,177.86Zm0-27.31a10.7,10.7,0,1,1-10.69,10.7A10.71,10.71,0,0,1,125,150.55Z"/><path class="cls-1" d="M70.77,177.86a16.61,16.61,0,1,0-16.61-16.61A16.63,16.63,0,0,0,70.77,177.86Zm0-27.31a10.7,10.7,0,1,1-10.7,10.7A10.71,10.71,0,0,1,70.77,150.55Z"/><path class="cls-1" d="M202.58,185.33c-4.18-3.34-12-4.87-12.9-5a3,3,0,0,0-2.68.86l-7.8,8.12-7.95-8.13a3,3,0,0,0-2.6-.86c-.89.15-8.8,1.56-12.92,5.13a18.91,18.91,0,0,0-3.52,4.11,18.32,18.32,0,0,0-3.85-4.19c-4.17-3.34-12-4.87-12.9-5a3,3,0,0,0-2.68.86l-7.8,8.12L117,181.14a3,3,0,0,0-2.61-.86c-.89.15-8.8,1.56-12.91,5.13a18.88,18.88,0,0,0-3.53,4.1,18.43,18.43,0,0,0-3.84-4.18c-4.18-3.34-12-4.87-12.91-5a3,3,0,0,0-2.67.86l-7.81,8.12-7.94-8.13a3,3,0,0,0-2.6-.86c-.89.15-8.81,1.56-12.92,5.13a19,19,0,0,0-6.58,13.86v17.35a3,3,0,0,0,3,3H206.33a3,3,0,0,0,2.95-3V199.29A17.29,17.29,0,0,0,202.58,185.33Zm-156,13.94a12.9,12.9,0,0,1,4.55-9.4c2-1.7,6-2.89,8.53-3.45l9,9.17a2.94,2.94,0,0,0,2.11.89h0a3,3,0,0,0,2.13-.91l8.77-9.13c2.57.62,6.7,1.86,8.76,3.51a11.28,11.28,0,0,1,4.48,9.34v14.38H87.3v-11.9a3,3,0,1,0-5.92,0v11.9H60.18v-11.9a3,3,0,0,0-5.92,0v11.9H46.63Zm54.22,0v0a12.9,12.9,0,0,1,4.55-9.4c2-1.7,6-2.89,8.52-3.45l9,9.17a3,3,0,0,0,2.12.89h0a2.93,2.93,0,0,0,2.12-.91l8.78-9.13c2.56.62,6.69,1.86,8.76,3.51a11.28,11.28,0,0,1,4.48,9.34v14.38h-7.63v-11.9a3,3,0,0,0-5.92,0v11.9H114.4v-11.9a3,3,0,0,0-5.92,0v11.9h-7.63Zm102.52,14.38h-7.64v-11.9a3,3,0,1,0-5.91,0v11.9H168.61v-11.9a3,3,0,1,0-5.91,0v11.9h-7.63v-14.4a12.91,12.91,0,0,1,4.54-9.4c2-1.7,6-2.89,8.53-3.45l9,9.17a3,3,0,0,0,2.12.89h0a2.93,2.93,0,0,0,2.12-.91l8.77-9.13c2.57.62,6.7,1.86,8.77,3.51a11.31,11.31,0,0,1,4.48,9.34Z"/><path class="cls-1" d="M179.2,177.86a16.61,16.61,0,1,0-16.61-16.61A16.63,16.63,0,0,0,179.2,177.86Zm0-27.31a10.7,10.7,0,1,1-10.69,10.7A10.71,10.71,0,0,1,179.2,150.55Z"/><path class="cls-1" d="M179.48,122.18H127.94V113.6a3,3,0,0,0-5.91,0v8.58H70.78a3,3,0,0,0-3,3v11.33a3,3,0,1,0,5.92,0V128.1H122v8.37a3,3,0,1,0,5.91,0V128.1h48.58v8.37a3,3,0,0,0,5.92,0V125.14A3,3,0,0,0,179.48,122.18Z"/></svg>