<svg xmlns="http://www.w3.org/2000/svg" viewBox="0 0 1850 650"><defs><style>.cls-1{fill:#fff;}.cls-2{fill:none;}</style></defs><g id="White"><g id="USHR"><path class="cls-1" d="M758,604.65c-1.41,8.35-7,16.2-19.54,16.2-15.51,0-21.19-11.45-21.19-26.08,0-13.92,7-25.79,21.59-25.79,12.92,0,18.22,8.13,18.87,16.19h-8.76c-1.11-4.75-3.28-8.95-10.41-8.95-8.93,0-12.12,8.9-12.12,18.51,0,9.95,2.85,18.93,12.22,18.93,7,0,9.39-4.59,10.55-9Z"/><path class="cls-1" d="M765.85,569.66h8.9V590h20.19V569.66h8.93v50.45h-8.93V597.48H774.75v22.63h-8.9Z"/><path class="cls-1" d="M824.58,569.66v50.45h-8.9V569.66Z"/><path class="cls-1" d="M867.34,597.49H845.15v15.25h24.47l-1.11,7.37H836.45V569.66h31.86v7.42H845.15v13h22.19Z"/><path class="cls-1" d="M877.26,569.66h31.38v7.42H886v14.14h21.25v7.32H886v21.57h-8.74Z"/><path class="cls-1" d="M943.67,607l-4,13.13h-8.79c1.64-4.89,13.92-44.89,15.76-50.45h11.46l16.53,50.45h-9.4L961,607Zm15.45-7.45c-3.52-11.17-5.88-18.49-7-23h-.1c-1.28,5.73-3.68,13.57-6.61,23Z"/><path class="cls-1" d="M981.18,569.66h17.17c14.43,0,23.32,9,23.32,24.11,0,16.44-8.75,26.34-23.88,26.34H981.18Zm9,43.36h7.5c9.81,0,14.82-7.09,14.82-19.08,0-10.38-5.11-17.08-14.75-17.08h-7.57Z"/><path class="cls-1" d="M1071.38,600.37c0-8.83.12-18.88.35-24.43h-.34c-2.29,10-8.33,29.82-13,44.17h-7.83c-3.49-12.06-9.67-34.25-11.87-44.29h-.35c.41,5.87.61,16.91.61,25.59v18.7h-8.23V569.66h13.33c4.18,12.86,9.46,31.48,11,38.89h.1c1-6,7.63-25.9,12-38.89H1080v50.45h-8.61Z"/><path class="cls-1" d="M1100.68,569.66v50.45h-8.9V569.66Z"/><path class="cls-1" d="M1112.55,620.11V569.66H1124c16.73,32.48,19.26,37.41,20.08,39.74h.13c-.49-6.24-.57-14.44-.57-22.66V569.66h8.21v50.45H1141c-17.94-35.51-19.67-39.24-20.53-41.21h-.07c.37,6.43.37,15.05.37,24.08v17.13Z"/><path class="cls-1" d="M1172.61,569.66v50.45h-8.9V569.66Z"/><path class="cls-1" d="M1189.4,605.44c.82,5.26,4.3,8.3,9.89,8.3,5.85,0,8.53-2.7,8.53-7,0-4.93-2.72-7-10.55-9.28C1186,594.26,1182,590.3,1182,583c0-8.89,7-14,16.53-14,11.67,0,16.63,6.33,17.19,14.1h-8.77c-.67-4.21-2.87-7.19-8.54-7.19-5,0-7.47,2.37-7.47,6.26,0,4.1,2.56,5.44,10,7.64,12.73,3.77,16,8.78,16,15.93,0,8.28-5.59,15-18,15-10.82,0-17.64-5.58-18.29-15.29Z"/><path class="cls-1" d="M1234.06,577.11h-14v-7.45h37.08v7.45H1243v43h-9Z"/><path class="cls-1" d="M1272.51,598.55v21.56h-8.77V569.66h19.63c9.31,0,15.93,4.62,15.93,13.42,0,7-3.87,10.31-8,11.8,5.1,1.85,7,5.88,7,12.34v1.19a80.28,80.28,0,0,0,.68,11.7h-8.63c-.71-2.09-.91-5.91-.91-11.8V607.1c0-6.26-2.27-8.55-9.45-8.55Zm0-7.15h8.24c5.46,0,9.66-1.5,9.66-7.59,0-4.92-3.45-7-8.22-7h-9.68Z"/><path class="cls-1" d="M1317.24,607l-4,13.13h-8.79c1.65-4.89,13.92-44.89,15.76-50.45h11.46l16.53,50.45h-9.39L1334.54,607Zm15.45-7.45c-3.52-11.17-5.88-18.49-7-23h-.09c-1.29,5.73-3.69,13.57-6.62,23Z"/><path class="cls-1" d="M1358.24,577.11h-14v-7.45h37.09v7.45h-14.07v43h-9Z"/><path class="cls-1" d="M1396.82,569.66v50.45h-8.9V569.66Z"/><path class="cls-1" d="M1419.61,620.11l-16.41-50.45h9.55l7.12,23.59c2.06,6.8,4.14,13.73,5.13,18.44h.15c1-4.36,3.32-11.68,5.4-18.26l7.49-23.77h9.15l-17,50.45Z"/><path class="cls-1" d="M1484.13,597.49h-22.19v15.25h24.46l-1.1,7.37h-32.06V569.66h31.86v7.42h-23.16v13h22.19Z"/><path class="cls-1" d="M1554.08,594.62c0,14.52-6.92,26.23-22.43,26.23-15,0-21.78-11.68-21.78-26.28,0-12.7,6.82-25.59,22.45-25.59C1547.11,569,1554.08,580.72,1554.08,594.62Zm-35-.07c0,10.67,4.28,19.11,13,19.11,9.31,0,12.9-8,12.9-19,0-10.06-3.6-18.48-13-18.48C1522.94,576.17,1519.09,584.34,1519.09,594.55Z"/><path class="cls-1" d="M1563.4,569.66h31.37v7.42h-22.63v14.14h21.25v7.32h-21.25v21.57h-8.74Z"/><path class="cls-1" d="M1602.22,569.66h31.38v7.42H1611v14.14h21.24v7.32H1611v21.57h-8.75Z"/><path class="cls-1" d="M1650,569.66v50.45h-8.9V569.66Z"/><path class="cls-1" d="M1700.15,604.65c-1.41,8.35-7,16.2-19.54,16.2-15.51,0-21.19-11.45-21.19-26.08,0-13.92,7-25.79,21.59-25.79,12.92,0,18.22,8.13,18.87,16.19h-8.76c-1.1-4.75-3.28-8.95-10.41-8.95-8.93,0-12.12,8.9-12.12,18.51,0,9.95,2.84,18.93,12.22,18.93,7,0,9.39-4.59,10.56-9Z"/><path class="cls-1" d="M1738.94,597.49h-22.19v15.25h24.46l-1.1,7.37h-32.06V569.66h31.86v7.42h-23.16v13h22.19Z"/><path class="cls-1" d="M1757.63,598.55v21.56h-8.77V569.66h19.62c9.31,0,15.93,4.62,15.93,13.42,0,7-3.86,10.31-8,11.8,5.09,1.85,7,5.88,7,12.34v1.19a78.89,78.89,0,0,0,.68,11.7h-8.64c-.71-2.09-.91-5.91-.91-11.8V607.1c0-6.26-2.27-8.55-9.45-8.55Zm0-7.15h8.23c5.47,0,9.67-1.5,9.67-7.59,0-4.92-3.46-7-8.23-7h-9.67Z"/><path class="cls-1" d="M1040.12,398c-14.39,66.77-64.73,115.4-154.37,115.4-113.49,0-167.15-80.32-167.15-182.14,0-98.12,55.37-186,170.87-186,95.31,0,141.51,55.95,150.25,115.78H962.33c-7.47-27.59-26.68-55.09-75.33-55.09-63.83,0-88.47,57.41-88.47,122.55,0,60.51,21.38,124.26,90.55,124.26,50.5,0,66.44-33.83,73.19-54.71Z"/><path class="cls-1" d="M1172.55,425.67l-27.92,82.67h-76.09l121.54-357.93h97.22l126.79,357.93h-81.36l-29.42-82.67Zm114.11-63.44c-25.42-75.54-41.62-123.79-50.25-156h-.52c-8.83,35.28-26.71,91.43-47.07,156Z"/><path class="cls-1" d="M1788.89,328.15c0,99.62-59.81,185.39-176.06,185.39-112.33,0-171.12-81.64-171.12-184.16,0-104.17,64.94-184.16,176.12-184.16C1722.54,145.22,1788.89,218.59,1788.89,328.15Zm-267.25-.33c0,69.88,30.66,122.74,94.12,122.74,68.83,0,93.21-57.65,93.21-121.43,0-67.71-27.74-120.93-94.46-120.93C1549.85,208.2,1521.64,258.13,1521.64,327.82Z"/><path class="cls-1" d="M766.05,43.06c.93-4.58-.47-4.89-5.75-5.51l.47-2.33h17l-.55,2.33c-5.74.7-6.75,1.17-7.68,5.51l-6,28.1c-2.79,13.11-11.1,19.32-22.35,19.32-13,0-21.27-7.83-18.32-21.88l5.43-25.54c1-4.58-.31-4.89-5.35-5.51l.46-2.33h22.28l-.54,2.33c-5.74.7-6.76,1.17-7.69,5.51L732,69c-2.09,9.94,1.94,16.93,11.18,16.93,9.54,0,14.75-4.74,17.15-16.15Z"/><path class="cls-1" d="M778.14,78.53a6,6,0,1,1-6,6A5.93,5.93,0,0,1,778.14,78.53Z"/><path class="cls-1" d="M810.65,90.48c-8.3,0-14.43-3.18-17.15-5.81l2.1-13H798c.39,10.48,5,16.07,13.2,16.07,6.91,0,11.49-4,11.49-10.71,0-5.59-3-8.07-10.56-11.72-7-3.42-11.1-7.53-11.1-14.28,0-9.7,7.53-16.54,19.25-16.54a24.25,24.25,0,0,1,15.06,4.82l-2.25,11.48h-2.25c-.08-8.69-3.26-13.5-11.11-13.5-6.44,0-10.47,4.42-10.47,10.32,0,4.89,2.56,7.3,8.53,10.17,7.54,3.49,13.51,7.76,13.51,15.37C831.3,84.2,821.44,90.48,810.65,90.48Z"/><path class="cls-1" d="M843.55,78.53a6,6,0,1,1-6,6A5.93,5.93,0,0,1,843.55,78.53Z"/><path class="cls-1" d="M892.05,43.06c1-4.58-.31-4.89-5.35-5.51l.46-2.33h22.28l-.55,2.33c-5.74.7-6.75,1.17-7.68,5.51l-3.65,17H923l3.65-17c1-4.58-.31-4.89-5.36-5.51l.47-2.33h22.27l-.54,2.33c-5.74.7-6.75,1.17-7.68,5.51l-8.31,38.81c-1,4.58.31,4.89,5.43,5.51l-.54,2.33H910.14l.54-2.33c5.74-.7,6.75-1.16,7.68-5.51l4-18.63H896.86l-4,18.63c-1,4.58.31,4.89,5.44,5.51l-.55,2.33H875.52l.54-2.33c5.74-.7,6.83-1.16,7.68-5.51Z"/><path class="cls-1" d="M957.15,90.48c-8.15,0-13.27-5.35-13.27-14.66,0-12.81,9.62-27.56,22.51-27.56,8.15,0,13.19,5.36,13.19,14.67C979.58,75.74,970,90.48,957.15,90.48Zm.62-2.4c7.45,0,13.43-16.3,13.43-27.17,0-5.82-1.4-10.24-5.51-10.24-7.37,0-13.43,16.3-13.43,27.16C952.26,83.66,953.66,88.08,957.77,88.08Z"/><path class="cls-1" d="M1017.68,49.5l8.92-.62-7.68,31.36a18,18,0,0,0-.7,3.34c0,.77.39,1.16,1.09,1.16,1.47,0,3.49-1.63,6.83-5.74l1.32,1c-4.89,7.14-8.07,10.47-12.34,10.47-3.42,0-5.21-2.24-5.21-5.74,0-2.25,1.48-8.46,3-13.66-4,8.62-12.11,19.4-19.33,19.4-4,0-6.21-2.79-6.21-6.36A16.41,16.41,0,0,1,988,80l6.36-24.69-4.57-2.56L990,51.6l13.5-3.34h1.17l-8,31.13a13.91,13.91,0,0,0-.63,3.49A1.84,1.84,0,0,0,998,85c4.5,0,13.74-11.09,17.23-25.45Z"/><path class="cls-1" d="M1053.21,82.1c0-5.82-14.44-12.65-14.44-21.65,0-6.68,6-12.19,14-12.19,6,0,10,2.56,10,6.83,0,2.33-2.18,3.88-4,4.58h-.38c-1.56-4.66-4.5-8.46-8.93-8.46-3.18,0-5,2-5,5,0,5.13,14.74,12.89,14.74,21.43,0,7.76-6.75,12.8-14.36,12.8-7.29,0-12.18-3.64-12.18-8.45a6,6,0,0,1,3.88-5.51h.46c1.48,6.51,5.13,11,10.41,11C1051.19,87.54,1053.21,85.6,1053.21,82.1Z"/><path class="cls-1" d="M1077.42,71.7c-.08.93-.16,1.94-.16,2.88,0,7,3,10.94,8.07,10.94,4.43,0,8.08-2.56,11.88-7.38l1.48,1.17c-5,7.29-10.25,11.17-17.08,11.17-8,0-12.81-5.74-12.81-14.36,0-13.58,10.56-27.86,23.13-27.86,6.68,0,9.7,3.57,9.7,7.84C1101.63,65.88,1089.84,69.22,1077.42,71.7Zm.23-1.86c11.18-2.64,16.77-6.91,16.77-14.52,0-2.48-1.09-4.5-3.81-4.5C1084.4,50.82,1079.05,60.45,1077.65,69.84Z"/><path class="cls-1" d="M1138.64,90.48c-8.15,0-13.28-5.35-13.28-14.66,0-12.81,9.63-27.56,22.51-27.56,8.15,0,13.2,5.36,13.2,14.67C1161.07,75.74,1151.52,90.48,1138.64,90.48Zm.62-2.4c7.45,0,13.42-16.3,13.42-27.17,0-5.82-1.39-10.24-5.51-10.24-7.37,0-13.42,16.3-13.42,27.16C1133.75,83.66,1135.14,88.08,1139.26,88.08Z"/><path class="cls-1" d="M1169.83,51l6.29-1.48c2.48-11.56,9-20.57,18.24-20.57,5,0,8.38,2.26,8.38,6.06,0,2.48-1.79,4.27-4.5,5h-2c.15-4.27-.7-8.54-4-8.54-3.64,0-6.28,6.67-7.14,18.47h8.85l-.77,3.26h-8.54l-5.44,23.75c-4.81,21.5-10.47,29.11-19.56,29.11-4.34,0-7.53-1.94-7.53-5.2,0-3,2.34-4.5,4.66-4.89h1.17c.23,4.58,1.78,7.61,4.11,7.61,2.72,0,4.35-2.26,7.45-18.79l5.9-31.59h-6Z"/><path class="cls-1" d="M1227.1,81.87c-1,4.58.3,4.89,5.35,5.51l-.47,2.33h-22.27l.54-2.33c5.75-.7,6.83-1.16,7.69-5.51l8.3-38.81c1-4.58-.31-4.89-5.35-5.51l.46-2.33H1244c12.34,0,16.76,6.06,16.76,12.89,0,10.55-10.63,15.52-16.69,16.69l8.85,16.06c2.64,4.58,4.58,6.37,8.77,6.52l-.46,2.33h-12.42c-1.94-1.55-3.34-4-5-7.22l-8.23-16.3h-5.12Zm9.31-43.78-5.36,25.15h3.81c9.62,0,16.38-5.05,16.38-15.06,0-5.82-3-10.09-10.56-10.09Z"/><path class="cls-1" d="M1277.38,71.7c-.08.93-.16,1.94-.16,2.88,0,7,3,10.94,8.07,10.94,4.43,0,8.08-2.56,11.88-7.38l1.48,1.17c-5,7.29-10.25,11.17-17.08,11.17-8,0-12.81-5.74-12.81-14.36,0-13.58,10.56-27.86,23.13-27.86,6.68,0,9.7,3.57,9.7,7.84C1301.59,65.88,1289.8,69.22,1277.38,71.7Zm.23-1.86c11.18-2.64,16.77-6.91,16.77-14.52,0-2.48-1.09-4.5-3.81-4.5C1284.36,50.82,1279,60.45,1277.61,69.84Z"/><path class="cls-1" d="M1320.21,67.74c4.5-9.78,12.5-19.48,19.09-19.48,5.36,0,8.47,4.27,8.47,11.49,0,16.37-13.12,30.73-24.84,30.73-3.42,0-5.9-1.16-7.45-3l-3,12.11a7.33,7.33,0,0,0-.39,1.93c0,1.79,1.55,2.34,6.91,2.41l-.47,2.26h-21.19l.47-2.26c4-.23,5.28-.7,6-3.64l11.25-44.95-4.57-2.56.23-1.16,13.43-3.34h1.16Zm-4,16.23a6.24,6.24,0,0,0,5.82,3.88c9,0,16.92-15.22,17-27.17,0-3.88-.93-6.52-3.57-6.52C1329.68,54.16,1320.05,66.89,1316.25,84Z"/><path class="cls-1" d="M1369.48,62.08,1366.14,72c7.14-14.75,12.26-23.75,17.7-23.75,2.79,0,4.35,1.94,4.35,4.58,0,3.57-2.26,5.82-5.44,7.3h-.62c0-1.79-.39-3.34-2.4-3.34-4.66,0-12.73,13.19-17,32.91h-8.47l8.62-34.39-4.58-2.56.23-1.16L1372,48.26h1.16Z"/><path class="cls-1" d="M1398.73,71.7c-.08.93-.15,1.94-.15,2.88,0,7,3,10.94,8.07,10.94,4.42,0,8.07-2.56,11.87-7.38l1.48,1.17c-5,7.29-10.25,11.17-17.08,11.17-8,0-12.8-5.74-12.8-14.36,0-13.58,10.55-27.86,23.13-27.86,6.67,0,9.7,3.57,9.7,7.84C1423,65.88,1411.15,69.22,1398.73,71.7Zm.23-1.86c11.18-2.64,16.77-6.91,16.77-14.52,0-2.48-1.09-4.5-3.8-4.5C1405.72,50.82,1400.36,60.45,1399,69.84Z"/><path class="cls-1" d="M1447.08,82.1c0-5.82-14.44-12.65-14.44-21.65,0-6.68,6-12.19,14-12.19,6,0,10,2.56,10,6.83,0,2.33-2.18,3.88-4,4.58h-.38c-1.56-4.66-4.5-8.46-8.93-8.46-3.18,0-5,2-5,5,0,5.13,14.75,12.89,14.75,21.43,0,7.76-6.75,12.8-14.36,12.8-7.29,0-12.19-3.64-12.19-8.45a6.05,6.05,0,0,1,3.89-5.51h.46c1.48,6.51,5.13,11,10.4,11C1445.06,87.54,1447.08,85.6,1447.08,82.1Z"/><path class="cls-1" d="M1471.28,71.7c-.08.93-.15,1.94-.15,2.88,0,7,3,10.94,8.07,10.94,4.42,0,8.07-2.56,11.87-7.38l1.48,1.17c-5,7.29-10.25,11.17-17.08,11.17-8,0-12.8-5.74-12.8-14.36,0-13.58,10.55-27.86,23.13-27.86,6.67,0,9.7,3.57,9.7,7.84C1495.5,65.88,1483.7,69.22,1471.28,71.7Zm.24-1.86c11.17-2.64,16.76-6.91,16.76-14.52,0-2.48-1.09-4.5-3.8-4.5C1478.27,50.82,1472.91,60.45,1471.52,69.84Z"/><path class="cls-1" d="M1514,67.43c4.65-8.77,13.35-19.17,20.8-19.17,3.88,0,5.28,2.18,5.28,5.75a20,20,0,0,1-.47,3.57l-6.05,22.66a16.81,16.81,0,0,0-.7,3.34c0,.77.38,1.16,1.08,1.16,1.48,0,3.5-1.63,6.84-5.74l1.31,1c-4.88,7.14-8.07,10.47-12.33,10.47-3.42,0-5.36-2.32-5.36-5.74a24.91,24.91,0,0,1,1.09-6.6L1531,58a12.4,12.4,0,0,0,.46-2.48c0-1.09-.39-1.63-1.4-1.63-4.42,0-15.13,11-18.55,24.76l-2.79,11.1h-8.46l8.61-34.39-4.58-2.56.24-1.16,13.51-3.34h1.16Z"/><path class="cls-1" d="M1559.12,79.08a17.59,17.59,0,0,0-.62,3.88,1.81,1.81,0,0,0,1.94,2c2.72,0,5.12-1.86,9.55-6.91l1.32,1c-5.51,7.68-10,11.4-14.91,11.4-4,0-6.28-2.56-6.28-6.36a21.81,21.81,0,0,1,.77-5.82l6.29-25.15h-5l.46-1.78c6-1.94,10.33-6.14,14.28-11.49h2l-2.48,10h8.69l-.78,3.26h-8.69Z"/><path class="cls-1" d="M1604.13,72.32c-4.66,9.86-11.18,18.16-17.55,18.16-5.35,0-8.38-4.42-8.38-11.56,0-16,12-30.66,24.22-30.66a10.65,10.65,0,0,1,8.15,3.26l6.36-3.8h1.87L1616,56.8l-5.74,23.44a22.7,22.7,0,0,0-.62,3.34c0,.77.38,1.16,1.08,1.16,1.4,0,3.42-1.63,6.84-5.74l1.31,1c-4.89,7.14-8.15,10.47-12.34,10.47-3.41,0-5.27-2.24-5.27-5.74C1601.26,82.49,1602.65,76.36,1604.13,72.32Zm4.5-17.85a5.78,5.78,0,0,0-5.51-3.8c-8.7,0-16.38,14.67-16.38,27.71,0,3.72,1.09,6.13,3.49,6.13C1595.9,84.51,1603.9,73,1608.63,54.47Z"/><path class="cls-1" d="M1635.93,79.08a17.59,17.59,0,0,0-.62,3.88,1.81,1.81,0,0,0,1.94,2c2.72,0,5.12-1.86,9.55-6.91l1.32,1c-5.51,7.68-10,11.4-14.9,11.4-4,0-6.29-2.56-6.29-6.36a21.47,21.47,0,0,1,.78-5.82L1634,53.15h-5l.46-1.78c6-1.94,10.33-6.14,14.28-11.49h2l-2.48,10h8.69l-.77,3.26h-8.7Z"/><path class="cls-1" d="M1662.78,55.32l-4.58-2.56.31-1.16,13.43-3.34h1.16l-8,32a16.81,16.81,0,0,0-.7,3.34c0,.77.39,1.16,1.09,1.16,1.47,0,3.41-1.63,6.83-5.74l1.32,1c-4.89,7.14-8.15,10.47-12.34,10.47-3.42,0-5.28-2.32-5.28-5.74a24.62,24.62,0,0,1,1-6.6ZM1666,37.63a5.52,5.52,0,0,1,5.59-5.59,5,5,0,0,1,5.2,5,5.61,5.61,0,0,1-5.59,5.58A5,5,0,0,1,1666,37.63Z"/><path class="cls-1" d="M1681.09,52.68l.39-1.16,11.57-3.26h.46l2.33,33.92L1704.07,72c4.11-5,5.89-8.69,5.89-12.8s-2.87-6.37-7.37-6v-.78c1.4-1.86,4-4.19,7.22-4.19,4.89,0,6.37,3.49,6.37,6.83,0,5.36-3.42,10.48-9.63,17.78l-15.13,17.54h-2.8l-2.95-35.55Z"/><path class="cls-1" d="M1729.67,71.7c-.08.93-.16,1.94-.16,2.88,0,7,3,10.94,8.07,10.94,4.43,0,8.08-2.56,11.88-7.38l1.48,1.17c-5,7.29-10.25,11.17-17.08,11.17-8,0-12.81-5.74-12.81-14.36,0-13.58,10.56-27.86,23.14-27.86,6.67,0,9.69,3.57,9.69,7.84C1753.88,65.88,1742.09,69.22,1729.67,71.7Zm.23-1.86c11.18-2.64,16.77-6.91,16.77-14.52,0-2.48-1.09-4.5-3.81-4.5C1736.65,50.82,1731.3,60.45,1729.9,69.84Z"/><path class="cls-1" d="M1778,82.1c0-5.82-14.44-12.65-14.44-21.65,0-6.68,6-12.19,14-12.19,6,0,10,2.56,10,6.83,0,2.33-2.18,3.88-4,4.58h-.39c-1.56-4.66-4.5-8.46-8.93-8.46-3.18,0-5,2-5,5,0,5.13,14.74,12.89,14.74,21.43,0,7.76-6.75,12.8-14.36,12.8-7.29,0-12.18-3.64-12.18-8.45a6,6,0,0,1,3.88-5.51h.46c1.48,6.51,5.13,11,10.41,11C1776,87.54,1778,85.6,1778,82.1Z"/><g id="Logomark"><g id="Blue_frame" data-name="Blue frame"><path class="cls-1" d="M93.77,23.65v608.7H636.85V23.65Zm528.67,594.5H108.18V37.85H622.44Z"/></g><path class="cls-2" d="M298.22,441.27c0-8-4.14-7.72-4.28,0V474.2l4.28,1.06Z"/><path class="cls-2" d="M310.4,446.72c0-7.42-3-7.18-3.08,0v31c1,.29,2.08.57,3.08.86Z"/><path class="cls-2" d="M158.86,552v52.82h13V552C171.83,538.9,159.29,539.32,158.86,552Z"/><path class="cls-2" d="M122.74,552.08v52.77h13.31V552.08C136.05,538.88,123.18,539.31,122.74,552.08Z"/><path class="cls-2" d="M202.48,421.36c0-9.31-11.78-9-12.18,0v38.77q6.12.39,12.18.85Z"/><polygon class="cls-2" points="232.25 317.41 235.41 313.17 233.52 297.51 229.39 293.66 226.16 298.37 228.04 314.03 232.25 317.41"/><path class="cls-2" d="M233,463.36V424.42c0-8.66-11.28-8.38-11.67,0v38.24l6.76.7Z"/><path class="cls-2" d="M259.79,429.25c0-8.63-9.62-8.35-10,0v36.81q5,.7,10,1.48Z"/><path class="cls-2" d="M281.41,435.17c0-8.41-7-8.14-7.21,0V470c2.42.46,4.85.91,7.21,1.39Z"/><path class="cls-2" d="M170.39,419.12c0-9.31-12.11-9-12.52,0v39.46q6.28.19,12.52.48Z"/><path class="cls-2" d="M254.05,562.72v42.13h10.3V562.72C264.35,549.73,254.39,550.15,254.05,562.72Z"/><polygon class="cls-2" points="209.21 313.12 213.02 309 211.89 293.27 207.49 289.27 203.56 293.85 204.69 309.58 209.21 313.12"/><path class="cls-2" d="M279.27,568.33v36.52h7.45V568.33C286.72,555,279.52,555.45,279.27,568.33Z"/><path class="cls-2" d="M299.69,573.69v31.16h4.44V573.69C304.13,560.18,299.84,560.62,299.69,573.69Z"/><path class="cls-2" d="M313.54,578.64v26.21h3.2V578.64C316.74,565.29,313.65,565.72,313.54,578.64Z"/><path class="cls-2" d="M192.43,555.19v49.66H205V555.19C205,542.05,192.85,542.48,192.43,555.19Z"/><polygon class="cls-2" points="125.01 287.91 125.01 303.68 129.47 307.52 134.09 303.68 134.09 287.91 129.47 283.61 125.01 287.91"/><path class="cls-2" d="M224.57,557.93v46.92h12.07V557.93C236.65,545.38,225,545.78,224.57,557.93Z"/><polygon class="cls-2" points="162.11 304.6 162.11 288.83 157.65 284.53 153.03 288.83 153.03 304.6 157.65 308.44 162.11 304.6"/><polygon class="cls-2" points="184.72 309.58 188.98 305.52 188.18 289.76 183.51 285.69 179.12 290.21 179.92 305.96 184.72 309.58"/><polygon class="cls-2" points="267.22 324.9 268.55 320.6 264.57 305.32 261.19 301.73 259.9 306.5 263.88 321.77 267.22 324.9"/><polygon class="cls-2" points="251.78 320.95 254.34 316.61 251.56 301.07 247.57 297.4 244.97 302.21 247.75 317.75 251.78 320.95"/><path class="cls-2" d="M123,419.15V458c4.29,0,8.58.07,12.86.13V419.15C135.83,409.8,123.39,410.1,123,419.15Z"/><path class="cls-1" d="M130.07,386.33h-1.44v0c-2.31,0-4.6.07-6.91.12v85.88c72.17-.48,143.92,6.16,199.54,19.11V436.51c10.43-10.89,8.14-19.1-10.07-25.07C258.58,396,195.07,386.93,130.07,386.35Zm177.25,60.39c.1-7.18,3.08-7.42,3.08,0v31.82c-1-.29-2.06-.57-3.08-.86Zm-13.38-5.45c.14-7.72,4.28-8,4.28,0v34l-4.28-1.06Zm-19.74-6.1c.24-8.14,7.21-8.41,7.21,0v36.26c-2.36-.48-4.79-.93-7.21-1.39Zm-24.36-5.92c.33-8.35,10-8.63,10,0v38.29q-4.92-.78-10-1.48Zm-28.49-4.83c.39-8.38,11.67-8.66,11.67,0v38.94h-4.91l-6.76-.7Zm-31-3.06c.4-9,12.18-9.31,12.18,0V461q-6.06-.47-12.18-.85Zm-32.43-2.24c.41-9,12.52-9.31,12.52,0v39.94q-6.24-.29-12.52-.48Zm-22.05,0v38.94c-4.28-.06-8.57-.12-12.86-.13V419.15C123.39,410.1,135.83,409.8,135.82,419.15Z"/><path class="cls-1" d="M121.72,517v87.82h1V552.08c.44-12.77,13.31-13.2,13.31,0v52.77h6.34l.41-87.8C135.78,517,128.75,517,121.72,517Z"/><rect class="cls-1" x="121.72" y="604.85" width="1.01" height="0.05"/><rect class="cls-1" x="136.05" y="604.85" width="6.34" height="0.05"/><path class="cls-1" d="M310.55,531.9l.27,73h2.72V578.64c.11-12.92,3.2-13.35,3.2,0v26.21H324l.12-69.41C320,534.2,315.42,533,310.55,531.9Z"/><rect class="cls-1" x="316.74" y="604.85" width="7.28" height="0.05"/><rect class="cls-1" x="310.82" y="604.85" width="2.73" height="0.05"/><path class="cls-1" d="M354.55,556.42a10,10,0,0,0-1.74-5.47l.15,53.9h1.59V556.42Z"/><rect class="cls-1" x="352.96" y="604.85" width="1.59" height="0.05"/><path class="cls-1" d="M341.28,541.94l.22,62.91h8.78l.07-56.84A37,37,0,0,0,341.28,541.94Z"/><rect class="cls-1" x="341.5" y="604.85" width="8.77" height="0.05"/><path class="cls-1" d="M295.18,528.77l.38,76.08h4.13V573.69c.15-13.07,4.44-13.51,4.44,0v31.16h3l.13-73.68Q301.51,529.91,295.18,528.77Z"/><rect class="cls-1" x="304.13" y="604.85" width="3.02" height="0.05"/><rect class="cls-1" x="295.56" y="604.85" width="4.13" height="0.05"/><path class="cls-1" d="M327.4,536.44l.25,68.41H337.9l.11-64.44A109.74,109.74,0,0,0,327.4,536.44Z"/><rect class="cls-1" x="327.65" y="604.85" width="10.24" height="0.05"/><path class="cls-1" d="M151.35,517.17l.84,87.68h6.67V552c.43-12.71,13-13.13,13,0v52.82h5.29l.4-87Q164.55,517.39,151.35,517.17Z"/><rect class="cls-1" x="152.19" y="604.85" width="6.68" height="0.05"/><rect class="cls-1" x="171.82" y="604.85" width="5.29" height="0.05"/><path class="cls-1" d="M186.06,518.16l.82,86.69h5.55V555.19c.42-12.71,12.6-13.14,12.6,0v49.66h4.56l.37-85.47Q198.21,518.67,186.06,518.16Z"/><rect class="cls-1" x="186.88" y="604.85" width="5.54" height="0.05"/><rect class="cls-1" x="205.03" y="604.85" width="4.56" height="0.05"/><path class="cls-1" d="M218,519.9l.76,85h5.84V557.93c.4-12.15,12.08-12.55,12.07,0v46.92h4.8l.33-83.05C234.06,521.09,226.11,520.46,218,519.9Z"/><rect class="cls-1" x="218.73" y="604.85" width="5.85" height="0.05"/><rect class="cls-1" x="236.64" y="604.85" width="4.79" height="0.05"/><path class="cls-1" d="M274.34,525.49l.49,79.36h4.44V568.33c.25-12.88,7.45-13.31,7.45,0v36.52h3.72l.18-76.88C285.43,527.09,280,526.27,274.34,525.49Z"/><rect class="cls-1" x="286.72" y="604.85" width="3.71" height="0.05"/><rect class="cls-1" x="274.83" y="604.85" width="4.44" height="0.05"/><path class="cls-1" d="M249.25,522.52l.69,82.33h4.11V562.72c.34-12.57,10.3-13,10.3,0v42.13h4.13l.24-80.1Q259.31,523.54,249.25,522.52Z"/><rect class="cls-1" x="264.35" y="604.85" width="4.13" height="0.05"/><rect class="cls-1" x="249.94" y="604.85" width="4.11" height="0.05"/><path class="cls-1" d="M133.86,207.41c-1.14,0-2.23,0-3.38,0-3,.05-5.89.18-8.76.36v6.73c.67-2.45,1.37-4.75,2.13-6.81,1-.06,2.07-.1,3.12-.13a113.21,113.21,0,0,0-5.25,20.33V329.55c6.49,0,13,0,19.47.2C141.59,269.92,139.25,230.69,133.86,207.41Zm.23,96.27-4.62,3.84L125,303.68V287.91l4.46-4.3,4.62,4.3Z"/><polygon class="cls-1" points="208.86 226.83 208.85 226.82 208.86 226.83 208.86 226.83"/><path class="cls-1" d="M186.85,216.39h0Z"/><polygon class="cls-1" points="211.37 228.31 211.37 228.31 211.37 228.31 211.37 228.31"/><path class="cls-1" d="M161.85,209.75Z"/><path class="cls-1" d="M147.1,207.92c-.93-.07-1.87-.12-2.81-.18.94.06,1.88.11,2.81.19Z"/><path class="cls-1" d="M176.81,213.1h0c1.79.51,3.53,1.06,5.26,1.62Q179.49,213.87,176.81,213.1Z"/><polygon class="cls-1" points="170.02 211.39 170.03 211.39 170.03 211.39 170.02 211.39"/><path class="cls-1" d="M222.05,338h0q9.33,1.68,18.47,3.69c3.33-48.4-26.09-106.89-63.7-128.61-2.21-.62-4.48-1.18-6.78-1.71C202.78,233.81,225.78,288.55,222.05,338Zm7.34-44.36,4.13,3.85,1.89,15.66-3.16,4.24L228,314l-1.88-15.66Z"/><path class="cls-1" d="M243.26,342.33q8.4,1.89,16.58,4.06c3.94-50.72-30.71-106.27-67.1-127.65-1.93-.81-3.87-1.61-5.88-2.34C221.17,242.05,246.58,296.66,243.26,342.33Zm4.31-44.93,4,3.67,2.78,15.54L251.78,321l-4-3.2L245,302.21Z"/><path class="cls-1" d="M192.43,218.55l.31.19.76.31C193.13,218.89,192.79,218.71,192.43,218.55Z"/><path class="cls-1" d="M171.58,331.44q12,1,23.83,2.51c3.48-51.2-15.46-106.39-43.28-125.57h0c-1.66-.17-3.33-.32-5-.45C161.77,231.1,174.16,282.54,171.58,331.44Zm11.93-45.75,4.67,4.08.8,15.75-4.26,4.06-4.8-3.62-.8-15.75Z"/><path class="cls-1" d="M198.21,334.31l-.86-.11q11.1,1.46,22,3.35h0c3.8-51.78-22.09-109.3-57.44-127.79-1.39-.24-2.78-.48-4.2-.69C184.09,231.05,201.63,284.59,198.21,334.31Zm9.27-45,4.41,4L213,309l-3.81,4.12-4.52-3.54-1.13-15.73Z"/><path class="cls-1" d="M262.61,347.13Q269.3,349,275.82,351c1.58-43.18-29.89-94.85-64.45-122.66-.82-.51-1.67-1-2.51-1.48C240.2,253.34,266.33,302.16,262.61,347.13Zm-1.42-45.4,3.38,3.59,4,15.28-1.33,4.3-3.34-3.13-4-15.27Z"/><path class="cls-1" d="M232.48,244.51q-2.34-2.17-4.8-4.27c1.89,1.61,3.64,3.32,5.43,5C232.9,245,232.69,244.75,232.48,244.51Z"/><path class="cls-1" d="M278.69,351.84l-.39-.12c3.55,1.12,7.07,2.26,10.54,3.45a219.47,219.47,0,0,0-19.08-59.08,183.14,183.14,0,0,0-25.56-39.44,152.57,152.57,0,0,0-11.09-11.42C259.7,274.88,280.3,316.24,278.69,351.84Z"/><path class="cls-1" d="M136.8,207.42c-1,0-2,0-3,0h0l2.95,0Z"/><path class="cls-1" d="M143.52,207.69v0c.25,0,.51,0,.76,0Z"/><path class="cls-1" d="M144.06,329.85l-1.13,0q12.94.4,25.8,1.39h0c2.87-53.57-11.95-103.89-25.19-123.49-2.21-.13-4.44-.22-6.72-.26C142.14,231.05,144.46,270.34,144.06,329.85Zm9-41,4.62-4.3,4.46,4.3V304.6l-4.46,3.84L153,304.6Z"/><path class="cls-1" d="M121.72,485.44v14.08c102-.73,205.61,10.59,232.11,35.88v12.18c12.82-4.93,15.8-18.92,0-29.2C324,495.58,222.11,484.94,121.72,485.44Z"/><path class="cls-1" d="M121.72,189.91V196c29.81-1.51,62.76,3.21,70.59,15.27v5.27c3.44-2.13,4.24-8.19,0-12.64C183.49,193.05,151.12,188.57,121.72,189.91Z"/><path class="cls-1" d="M172.14,182.45v3.62c2.33-1.47,2.87-5.63,0-8.69-6.24-7.8-29.84-10.81-50.42-9.5v4.23C142.57,170.65,166.6,173.81,172.14,182.45Z"/><path class="cls-1" d="M121.72,89.49v4.24c20.85-1.46,44.88,1.69,50.42,10.33v3.63c2.33-1.47,2.87-5.63,0-8.69C165.9,91.2,142.3,88.18,121.72,89.49Z"/><path class="cls-1" d="M203.59,380.77V357q-9.27-1.22-18.74-2.13V379C191.1,379.48,197.35,380.07,203.59,380.77Z"/><path class="cls-1" d="M140.21,352.25q-9.22-.19-18.49-.12v24.45c6.17-.05,12.33-.05,18.49.06Z"/><path class="cls-1" d="M172.8,378V353.81q-9.95-.75-20-1.16v24.27C159.46,377.17,166.13,377.55,172.8,378Z"/><path class="cls-1" d="M230.75,384.37V361.2c-5.38-1-10.87-1.89-16.41-2.72v23.59Q222.56,383.12,230.75,384.37Z"/><path class="cls-1" d="M274.36,392.33V371.58q-5-1.49-10.09-2.86v21.47C267.64,390.86,271,391.61,274.36,392.33Z"/><path class="cls-1" d="M301.78,381.2c-2.19-.9-4.45-1.77-6.72-2.63v18.48c2.24.54,4.48,1.11,6.72,1.68Z"/><path class="cls-1" d="M281.86,394c2.68.6,5.35,1.16,8,1.79V376.68c-2.63-.94-5.29-1.86-8-2.74Z"/><path class="cls-1" d="M254.18,388.31V366.17c-4.24-1-8.55-2-12.93-2.91V386C245.56,386.7,249.87,387.51,254.18,388.31Z"/><path class="cls-1" d="M311.08,385.24c-1.92-.89-3.93-1.74-5.93-2.6v16.93c2,.51,4,1,5.93,1.49Z"/><path class="cls-1" d="M121.72,337.33v6.49a811.08,811.08,0,0,1,147.54,12A507.25,507.25,0,0,0,121.72,337.33Z"/><path class="cls-1" d="M134.91,113.23c.25-7.71-8.27-8-8.24,0v50.29h8.24Z"/><path class="cls-1" d="M151.24,116c.24-7.63-7.65-10.32-7.63-2.4v49.75l7.63,1.3Z"/><path class="cls-1" d="M156.47,116.39v49.75l4.37,1.3V118.79C161,111.16,156.46,108.47,156.47,116.39Z"/><path class="cls-1" d="M155.12,87.35c.09-.81.15-1.63.16-2.46a24.16,24.16,0,0,0-12.1-21.16,8.75,8.75,0,0,0-1.11-.81c-1.36-.82-3.2-5.31-3.85-10.17-.07-.52-.12-1.06-.15-1.6H121.7V83.44C133.77,82.1,147.11,83.89,155.12,87.35Z"/><path class="cls-1" d="M138.07,51.15a.08.08,0,0,1,0,0H121.64V83.45h.06V51.15Z"/></g></g></g></svg>