<svg id="Layer_1" data-name="Layer 1" xmlns="http://www.w3.org/2000/svg" viewBox="0 0 298.98 84.98"><defs><style>.cls-1{fill:#003349;}.cls-2{fill:#005b8f;}</style></defs><path class="cls-1" d="M14.6,71.2a4,4,0,0,1-4.34,3.54c-3.44,0-4.71-2.5-4.71-5.68s1.57-5.62,4.8-5.62c2.87,0,4.06,1.76,4.19,3.52H12.6A2.15,2.15,0,0,0,10.28,65c-2,0-2.69,1.94-2.69,4s.64,4.13,2.72,4.13a2.27,2.27,0,0,0,2.35-2Z"/><path class="cls-1" d="M18.29,71.72l-.9,2.86H15.45c.36-1.07,3.08-9.78,3.49-11h2.55l3.66,11H23.07l-.93-2.86Zm3.42-1.62c-.78-2.45-1.3-4-1.55-5h0c-.28,1.25-.82,3-1.47,5Z"/><path class="cls-1" d="M35.72,69c0,3.15-1.53,5.71-5,5.71S25.9,72.2,25.9,69c0-2.77,1.52-5.57,5-5.57C34.17,63.44,35.72,66,35.72,69Zm-7.78,0c0,2.32,1,4.16,2.89,4.16S33.7,71.43,33.7,69c0-2.2-.82-4-2.9-4S27.94,66.79,27.94,69Z"/><path class="cls-1" d="M43.3,62.1V78.76H41.67V62.1Z"/><path class="cls-1" d="M51.64,63.59v7c0,1.41.46,2.59,2.27,2.59s2.21-1.12,2.21-2.59v-7h2v7c0,2.3-1,4.11-4.26,4.11s-4.22-1.65-4.22-4.08V63.59Z"/><path class="cls-1" d="M59.63,74.58V72.16H61.5v2.42Z"/><path class="cls-1" d="M64.67,71.38a2,2,0,0,0,2.2,1.81c1.29,0,1.89-.59,1.89-1.52s-.6-1.52-2.35-2C63.9,69,63,68.08,63,66.5c0-1.94,1.55-3.06,3.67-3.06,2.59,0,3.69,1.38,3.82,3.07H68.57A1.71,1.71,0,0,0,66.66,65c-1.11,0-1.67.51-1.67,1.36s.58,1.18,2.24,1.66c2.82.83,3.56,1.92,3.56,3.47,0,1.81-1.24,3.27-4,3.27-2.4,0-3.91-1.22-4.06-3.33Z"/><path class="cls-1" d="M72.14,74.58V72.16H74v2.42Z"/><path class="cls-1" d="M79.88,63.59h2V68h4.48V63.59h2v11h-2V69.65H81.86v4.93h-2Z"/><path class="cls-1" d="M100.25,69c0,3.15-1.53,5.71-5,5.71S90.43,72.2,90.43,69c0-2.77,1.52-5.57,5-5.57C98.7,63.44,100.25,66,100.25,69Zm-7.78,0c0,2.32,1,4.16,2.89,4.16,2.07,0,2.87-1.74,2.87-4.14,0-2.2-.81-4-2.9-4S92.47,66.79,92.47,69Z"/><path class="cls-1" d="M104.23,63.59v7c0,1.41.46,2.59,2.27,2.59s2.22-1.12,2.22-2.59v-7h2v7c0,2.3-1,4.11-4.25,4.11s-4.23-1.65-4.23-4.08V63.59Z"/><path class="cls-1" d="M114.29,71.38a2,2,0,0,0,2.21,1.81c1.29,0,1.89-.59,1.89-1.52s-.6-1.52-2.35-2c-2.51-.7-3.39-1.57-3.39-3.15,0-1.94,1.55-3.06,3.67-3.06,2.59,0,3.68,1.38,3.81,3.07h-1.94A1.7,1.7,0,0,0,116.28,65c-1.1,0-1.66.51-1.66,1.36s.57,1.18,2.24,1.66c2.82.83,3.55,1.92,3.55,3.47,0,1.81-1.24,3.27-4,3.27-2.4,0-3.92-1.22-4.06-3.33Z"/><path class="cls-1" d="M129.15,69.65h-4.94V73h5.45l-.25,1.6h-7.12v-11h7.07V65.2h-5.15V68h4.94Z"/><path class="cls-1" d="M144.65,69c0,3.15-1.54,5.71-5,5.71s-4.83-2.54-4.83-5.73c0-2.77,1.51-5.57,5-5.57C143.1,63.44,144.65,66,144.65,69Zm-7.78,0c0,2.32,1,4.16,2.88,4.16,2.07,0,2.87-1.74,2.87-4.14,0-2.2-.81-4-2.9-4S136.87,66.79,136.87,69Z"/><path class="cls-1" d="M146.72,63.59h7V65.2h-5v3.08h4.71v1.6h-4.71v4.7h-1.94Z"/><path class="cls-1" d="M161.39,69.88v4.7h-1.94v-11h4.36c2.07,0,3.54,1,3.54,2.92a2.5,2.5,0,0,1-1.78,2.57c1.14.41,1.57,1.28,1.57,2.68V72a15.21,15.21,0,0,0,.16,2.56h-1.93a9.55,9.55,0,0,1-.19-2.58v-.25c0-1.36-.51-1.87-2.11-1.87Zm0-1.56h1.85c1.2,0,2.13-.32,2.13-1.65,0-1.07-.76-1.53-1.82-1.53h-2.16Z"/><path class="cls-1" d="M176.3,69.65h-4.94V73h5.45l-.25,1.6h-7.13v-11h7.08V65.2h-5.15V68h4.94Z"/><path class="cls-1" d="M178.53,63.59h4c2.1,0,3.85,1,3.85,3.2s-1.66,3.37-4,3.37h-1.83v4.42h-2Zm2,5h1.72c1.29,0,2.13-.47,2.13-1.8,0-1.18-.86-1.69-2.08-1.69h-1.77Z"/><path class="cls-1" d="M190.1,69.88v4.7h-1.94v-11h4.35c2.07,0,3.54,1,3.54,2.92a2.5,2.5,0,0,1-1.78,2.57c1.14.41,1.57,1.28,1.57,2.68V72a16.35,16.35,0,0,0,.16,2.56h-1.92a9,9,0,0,1-.2-2.58v-.25c0-1.36-.5-1.87-2.1-1.87Zm0-1.56h1.84c1.21,0,2.14-.32,2.14-1.65,0-1.07-.77-1.53-1.83-1.53H190.1Z"/><path class="cls-1" d="M205,69.65h-4.94V73h5.45l-.25,1.6h-7.12v-11h7.08V65.2h-5.16V68H205Z"/><path class="cls-1" d="M208.62,71.38a2,2,0,0,0,2.2,1.81c1.29,0,1.9-.59,1.9-1.52s-.61-1.52-2.35-2C207.86,69,207,68.08,207,66.5c0-1.94,1.55-3.06,3.67-3.06,2.59,0,3.68,1.38,3.81,3.07h-1.94A1.7,1.7,0,0,0,210.61,65c-1.11,0-1.66.51-1.66,1.36s.57,1.18,2.23,1.66c2.83.83,3.56,1.92,3.56,3.47,0,1.81-1.24,3.27-4,3.27-2.4,0-3.92-1.22-4.06-3.33Z"/><path class="cls-1" d="M223.48,69.65h-4.94V73H224l-.25,1.6h-7.13v-11h7.08V65.2h-5.15V68h4.94Z"/><path class="cls-1" d="M225.71,74.58v-11h2.55c3.72,7.07,4.29,8.16,4.47,8.65h0c-.11-1.36-.13-3.13-.13-4.93V63.59h1.83v11H232c-4-7.75-4.37-8.56-4.57-9h0c.09,1.39.09,3.28.09,5.25v3.73Z"/><path class="cls-1" d="M239.14,65.2H236V63.59h8.23V65.2h-3.11v9.38h-2Z"/><path class="cls-1" d="M246.28,71.72l-.9,2.86h-1.94c.36-1.07,3.09-9.78,3.49-11h2.55l3.67,11h-2.09l-.93-2.86Zm3.43-1.62c-.79-2.45-1.31-4-1.55-5h0c-.28,1.25-.82,3-1.47,5Z"/><path class="cls-1" d="M255.4,65.2h-3.13V63.59h8.23V65.2h-3.11v9.38h-2Z"/><path class="cls-1" d="M264,63.59v11h-2v-11Z"/><path class="cls-1" d="M269,74.58l-3.65-11h2.12l1.58,5.13c.46,1.49.93,3,1.14,4h0c.23-.94.75-2.54,1.21-4l1.66-5.18h2l-3.75,11Z"/><path class="cls-1" d="M283.37,69.65h-4.95V73h5.45l-.24,1.6H276.5v-11h7.08V65.2h-5.16V68h4.95Z"/><path class="cls-1" d="M287,71.38a2,2,0,0,0,2.2,1.81c1.29,0,1.89-.59,1.89-1.52s-.6-1.52-2.35-2c-2.51-.7-3.39-1.57-3.39-3.15,0-1.94,1.55-3.06,3.67-3.06,2.59,0,3.69,1.38,3.82,3.07h-1.95A1.7,1.7,0,0,0,289,65c-1.11,0-1.67.51-1.67,1.36s.57,1.18,2.24,1.66c2.82.83,3.55,1.92,3.55,3.47,0,1.81-1.24,3.27-4,3.27-2.4,0-3.91-1.22-4.06-3.33Z"/><path class="cls-2" d="M5.67,11.85h6.9V27.12h9.29V11.85h7V50.44H21.86V33.11H12.57V50.44H5.67Z"/><path class="cls-2" d="M56,35.45C56,46.16,52.07,51,44.83,51s-11-4.62-11-15.39c0-10.49,4.39-15.17,11.34-15.17S56,25.58,56,35.45Zm-15.28.11c0,6.33,1,9.75,4.34,9.75,3,0,4.1-3.36,4.1-9.69,0-6.5-1.08-9.46-4.16-9.46S40.72,29.23,40.72,35.56Z"/><path class="cls-2" d="M81.25,41.77c0,4.28,0,7.13.06,8.67h-6.5a19.89,19.89,0,0,1-.23-3.25C73.27,49.93,71.11,51,68,51c-4.16,0-7.35-2.05-7.35-8.83V20.91H67.4V40.58c0,2.91.63,4.56,3.13,4.56s3.94-1.43,3.94-6.1V20.91h6.78Z"/><path class="cls-2" d="M92.08,41.49c0,2,1,4.28,3.82,4.28,2.22,0,3.31-1.2,3.31-3.14s-.92-3.19-4.39-4.5c-7-2.57-8.73-5-8.73-9.3,0-4,2.57-8.43,9.58-8.43,7.75,0,9.64,5.3,9.64,9.17h-6.5c0-1.08-.12-4-3.31-4a2.55,2.55,0,0,0-2.74,2.74c0,1.88,1,2.74,4.56,4,6.28,2.34,8.61,4.67,8.61,9.46,0,5.82-3.65,9.12-10.32,9.12-7.06,0-10.2-4.22-10.2-9.46Z"/><path class="cls-2" d="M115.85,37.44c0,3.76.46,7.93,4.22,7.93,3.42,0,3.82-2.91,4-3.88h6.5c-.12.91-.8,9.52-10.55,9.52-9.58,0-10.94-8-10.94-15.51,0-9.34,3.59-15,11.05-15,8.56,0,10.66,6.39,10.66,14.08,0,1-.05,2.4-.11,2.91Zm8.21-4.9c0-2.91-.34-6.56-3.94-6.56-3.93,0-4.16,4.39-4.16,6.56Z"/><path class="cls-2" d="M146.34,11.85h6.9V27.12h9.29V11.85h7V50.44h-7V33.11h-9.29V50.44h-6.9Z"/><path class="cls-2" d="M183.05,34V50.44h-6.84V11.85H188c7,0,11,3.7,11,10.54,0,5.59-3,8-5,8.78,3,1.43,4.39,3.93,4.39,9.64v1.53a47.79,47.79,0,0,0,.52,8.1h-6.67c-.57-1.77-.63-4.85-.63-8.15V40.92c0-5.19-1.2-7-5.59-7Zm0-5.58h3.25c4.16,0,5.81-1.77,5.81-5.65,0-3.36-1.59-5.3-5.13-5.3h-3.93Z"/><path class="cls-2" d="M214.85,11.85h6.9V27.12H231V11.85h7V50.44h-7V33.11h-9.29V50.44h-6.9Z"/><path class="cls-2" d="M264.39,41.77c0,4.28,0,7.13.06,8.67H258a19.89,19.89,0,0,1-.23-3.25c-1.31,2.74-3.48,3.76-6.61,3.76-4.17,0-7.36-2.05-7.36-8.83V20.91h6.79V40.58c0,2.91.62,4.56,3.13,4.56s3.93-1.43,3.93-6.1V20.91h6.79Z"/><path class="cls-2" d="M270.43,10h6.78V23.87c1-1.82,3-3.42,6.56-3.42,6,0,8.6,5.31,8.6,14.43,0,9.35-2.28,16.07-9.51,16.07-3.82,0-5.08-1.88-5.88-3.36,0,.68-.05,2-.11,2.85h-6.5c.06-1.94.06-5.3.06-8.32Zm11,16.25c-3.31,0-4.45,2.4-4.45,9.64,0,6.89,1,9.35,4.16,9.35s4.39-3.08,4.39-10.21C285.53,29.29,284.74,26.21,281.43,26.21Z"/></svg>