<svg id="Layer_1" data-name="Layer 1" xmlns="http://www.w3.org/2000/svg" viewBox="0 0 250 250"><defs><style>.cls-1{fill:#fff;}.cls-2{fill:none;stroke:#fff;stroke-linecap:round;stroke-linejoin:round;stroke-width:7px;}</style></defs><path class="cls-1" d="M68.21,60.55h3.12l0,14H68.24V69H62.68v5.49H59.57l0-14h3.12V66.4h5.56Z"/><path class="cls-1" d="M84.74,74.49l-1.3-3H77.59l-1.3,3H73l6-14h3l6.06,14Zm-4.23-9.8-1.75,4.06h3.5Z"/><path class="cls-1" d="M99.42,60.49h3.12l0,14H99.45l-6.67-8.74,0,8.76H89.68l0-14h2.92l6.87,9Z"/><path class="cls-1" d="M116.65,62.29a6.59,6.59,0,0,1,2,5.08,6.88,6.88,0,0,1-1.94,5.16c-1.3,1.27-3.28,1.9-5.94,1.91H106l0-14h4.93A8.25,8.25,0,0,1,116.65,62.29Zm-2.27,8.31a4.13,4.13,0,0,0,1.14-3.14,4.22,4.22,0,0,0-1.15-3.17,4.93,4.93,0,0,0-3.53-1.1H109.1l0,8.5h2A4.63,4.63,0,0,0,114.38,70.6Z"/><path class="cls-1" d="M127.48,74.41h-6.11l0-14h5.44a7.69,7.69,0,0,1,2.44.34,3.45,3.45,0,0,1,1.55.91,3.61,3.61,0,0,1,.95,2.44,2.86,2.86,0,0,1-1.06,2.44,4.24,4.24,0,0,1-.49.35l-.5.23a3.63,3.63,0,0,1,2.07,1.17,3.22,3.22,0,0,1,.77,2.2,3.79,3.79,0,0,1-1,2.58C130.75,74,129.4,74.4,127.48,74.41Zm-3-8.31H126a5.17,5.17,0,0,0,1.93-.28,1.19,1.19,0,0,0,.62-1.22,1.23,1.23,0,0,0-.58-1.22,4.58,4.58,0,0,0-2-.3h-1.5Zm0,5.68h2.14a4.75,4.75,0,0,0,2-.33,1.32,1.32,0,0,0,.66-1.3,1.25,1.25,0,0,0-.71-1.28,6,6,0,0,0-2.27-.3h-1.84Z"/><path class="cls-1" d="M146.88,72.44a7.6,7.6,0,0,1-10.43,0,7.3,7.3,0,0,1,0-10.29,7.6,7.6,0,0,1,10.43,0,7.3,7.3,0,0,1,0,10.29Zm-1.07-5.13a4.57,4.57,0,0,0-1.2-3.19,3.88,3.88,0,0,0-3-1.31,3.84,3.84,0,0,0-2.95,1.33,4.83,4.83,0,0,0,0,6.36,4,4,0,0,0,5.9,0A4.6,4.6,0,0,0,145.81,67.31Z"/><path class="cls-1" d="M163.38,72.41a7.6,7.6,0,0,1-10.43,0,7.33,7.33,0,0,1,0-10.29,7.6,7.6,0,0,1,10.43,0,7.3,7.3,0,0,1,0,10.29Zm-1.07-5.13a4.57,4.57,0,0,0-1.2-3.19,4,4,0,0,0-5.9,0A4.62,4.62,0,0,0,154,67.29a4.54,4.54,0,0,0,1.21,3.18,4,4,0,0,0,5.89,0A4.51,4.51,0,0,0,162.31,67.28Z"/><path class="cls-1" d="M168.11,60.36h3.12v5.74l5.27-5.75h3.85l-5.54,6.18,2.66,3.72,2.91,4.07h-3.64l-4.1-5.5-1.4,1.55v4h-3.12Z"/><path class="cls-2" d="M201.17,224.6c0,2.75-1.95,5-4.35,5l-155.68.16c-2.4,0-4.36-2.24-4.36-5L36.57,32.24c0-2.75,2-5,4.36-5l155.67-.16c2.4,0,4.37,2.24,4.37,5Z"/><line class="cls-2" x1="178.67" y1="107.7" x2="61.41" y2="108.02"/><line class="cls-2" x1="179.57" y1="126.77" x2="62.31" y2="127.1"/><line class="cls-2" x1="30.09" y1="44.64" x2="42.67" y2="44.63"/><line class="cls-2" x1="30.11" y1="57.6" x2="42.68" y2="57.59"/><line class="cls-2" x1="30.12" y1="70.56" x2="42.69" y2="70.55"/><line class="cls-2" x1="30.13" y1="83.53" x2="42.71" y2="83.51"/><line class="cls-2" x1="30.15" y1="96.49" x2="42.72" y2="96.47"/><line class="cls-2" x1="30.16" y1="109.45" x2="42.74" y2="109.43"/><line class="cls-2" x1="30.18" y1="122.41" x2="42.75" y2="122.39"/><line class="cls-2" x1="30.19" y1="135.37" x2="42.76" y2="135.35"/><line class="cls-2" x1="30.2" y1="148.33" x2="42.78" y2="148.32"/><line class="cls-2" x1="30.22" y1="161.29" x2="42.79" y2="161.28"/><line class="cls-2" x1="30.23" y1="174.25" x2="42.81" y2="174.24"/><line class="cls-2" x1="30.25" y1="187.21" x2="42.82" y2="187.2"/><line class="cls-2" x1="30.26" y1="200.17" x2="42.83" y2="200.16"/><line class="cls-2" x1="30.55" y1="213.26" x2="43.13" y2="213.25"/></svg>