<svg id="Layer_1" data-name="Layer 1" xmlns="http://www.w3.org/2000/svg" viewBox="0 0 250 250"><defs><style>.cls-1{fill:none;stroke:#333;stroke-linecap:round;stroke-linejoin:round;stroke-width:7px;}</style></defs><path class="cls-1" d="M66.78,211.23a42.15,42.15,0,0,1,24.69-5.17l58.33,7.84a4.46,4.46,0,0,0,3.15-.76l73.9-51.48a4.49,4.49,0,0,0,1.31-5.93h0a17.81,17.81,0,0,0-23.31-7l-52.33,26"/><path class="cls-1" d="M111.19,178.17l29.58,2.9a12,12,0,0,0,13.06-10.73h0a11.94,11.94,0,0,0-10.72-13.06l-25.21-2.47a22,22,0,0,1-8.26-2.51l-2.75-1.48a46.82,46.82,0,0,0-44.53.14l-15,7.23"/><polyline class="cls-1" points="28.77 157.99 44.65 151.79 71.07 219.47 53.51 226.33"/><line class="cls-1" x1="33.89" y1="169.76" x2="40.54" y2="167.17"/><line class="cls-1" x1="208.15" y1="150.73" x2="208.15" y2="150.73"/><path class="cls-1" d="M127.15,119.39c0-4.86-4-9.11-9.69-10.37h0A54.64,54.64,0,0,0,94,109h0c-5.71,1.26-9.68,5.51-9.68,10.37v17.42h0"/><line class="cls-1" x1="97.8" y1="127.15" x2="97.8" y2="136.81"/><line class="cls-1" x1="113.66" y1="140.03" x2="113.66" y2="127.15"/><path class="cls-1" d="M170,154.08V119.39c0-4.86-4-9.11-9.69-10.37h0a54.6,54.6,0,0,0-23.46,0h0c-5.72,1.26-9.69,5.51-9.69,10.37v26.46"/><line class="cls-1" x1="140.64" y1="127.15" x2="140.64" y2="146.47"/><line class="cls-1" x1="156.5" y1="150.46" x2="156.5" y2="127.15"/><path class="cls-1" d="M212.83,136.63V119.39c0-4.86-4-9.11-9.69-10.37h0a54.6,54.6,0,0,0-23.46,0h0c-5.72,1.26-9.69,5.51-9.69,10.37"/><line class="cls-1" x1="183.48" y1="127.15" x2="183.48" y2="147.16"/><line class="cls-1" x1="199.34" y1="139.25" x2="199.34" y2="127.15"/><path class="cls-1" d="M105.19,76.44h1.07A8.53,8.53,0,0,1,114.74,86l-.53,4.62a8.53,8.53,0,0,1-8.48,7.55h0a8.53,8.53,0,0,1-8.48-7.55L96.71,86A8.54,8.54,0,0,1,105.19,76.44Z"/><path class="cls-1" d="M126.61,49.45h1.07A8.54,8.54,0,0,1,136.16,59l-.53,4.62a8.54,8.54,0,0,1-8.48,7.55h0a8.53,8.53,0,0,1-8.48-7.55L118.13,59A8.54,8.54,0,0,1,126.61,49.45Z"/><path class="cls-1" d="M169.45,49.45h1.08A8.54,8.54,0,0,1,179,59l-.54,4.62A8.54,8.54,0,0,1,170,71.15h0a8.54,8.54,0,0,1-8.48-7.55L161,59A8.54,8.54,0,0,1,169.45,49.45Z"/><path class="cls-1" d="M148,76.44h1.08A8.54,8.54,0,0,1,157.59,86l-.54,4.62a8.53,8.53,0,0,1-8.48,7.55h0a8.53,8.53,0,0,1-8.48-7.55L139.55,86A8.54,8.54,0,0,1,148,76.44Z"/><path class="cls-1" d="M190.87,76.44H192A8.54,8.54,0,0,1,200.43,86l-.54,4.62a8.53,8.53,0,0,1-8.48,7.55h0a8.53,8.53,0,0,1-8.48-7.55L182.39,86A8.54,8.54,0,0,1,190.87,76.44Z"/><path class="cls-1" d="M148,22.47h1.08A8.54,8.54,0,0,1,157.59,32l-.54,4.63a8.54,8.54,0,0,1-8.48,7.55h0a8.54,8.54,0,0,1-8.48-7.55L139.55,32A8.54,8.54,0,0,1,148,22.47Z"/></svg>