<svg id="Layer_1" data-name="Layer 1" xmlns="http://www.w3.org/2000/svg" viewBox="0 0 250 250"><defs><style>.cls-1{fill:#fff;}.cls-2{fill:none;stroke:#fff;stroke-miterlimit:10;stroke-width:7px;}</style></defs><path class="cls-1" d="M125,12.81A111.8,111.8,0,0,0,49.05,206.7q3.35,3.09,6.93,5.92a112.67,112.67,0,0,0,18.39,11.77l.67.33c2,1,4.12,2,6.23,2.89h0a110.39,110.39,0,0,0,15,5.14c2.3.62,4.62,1.16,7,1.62a111.92,111.92,0,0,0,18.25,2.08c1.17,0,2.34.06,3.52.06s2.32,0,3.48-.07a112.46,112.46,0,0,0,18.43-2.1c1.38-.27,2.75-.58,4.12-.9,0-.23,0-.45,0-.68V214.31h-4.31l.06,6.72.08,6.2a105.16,105.16,0,0,1-18.33,2.22V213.72a14.37,14.37,0,0,1-7-4.56v20.29a104.46,104.46,0,0,1-18.17-2.19l.08-6.24.61-65.63a3.5,3.5,0,0,0-3.47-3.53h0a3.5,3.5,0,0,0-3.5,3.47l-.33,36.12c-.05.09-.1.17-.14.26-1.65,4.35-3.89,7-6,7.17H90.4c-2,.21-2.69-.41-2.9-.62-2.09-2-1.7-8.73-1.47-12.75.08-1.28.15-2.49.16-3.57l0-.9c.22-13.79.53-32.69,2.43-40.57a1.42,1.42,0,0,0,0-.2c.66-3.6,21.4-9.22,48-7.42a78.66,78.66,0,0,1,18,2.94,14.36,14.36,0,0,1,7.54-4.45c-6.28-3.4-16.2-4.87-25-5.47a153.32,153.32,0,0,0-34.54,1.57c-12.94,2.27-19.76,6-20.83,11.47-2.07,8.68-2.37,27.16-2.61,42v.89c0,.94-.09,2.08-.16,3.28-.36,6.23-.81,14,3.62,18.22a9.69,9.69,0,0,0,6.94,2.61,14.6,14.6,0,0,0,1.46-.08,10.58,10.58,0,0,0,5.5-2.12l-.16,17.2-.06,4.6a103.74,103.74,0,0,1-15-5.54v-8.55a3.49,3.49,0,0,0-3.49-3.51h0a3.5,3.5,0,0,0-3.5,3.49v5a105.87,105.87,0,0,1-18.3-12.83l.19-14L56.89,124a3.5,3.5,0,0,0-7-.07L49.55,160a2.24,2.24,0,0,0-.13.27c-1.65,4.35-3.9,7-6,7.16l-.14,0c-2,.21-2.69-.42-2.91-.62-2.09-2-1.7-8.74-1.46-12.76.07-1.28.14-2.48.16-3.57v-.88c.23-13.8.53-32.7,2.44-40.59a1.06,1.06,0,0,1,0-.19c.17-.94,3.58-4.1,16.57-6.17a146.31,146.31,0,0,1,34.56-1,3.5,3.5,0,0,0,.64-7A154.62,154.62,0,0,0,57,95.77C43.11,98,35.8,101.83,34.69,107.49c-2.06,8.68-2.36,27.17-2.61,42v.88c0,.94-.08,2.07-.15,3.28-.36,6.23-.81,14,3.62,18.22a9.67,9.67,0,0,0,6.94,2.6c.47,0,1,0,1.46-.08a10.5,10.5,0,0,0,5.5-2.12l-.16,17.2-.1,7.51a104.83,104.83,0,1,1,180.67-72.36,103.74,103.74,0,0,1-7.65,39.4,14.42,14.42,0,0,1,6.43,2.77,110.85,110.85,0,0,0,8.22-42.17A112,112,0,0,0,125,12.81Z"/><path class="cls-1" d="M66.1,48.45a22.31,22.31,0,0,0,11,41.71,22.38,22.38,0,1,0-11-41.71ZM92.67,67.71A15.31,15.31,0,1,1,77.36,52.4,15.36,15.36,0,0,1,92.67,67.71Z"/><path class="cls-1" d="M197.34,120.44h0a3.5,3.5,0,0,0-3.47,3.53l.09,8.78A14.46,14.46,0,0,1,201,142l-.17-18.09A3.49,3.49,0,0,0,197.34,120.44Z"/><path class="cls-1" d="M218.19,151.36l-2-43.14a8.73,8.73,0,0,0-3.31-6.29c-8.31-7.2-33.85-9-53.66-7.1a3.5,3.5,0,0,0,.68,7c20.53-2,42.69.48,48.4,5.42a2.33,2.33,0,0,1,.9,1.32l1.95,43.14c.06,1.15.17,2.33.29,3.48.42,4.25.5,6.93-.64,8.7h7.47a29.12,29.12,0,0,0,.13-9.39C218.33,153.37,218.23,152.33,218.19,151.36Z"/><path class="cls-1" d="M201.44,163.86h2.66a17.33,17.33,0,0,1-2.66-4.81Z"/><path class="cls-1" d="M183.19,87.11a22.29,22.29,0,1,0-11.25,3A22.33,22.33,0,0,0,183.19,87.11ZM156.64,67.86a15.3,15.3,0,1,1,15.3,15.3A15.37,15.37,0,0,1,156.64,67.86Z"/><path class="cls-1" d="M146.13,155.39l.08,8.47H151V152.14a3.45,3.45,0,0,0-1.36-.28h0A3.5,3.5,0,0,0,146.13,155.39Z"/><path class="cls-1" d="M168.48,141a3.61,3.61,0,0,1,.14.81h0l0-.81Z"/><path class="cls-1" d="M113.23,79.88a22.3,22.3,0,1,0,11.26-3A22.36,22.36,0,0,0,113.23,79.88Zm26.56,19.25a15.31,15.31,0,1,1-15.3-15.3A15.37,15.37,0,0,1,139.79,99.13Z"/><path class="cls-1" d="M201,142l.15,16.46a2,2,0,0,1,.15.29,2.88,2.88,0,0,0,.13.31V145.4A14.16,14.16,0,0,0,201,142Z"/><path class="cls-2" d="M219.9,173.86H191.44V145.4A4.43,4.43,0,0,0,187,141H165.41A4.43,4.43,0,0,0,161,145.4v28.46H132.53a4.43,4.43,0,0,0-4.42,4.42v21.61a4.43,4.43,0,0,0,4.42,4.42H161v28.46a4.43,4.43,0,0,0,4.42,4.42H187a4.43,4.43,0,0,0,4.42-4.42V204.31H219.9a4.43,4.43,0,0,0,4.42-4.42V178.28A4.43,4.43,0,0,0,219.9,173.86Z"/></svg>