<?xml version="1.0" encoding="utf-8"?>
<!-- Generator: Adobe Illustrator 25.3.1, SVG Export Plug-In . SVG Version: 6.00 Build 0)  -->
<svg version="1.1" id="Layer_1" xmlns="http://www.w3.org/2000/svg" xmlns:xlink="http://www.w3.org/1999/xlink" x="0px" y="0px"
	 viewBox="0 0 250 250" style="enable-background:new 0 0 250 250;" xml:space="preserve">
<style type="text/css">
	.st0{fill:none;stroke:#333333;stroke-width:7;stroke-linecap:round;stroke-linejoin:round;}
</style>
<path class="st0" d="M108.6,234v-17.9c0,0,13.4-10.1,13.4-22.4v-8.9"/>
<path class="st0" d="M63.8,180.4l35.8-35.8c8.2-8.2,19.5,11.8,9,22.4l-9,8.9v9c0,17.5-15.9,22.4-18.6,22.4"/>
<path class="st0" d="M77.2,131.1l-22.4,22.4c-4.5,4.5-9,9-9,17.9V234"/>
<polyline class="st0" points="99.6,184.8 207,184.8 207,23.8 77.2,23.8 77.2,166.9 "/>
<ellipse class="st0" cx="117.5" cy="61.8" rx="13.4" ry="15.7"/>
<path class="st0" d="M99.6,90.9c0-7.4,8-13.4,17.9-13.4s17.9,6,17.9,13.4"/>
<line class="st0" x1="153.3" y1="55.1" x2="184.6" y2="55.1"/>
<line class="st0" x1="153.3" y1="73" x2="184.6" y2="73"/>
<line class="st0" x1="153.3" y1="90.9" x2="184.6" y2="90.9"/>
<line class="st0" x1="99.6" y1="108.8" x2="184.6" y2="108.8"/>
<line class="st0" x1="126.4" y1="126.7" x2="184.6" y2="126.7"/>
</svg>
