<svg id="Layer_1" data-name="Layer 1" xmlns="http://www.w3.org/2000/svg" viewBox="0 0 250 250"><defs><style>.cls-1{fill:none;stroke:#fff;stroke-linecap:round;stroke-linejoin:round;stroke-width:7px;}</style></defs><path class="cls-1" d="M85.79,19.92c-38.66,0-70,29.47-70,65.82s31.34,65.81,70,65.81a73.89,73.89,0,0,0,22.08-3.35c7.86,7.81,12.2,10.59,26.41,18.23l.14-33.37a63.8,63.8,0,0,0,21.36-47.32c0-36.35-31.34-65.82-70-65.82Z"/><path class="cls-1" d="M73.62,64.09c7.52-13.68,28.63-14.56,28.63,4.29C102.25,81.24,86,80.46,86,96.05"/><path class="cls-1" d="M86,114.6a22.09,22.09,0,0,0-.11,2.21"/><line class="cls-1" x1="183.9" y1="122.99" x2="179.26" y2="164.83"/><path class="cls-1" d="M178.09,183.35a20,20,0,0,0-.25,2.19"/><path class="cls-1" d="M112.49,232.13l-.14-33.37A63.78,63.78,0,0,1,91,151.44"/><path class="cls-1" d="M161,85.62c38.66,0,70,29.47,70,65.82s-31.34,65.81-70,65.81a73.94,73.94,0,0,1-22.08-3.35c-7.86,7.81-12.2,10.59-26.41,18.23"/><path class="cls-1" d="M159.39,183.35a20,20,0,0,0-.25,2.19"/><path class="cls-1" d="M140.7,183.35a17.83,17.83,0,0,0-.25,2.19"/></svg>