<svg id="Layer_1" data-name="Layer 1" xmlns="http://www.w3.org/2000/svg" viewBox="0 0 250 250"><defs><style>.cls-1{fill:none;stroke:#fff;stroke-linecap:round;stroke-linejoin:round;stroke-width:7px;}</style></defs><path class="cls-1" d="M72.61,217.55a42.09,42.09,0,0,1,24.69-5.17l58.33,7.84a4.49,4.49,0,0,0,3.16-.76L232.68,168a4.46,4.46,0,0,0,1.31-5.92h0a17.8,17.8,0,0,0-23.3-7l-52.34,26"/><path class="cls-1" d="M117,184.49l29.59,2.9a12,12,0,0,0,13.06-10.73h0a12,12,0,0,0-10.73-13.06l-25.2-2.47a22.15,22.15,0,0,1-8.26-2.51l-2.76-1.48a46.8,46.8,0,0,0-44.52.14l-15,7.23"/><polyline class="cls-1" points="34.6 164.31 50.49 158.11 76.91 225.79 59.35 232.64"/><line class="cls-1" x1="39.72" y1="176.08" x2="46.37" y2="173.49"/><line class="cls-1" x1="213.99" y1="157.05" x2="213.99" y2="157.05"/><rect class="cls-1" x="73.2" y="33.98" width="32.41" height="105.79"/><path class="cls-1" d="M95.38,120.58a6,6,0,1,1-6-6A6,6,0,0,1,95.38,120.58Z"/><path class="cls-1" d="M95.38,53.17a6,6,0,1,1-6-6A6,6,0,0,1,95.38,53.17Z"/><line class="cls-1" x1="95.38" y1="81.91" x2="83.44" y2="81.91"/><line class="cls-1" x1="95.38" y1="91.83" x2="83.44" y2="91.83"/><circle class="cls-1" cx="121.82" cy="120.58" r="5.97"/><circle class="cls-1" cx="121.82" cy="53.17" r="5.97"/><rect class="cls-1" x="105.62" y="33.98" width="32.41" height="105.79"/><line class="cls-1" x1="127.79" y1="91.83" x2="115.86" y2="91.83"/><line class="cls-1" x1="127.79" y1="81.91" x2="115.86" y2="81.91"/><path class="cls-1" d="M181.57,115.94a6,6,0,1,1-7.19-4.41A6,6,0,0,1,181.57,115.94Z"/><path class="cls-1" d="M165.87,50.38A6,6,0,1,1,158.68,46,6,6,0,0,1,165.87,50.38Z"/><rect class="cls-1" x="151.71" y="31.66" width="32.41" height="105.79" transform="translate(-15.07 41.43) rotate(-13.47)"/><line class="cls-1" x1="174.88" y1="87.99" x2="163.27" y2="90.77"/><line class="cls-1" x1="172.56" y1="78.34" x2="160.96" y2="81.12"/></svg>