<svg id="Layer_1" data-name="Layer 1" xmlns="http://www.w3.org/2000/svg" viewBox="0 0 250 250"><defs><style>.cls-1{fill:none;stroke:#fff;stroke-linecap:round;stroke-linejoin:round;stroke-width:7px;}</style></defs><path class="cls-1" d="M97.11,150c0,12.33,8.53,20.93,19.06,20.93s19-8.6,19-20.93c0-24.08-38.11-23.35-38.11,0ZM77,226.64h78.35V203.05a19.35,19.35,0,0,0-19.26-19.27H96.26A19.32,19.32,0,0,0,77,203.05v23.59Zm19.44-.95V203.6m39.48,0v22.09M116.17,103.78v-82m-22,18.58,22-21.95,22,21.95m30.26,111.19H223m-19.9-21.95,22,21.95-22,21.95M82.38,117.77,44.22,79.61m-7.25,24v-31H68m.37,78.94H13.73m19.89-21.95L11.67,151.56l21.95,21.95M150,117.77l38.17-38.16m7.25,24v-31H164.32"/></svg>