<svg id="Layer_1" data-name="Layer 1" xmlns="http://www.w3.org/2000/svg" viewBox="0 0 250 250"><defs><style>.cls-1{fill:#fff;}.cls-2{fill:none;stroke:#fff;stroke-linecap:round;stroke-linejoin:round;stroke-width:7px;}</style></defs><path class="cls-1" d="M222,177.38a4.22,4.22,0,0,0-.14-.69,3.4,3.4,0,0,0-.2-.71s0-.07,0-.1L197.5,127.61a3.6,3.6,0,0,0-3.22-2H170.14a3.6,3.6,0,1,0,0,7.2h21.91l20.54,41.07H31.14l20.54-41.07H73.59a3.6,3.6,0,1,0,0-7.2H49.46a3.58,3.58,0,0,0-3.22,2L22.1,175.88s0,.07,0,.1a4.12,4.12,0,0,0-.19.71,3.38,3.38,0,0,0-.14.69s0,.07,0,.11v48.27a3.61,3.61,0,0,0,3.6,3.61h193.1a3.61,3.61,0,0,0,3.6-3.61V177.49S222,177.42,222,177.38Zm-7.18,44.78H28.92V181.09h185.9Z"/><path class="cls-1" d="M182.21,157H61.53a3.6,3.6,0,0,1,0-7.2H182.21a3.6,3.6,0,0,1,0,7.2Z"/><path class="cls-2" d="M167.34,150.39a1.43,1.43,0,0,1-1.43,1.43H77.83a1.44,1.44,0,0,1-1.44-1.43V27.08a1.45,1.45,0,0,1,1.44-1.44H165.9a1.45,1.45,0,0,1,1.44,1.44Z"/><ellipse class="cls-2" cx="105.79" cy="58.1" rx="9.08" ry="10.6"/><path class="cls-2" d="M93.69,77.77c0-5,5.42-9.08,12.1-9.08s12.11,4.07,12.11,9.08"/><line class="cls-2" x1="130.01" y1="53.56" x2="151.2" y2="53.56"/><line class="cls-2" x1="130.01" y1="77.81" x2="151.2" y2="77.81"/><line class="cls-2" x1="93.69" y1="102.07" x2="151.2" y2="102.07"/><line class="cls-2" x1="94.78" y1="126.32" x2="152.29" y2="126.32"/></svg>