<svg id="Layer_1" data-name="Layer 1" xmlns="http://www.w3.org/2000/svg" viewBox="0 0 250 250"><defs><style>.cls-1{fill:#fff;}.cls-2{fill:none;stroke:#fff;stroke-linecap:round;stroke-linejoin:round;stroke-width:7px;}</style></defs><polygon class="cls-1" points="111.1 19.82 111.1 26.49 211.15 26.49 211.15 226.6 111.84 226.6 111.7 233.27 217.82 233.27 217.82 19.82 111.1 19.82"/><rect class="cls-1" x="137.78" y="53.17" width="56.7" height="6.67"/><polygon class="cls-1" points="183.49 72.21 178.78 67.49 189.76 56.51 178.78 45.53 183.49 40.81 199.19 56.51 183.49 72.21"/><path class="cls-1" d="M184.47,149.89a13.34,13.34,0,1,1,13.34-13.34A13.35,13.35,0,0,1,184.47,149.89Zm0-20a6.67,6.67,0,1,0,6.67,6.67A6.67,6.67,0,0,0,184.47,129.88Z"/><rect class="cls-1" x="124.44" y="213.26" width="73.37" height="6.67"/><path class="cls-2" d="M79.12,159.65,79.07,219c0,14.76,28.5,14.56,28.34-.23l-.53-40.75-.67-72.19"/><path class="cls-2" d="M107,145.51c4,10.43,9.91,11.74,14.11,9.35,6.91-3.93,4.51-12.16,4.21-18.66l-2.15-47.46c-.74-16.36-85-15.15-87.76-.16-2.24,9.28-2.54,30.47-2.8,46.46-.13,7.81-3,23.77,8.88,22.53,3.43-.22,7.18-3.06,9.95-10.36"/><path class="cls-2" d="M52.18,105.86l-.67,72.19L51,218.8c-.16,14.79,28.1,15,28.09.23"/><path class="cls-2" d="M78.55,23.32a21.07,21.07,0,1,1-10.48,2.85,20.69,20.69,0,0,1,10.48-2.85Z"/></svg>