<?xml version="1.0" encoding="utf-8"?>
<!-- Generator: Adobe Illustrator 25.3.1, SVG Export Plug-In . SVG Version: 6.00 Build 0)  -->
<svg version="1.1" id="Layer_1" xmlns="http://www.w3.org/2000/svg" xmlns:xlink="http://www.w3.org/1999/xlink" x="0px" y="0px"
	 viewBox="0 0 250 250" style="enable-background:new 0 0 250 250;" xml:space="preserve">
<style type="text/css">
	.st0{fill:#C0E1F5;}
	.st1{fill:none;stroke:#027353;stroke-width:7;stroke-miterlimit:10;}
	.st2{fill:#027353;}
</style>
<g>
	<circle class="st0" cx="125.5" cy="125.5" r="124.5"/>
</g>
<g>
	<g>
		<path class="st2" d="M102.8,129L84.2,83.8c-0.5-1.3-1.9-2.1-3.2-2.4c-1.3,0-2.7,0.8-3.5,2.1L56,129c-1.1,0.5-1.9,1.9-1.9,3.2
			c0,13.8,11.2,25,25,25.2c0,0,0,0,0.3,0h0.3c0,0,0,0,0.3,0c13.8-0.3,25-11.4,25-25.2C104.6,130.8,103.8,129.5,102.8,129z
			 M80.7,94.2l14.1,34.3H64.5L80.7,94.2z M79.4,150c-8.5,0-15.4-6.1-17.3-14.1h34.6C95.1,143.9,87.9,149.7,79.4,150z"/>
		<path class="st2" d="M172.1,205H81c-2.1,0-3.7-1.6-3.7-3.7s1.6-3.7,3.7-3.7h91.2c2.1,0,3.7,1.6,3.7,3.7
			C175.9,203.4,174.3,205,172.1,205z"/>
		<path class="st2" d="M194.7,128.7l-18.6-45.2c-0.5-1.3-1.9-2.1-3.2-2.4c-1.3,0-2.7,0.8-3.5,2.1L148,128.7
			c-1.1,0.5-1.9,1.9-1.9,3.2c0,13.8,11.2,25,25,25.2c0,0,0,0,0.3,0h0.3c0,0,0,0,0.3,0c13.8-0.3,25-11.4,25-25.2
			C196.6,130.6,195.8,129.3,194.7,128.7z M172.7,93.9l14.1,34.3h-30.3L172.7,93.9z M171.3,149.7c-8.5,0-15.4-6.1-17.3-14.1h34.6
			C187,143.6,179.9,149.5,171.3,149.7z"/>
		<path class="st2" d="M172.1,66h-34c-1.1-3.7-4.3-6.9-8-8v-9.3c0-2.1-1.6-3.7-3.5-3.7c-2.1,0-3.7,1.6-3.7,3.7V58
			c-3.7,1.3-6.6,4.3-7.7,8H81c-2.1,0-3.7,1.6-3.7,3.7s1.6,3.7,3.7,3.7h34.3c1.3,3.5,4,6.4,7.7,7.4v103.4H99.6
			c-2.1,0-3.7,1.6-3.7,3.7s1.6,3.7,3.7,3.7h54c2.1,0,3.7-1.6,3.7-3.7s-1.6-3.7-3.7-3.7h-23.4V80.9c3.7-1.1,6.6-4,7.7-7.7h34.3
			c2.1,0,3.7-1.6,3.7-3.7S174.3,66,172.1,66z M126.7,74.2c-2.7,0-4.8-2.1-4.8-4.8s2.1-4.8,4.8-4.8c2.7,0,4.8,2.1,4.8,4.8
			S129.4,74.2,126.7,74.2z"/>
	</g>
</g>
</svg>
