<svg id="Layer_1" data-name="Layer 1" xmlns="http://www.w3.org/2000/svg" viewBox="0 0 250 250"><defs><style>.cls-1{fill:none;stroke:#fff;stroke-linecap:round;stroke-linejoin:round;stroke-width:7px;}</style></defs><ellipse class="cls-1" cx="116.43" cy="110.07" rx="14.4" ry="16.8"/><path class="cls-1" d="M97.22,141.28c0-8,8.6-14.41,19.21-14.41s19.2,6.45,19.2,14.41"/><line class="cls-1" x1="154.84" y1="102.87" x2="188.44" y2="102.87"/><line class="cls-1" x1="154.84" y1="122.07" x2="188.44" y2="122.07"/><line class="cls-1" x1="154.84" y1="141.28" x2="188.44" y2="141.28"/><line class="cls-1" x1="97.22" y1="160.48" x2="188.44" y2="160.48"/><line class="cls-1" x1="97.22" y1="179.69" x2="145.23" y2="179.69"/><path class="cls-1" d="M209.71,90.81c-54.9-.83-44.25,9.59-45.14-45.13l45.14,45.13Zm0,67.38V90.81L164.57,45.68H121.09m-29.16,182H202.78a7,7,0,0,0,6.93-6.93v-130L164.57,45.68H82.88A7,7,0,0,0,76,52.61V220.77a7,7,0,0,0,6.92,6.93c27.51-.09,83.54.06,110.86,0"/><polyline class="cls-1" points="58.86 214.87 50.02 215.99 27.06 34.99 165.19 17.47 167.38 34.74"/></svg>