<svg id="Layer_1" data-name="Layer 1" xmlns="http://www.w3.org/2000/svg" viewBox="0 0 250 250"><defs><style>.cls-1{fill:none;stroke:#333;stroke-linecap:round;stroke-linejoin:round;stroke-width:7px;}</style></defs><path class="cls-1" d="M93.65,154.51c0,12.33,8.53,20.92,19.06,20.92s19-8.59,19-20.92c0-24.09-38.11-23.35-38.11,0ZM73.54,231.16h78.34V207.57a19.34,19.34,0,0,0-19.26-19.27H92.8a19.32,19.32,0,0,0-19.26,19.27v23.59ZM93,230.21V208.12m39.48,0v22.09M112.71,108.29v-82M90.76,44.89l21.95-22,22,22m30.26,111.19h54.66m-19.89-22,21.95,22L199.69,178M78.92,122.29,40.76,84.12m-7.25,24.06V77.13H64.56m.37,79H10.27m19.9-22-22,22,22,21.95M146.5,122.29l38.16-38.17m7.25,24.06V77.13h-31"/></svg>