<svg id="Layer_1" data-name="Layer 1" xmlns="http://www.w3.org/2000/svg" viewBox="0 0 250 250"><defs><style>.cls-1{fill:#fff;}.cls-2{fill:none;stroke:#fff;stroke-linecap:round;stroke-linejoin:round;stroke-width:7px;}</style></defs><path class="cls-1" d="M79.3,145.61h0a11.84,11.84,0,0,1-2.45-.25c-7.06-1.48-11.52-9-9.95-16.86,1.37-6.83,6.93-11.78,13.24-11.78a11.91,11.91,0,0,1,2.45.25c7,1.48,11.51,9,10,16.86C91.17,140.66,85.6,145.61,79.3,145.61ZM80.14,122c-3.81,0-7.21,3.18-8.09,7.56-1,5,1.63,9.8,5.87,10.69a7.18,7.18,0,0,0,1.38.14c3.8,0,7.21-3.18,8.08-7.56,1-5-1.63-9.8-5.87-10.69A7,7,0,0,0,80.14,122Z"/><path class="cls-1" d="M148,219.17a2.62,2.62,0,0,1-2.62-2.62V179.77H95.48a2.63,2.63,0,1,1,0-5.26H148a2.63,2.63,0,0,1,2.63,2.63v39.41A2.62,2.62,0,0,1,148,219.17Z"/><path class="cls-1" d="M141,169.26H121.75a2.63,2.63,0,0,1,0-5.26H141a2.63,2.63,0,0,1,0,5.26Z"/><path class="cls-1" d="M127,219.17a2.62,2.62,0,0,1-2.63-2.62V177.14a2.63,2.63,0,1,1,5.25,0v39.41A2.62,2.62,0,0,1,127,219.17Z"/><path class="cls-1" d="M90.23,206H47.93a5.25,5.25,0,0,1-5.23-4.71l-.85-8.15L38,156.78A5.26,5.26,0,0,1,43.23,151H64.28a5.28,5.28,0,0,1,5.21,4.56l4.64,34.75h16.1a5.26,5.26,0,0,1,5.25,5.25v5.25A5.26,5.26,0,0,1,90.23,206Zm-47-49.81,3.84,36.4.86,8.15h42.3v-5.25H71.83a2.63,2.63,0,0,1-2.6-2.28l-5-37Z"/><path class="cls-1" d="M82.34,221.8a2.62,2.62,0,0,1-2.62-2.63v-2.62H53.44v2.62a2.63,2.63,0,1,1-5.25,0v-2.62a5.26,5.26,0,0,1,5.25-5.26H79.72A5.26,5.26,0,0,1,85,216.55v2.62A2.63,2.63,0,0,1,82.34,221.8Z"/><path class="cls-1" d="M66.58,216.55A2.63,2.63,0,0,1,64,213.92V203.41a2.63,2.63,0,0,1,5.26,0v10.51A2.63,2.63,0,0,1,66.58,216.55Z"/><path class="cls-1" d="M113.87,177.14a2.63,2.63,0,0,1-2.63-2.63v-2.62a2.63,2.63,0,0,0-2.62-2.63H98.11a2.64,2.64,0,0,1-2.48-1.75l-5.94-16.66a7.91,7.91,0,0,0-7.43-5.24H67.85A7.82,7.82,0,0,0,60.79,150l-2.36,4.77a2.63,2.63,0,0,1-4.71-2.34l2.36-4.76a13,13,0,0,1,11.77-7.31H82.26a13.17,13.17,0,0,1,12.38,8.72L100,164h8.66a7.9,7.9,0,0,1,7.88,7.89v2.62A2.63,2.63,0,0,1,113.87,177.14Z"/><path class="cls-1" d="M102.31,221.8a10.57,10.57,0,0,1-10.4-9l-1.66-11.62a2.63,2.63,0,1,1,5.2-.75L97.11,212a5.29,5.29,0,0,0,5.2,4.51.75.75,0,0,0,.56-.25.78.78,0,0,0,.2-.57l-2-24.25a2.62,2.62,0,0,0-1.89-2.3l-14.9-4.26a2.63,2.63,0,0,1-1.91-2.53V164a2.63,2.63,0,0,1,5.26,0v16.41l13,3.71a7.93,7.93,0,0,1,5.69,6.93l2,24.25a6,6,0,0,1-6,6.5Z"/><path class="cls-1" d="M137.51,179.77a2.73,2.73,0,0,1-.83-.14,2.63,2.63,0,0,1-1.66-3.32l12-35.95H110.51l-5.32,15.94a2.63,2.63,0,1,1-5-1.67l5.91-17.73a2.64,2.64,0,0,1,2.5-1.8h42a2.63,2.63,0,0,1,2.49,3.46L140,178A2.64,2.64,0,0,1,137.51,179.77Z"/><line class="cls-2" x1="175.24" y1="70.44" x2="175.24" y2="81.52"/><line class="cls-2" x1="147.54" y1="70.44" x2="147.54" y2="81.52"/><line class="cls-2" x1="202.93" y1="70.44" x2="202.93" y2="81.52"/><line class="cls-2" x1="175.24" y1="37.21" x2="175.24" y2="48.28"/><line class="cls-2" x1="147.54" y1="37.21" x2="147.54" y2="48.28"/><line class="cls-2" x1="202.93" y1="37.21" x2="202.93" y2="48.28"/><line class="cls-2" x1="202.93" y1="103.67" x2="202.93" y2="114.75"/><line class="cls-2" x1="202.93" y1="136.9" x2="202.93" y2="147.98"/><line class="cls-2" x1="202.93" y1="167.27" x2="202.93" y2="178.35"/><line class="cls-2" x1="202.93" y1="200.5" x2="202.93" y2="211.58"/><polyline class="cls-2" points="13.1 232.5 24.18 232.5 134.94 232.5 162.64 232.5 190.33 232.5 218.02 232.5 229.1 232.5"/><polyline class="cls-2" points="24.18 232.5 24.18 96.59 176.48 96.59 176.48 164.55 176.48 232.5"/><polyline class="cls-2" points="121.75 92.42 121.75 21.05 225.57 21.05 225.57 126.78 225.57 232.5"/></svg>