<svg id="Layer_1" data-name="Layer 1" xmlns="http://www.w3.org/2000/svg" viewBox="0 0 250 250"><defs><style>.cls-1{fill:none;stroke:#fff;stroke-linecap:round;stroke-linejoin:round;stroke-width:7px;}</style></defs><polygon class="cls-1" points="221.57 125 221.57 208.08 193.88 208.08 193.88 169.31 166.19 169.31 166.19 208.08 138.5 208.08 138.5 125 221.57 125"/><rect class="cls-1" x="166.19" y="169.31" width="27.69" height="38.77"/><polygon class="cls-1" points="138.5 125 138.5 208.08 27.73 208.08 27.73 41.92 138.5 41.92 138.5 125"/><polyline class="cls-1" points="16.65 208.08 27.73 208.08 138.5 208.08 166.19 208.08 193.88 208.08 221.57 208.08 232.65 208.08"/><polyline class="cls-1" points="27.73 208.08 27.73 41.92 138.5 41.92 138.5 125 138.5 208.08"/><line class="cls-1" x1="83.11" y1="102.85" x2="83.11" y2="113.92"/><line class="cls-1" x1="55.42" y1="102.85" x2="55.42" y2="113.92"/><line class="cls-1" x1="110.8" y1="102.85" x2="110.8" y2="113.92"/><line class="cls-1" x1="83.11" y1="69.62" x2="83.11" y2="80.69"/><line class="cls-1" x1="55.42" y1="69.62" x2="55.42" y2="80.69"/><line class="cls-1" x1="110.8" y1="69.62" x2="110.8" y2="80.69"/><line class="cls-1" x1="83.11" y1="136.08" x2="83.11" y2="147.15"/><line class="cls-1" x1="55.42" y1="136.08" x2="55.42" y2="147.15"/><line class="cls-1" x1="113.3" y1="136.08" x2="113.3" y2="147.15"/><line class="cls-1" x1="83.11" y1="169.31" x2="83.11" y2="180.38"/><line class="cls-1" x1="55.42" y1="169.31" x2="55.42" y2="180.38"/><line class="cls-1" x1="113.3" y1="169.31" x2="113.3" y2="180.38"/><polyline class="cls-1" points="138.5 125 221.57 125 221.57 208.08"/></svg>