<svg id="Layer_1" data-name="Layer 1" xmlns="http://www.w3.org/2000/svg" viewBox="0 0 250 250"><defs><style>.cls-1{fill:none;stroke:#333;stroke-linecap:round;stroke-linejoin:round;stroke-width:7px;}</style></defs><line class="cls-1" x1="98" y1="165.37" x2="98" y2="111.46"/><polyline class="cls-1" points="230.11 111.46 230.11 225.24 136.26 225.24"/><rect class="cls-1" x="152.99" y="84.79" width="22.14" height="140.45"/><polyline class="cls-1" points="151.53 111.46 91.06 111.46 91.06 84.79 237.05 84.79 237.05 111.46 176.58 111.46"/><path class="cls-1" d="M149,61.19a14.13,14.13,0,0,0-3.14-.37,14.38,14.38,0,0,0-10.58,24.12"/><path class="cls-1" d="M192.41,85.37a14.38,14.38,0,0,0-10.17-24.55,14.2,14.2,0,0,0-3.14.37"/><path class="cls-1" d="M145.87,60.82A14.34,14.34,0,0,1,156,65"/><path class="cls-1" d="M171.9,65.21a14.31,14.31,0,0,1,10.34-4.39"/><path class="cls-1" d="M142.62,62.92a21.05,21.05,0,0,1,42.1,0"/><ellipse class="cls-1" cx="44.3" cy="170.6" rx="27.88" ry="9.48"/><path class="cls-1" d="M72.18,200.7c0,5.24-12.48,9.48-27.88,9.48s-27.89-4.24-27.89-9.48"/><path class="cls-1" d="M72.18,215.76c0,5.23-12.48,9.48-27.88,9.48S16.41,221,16.41,215.76"/><path class="cls-1" d="M72.18,200.7c0,5.24-12.48,9.48-27.88,9.48s-27.89-4.24-27.89-9.48"/><path class="cls-1" d="M72.18,185.65c0,5.24-12.48,9.48-27.88,9.48s-27.89-4.24-27.89-9.48"/><line class="cls-1" x1="72.18" y1="170.6" x2="72.18" y2="215.76"/><line class="cls-1" x1="16.41" y1="170.6" x2="16.41" y2="215.76"/><ellipse class="cls-1" cx="100.07" cy="185.65" rx="27.88" ry="9.48"/><path class="cls-1" d="M128,200.7c0,5.24-12.48,9.48-27.88,9.48s-27.89-4.24-27.89-9.48"/><path class="cls-1" d="M128,215.76c0,5.23-12.48,9.48-27.88,9.48S72.18,221,72.18,215.76"/><path class="cls-1" d="M128,200.7c0,5.24-12.48,9.48-27.88,9.48s-27.89-4.24-27.89-9.48"/><path class="cls-1" d="M128,200.7c0,5.24-12.48,9.48-27.88,9.48s-27.89-4.24-27.89-9.48"/><line class="cls-1" x1="127.95" y1="185.65" x2="127.95" y2="215.76"/><line class="cls-1" x1="72.18" y1="185.65" x2="72.18" y2="215.76"/><circle class="cls-1" cx="44.3" cy="111.85" r="27.88" transform="translate(-74.68 129.59) rotate(-76.88)"/><line class="cls-1" x1="44.3" y1="39.09" x2="44.3" y2="69.44"/><line class="cls-1" x1="25.55" y1="54.86" x2="25.55" y2="77.86"/><line class="cls-1" x1="63.05" y1="54.86" x2="63.05" y2="77.86"/><line class="cls-1" x1="25.55" y1="47.51" x2="25.55" y2="40.14"/><line class="cls-1" x1="44.3" y1="31.75" x2="44.3" y2="24.37"/><line class="cls-1" x1="63.05" y1="47.51" x2="63.05" y2="40.14"/></svg>