<?xml version="1.0" encoding="UTF-8"?><svg id="Layer_1" xmlns="http://www.w3.org/2000/svg" viewBox="0 0 250 250"><defs><style>.cls-1{fill:#027353;}.cls-2{fill:#cde7f7;}</style></defs><circle class="cls-2" cx="125.6" cy="125.04" r="124.5"/><path class="cls-1" d="M132.42,32.05c-26.34-1.87-51.45,6.96-70.69,24.88-18.97,17.67-29.85,42.67-29.85,68.59,0,22.08,7.88,43.76,22.19,60.58,2.55,3,5.17,5.96,8.08,8.62,2.19,2.01,5.83,5.79,9.05,5.79,1.91,0,3.45-1.54,3.45-3.45v-54.88c0-7.04,5.73-12.78,12.78-12.78h10.22c5.92,0,10.94,4.06,12.36,9.64-3.6,3.54-5.84,8.46-5.84,13.9s2.43,10.74,6.28,14.3v.2c-4.44,3.02-7.12,8-7.12,13.45v32.53c0,1.91,1.54,3.45,3.45,3.45s3.45-1.54,3.45-3.45v-32.52c0-3.57,1.99-6.79,5.22-8.41,.85-.43,1.74-.69,2.65-.85,1.77,.53,3.64,.82,5.58,.82s3.82-.29,5.59-.83c4.5,.75,7.87,4.69,7.87,9.26v33.91c0,1.91,1.54,3.45,3.45,3.45s3.45-1.54,3.45-3.45v-33.91c0-5.54-2.87-10.57-7.26-13.53,3.93-3.57,6.42-8.71,6.42-14.43,0-7.35-4.09-13.76-10.11-17.09v-8.87c0-8.67,7.05-15.72,15.72-15.72h12.04c8.66,0,15.7,7.04,15.7,15.7v61.35c0,3.13,1.79,5.85,4.66,7.11,2.86,1.25,6.05,.72,8.35-1.41,20.75-19.37,31.51-46.79,29.52-75.21-3.21-46.18-40.47-83.48-86.67-86.76h0Zm-39.88,89.4c-9.28,0-16.83-7.55-16.83-16.83s7.55-16.83,16.83-16.83,16.83,7.55,16.83,16.83c0,9.28-7.55,16.83-16.83,16.83Zm43.76,31.51c0,6.96-5.66,12.62-12.62,12.62s-12.62-5.66-12.62-12.62,5.66-12.62,12.62-12.62,12.62,5.66,12.62,12.62Zm18.53-49.43c-11.29,0-20.47-9.18-20.47-20.47s9.18-20.47,20.47-20.47,20.47,9.18,20.47,20.47-9.18,20.47-20.47,20.47Zm30.04,85.44c-.26,.24-.55,.28-.89,.14-.24-.1-.52-.32-.52-.78v-61.35c0-9.39-5.76-17.46-13.92-20.87,7.6-4.87,12.67-13.37,12.67-23.05,0-15.1-12.28-27.38-27.38-27.38-15.09,0-27.38,12.28-27.38,27.38,0,9.68,5.07,18.19,12.67,23.06-8.17,3.42-13.93,11.49-13.93,20.89v6.62c-.82-.11-1.65-.18-2.51-.18-2.74,0-5.34,.57-7.71,1.59-1.88-4.8-5.56-8.63-10.17-10.73,6.31-4.27,10.47-11.5,10.47-19.67,0-13.09-10.65-23.74-23.74-23.74s-23.74,10.65-23.74,23.74c0,8.18,4.16,15.41,10.47,19.68-6.79,3.11-11.53,9.95-11.53,17.89v48.05c-18.46-16.48-28.96-39.79-28.96-64.72s10.08-47.17,27.66-63.54c17.82-16.6,41.1-24.78,65.49-23.05,42.79,3.04,77.3,37.59,80.27,80.36,1.84,26.34-8.12,51.73-27.33,69.67h0Z"/></svg>