<svg id="Layer_1" data-name="Layer 1" xmlns="http://www.w3.org/2000/svg" viewBox="0 0 250 250"><defs><style>.cls-1{fill:#333;}.cls-2{fill:none;stroke:#333;stroke-miterlimit:10;stroke-width:7px;}</style></defs><path class="cls-1" d="M122.39,7.57A111.79,111.79,0,0,0,46.44,201.45q3.35,3.11,6.93,5.93a112.62,112.62,0,0,0,18.39,11.76l.68.34q3.06,1.53,6.22,2.88h0a110.43,110.43,0,0,0,15,5.15q3.45.91,7,1.62a111.91,111.91,0,0,0,18.25,2.07c1.17,0,2.34.06,3.52.06s2.32,0,3.48-.06a112.58,112.58,0,0,0,18.44-2.1c1.37-.28,2.74-.58,4.11-.91,0-.22,0-.45,0-.67V209.06h-4.32l.06,6.73.08,6.2a105,105,0,0,1-18.33,2.22V208.48a14.5,14.5,0,0,1-7-4.57v20.3a104.46,104.46,0,0,1-18.17-2.2l.08-6.24.61-65.62a3.48,3.48,0,0,0-3.46-3.53h0a3.5,3.5,0,0,0-3.5,3.46l-.33,36.13a1.58,1.58,0,0,0-.13.26c-1.66,4.35-3.9,7-6,7.16l-.14,0c-2,.21-2.68-.42-2.9-.62-2.09-2-1.7-8.73-1.47-12.76.08-1.27.15-2.48.17-3.57v-.89c.23-13.8.53-32.69,2.43-40.58a1.29,1.29,0,0,0,0-.19c.66-3.61,21.4-9.22,48-7.42a77.55,77.55,0,0,1,18,2.94,14.4,14.4,0,0,1,7.54-4.45c-6.27-3.41-16.2-4.88-25-5.48A152.72,152.72,0,0,0,100,122.21c-12.94,2.27-19.76,6-20.83,11.46-2.07,8.68-2.37,27.16-2.61,42v.9c0,.94-.08,2.07-.15,3.28-.37,6.23-.82,14,3.62,18.22a9.66,9.66,0,0,0,6.93,2.6,12.29,12.29,0,0,0,1.47-.08A10.5,10.5,0,0,0,94,198.49l-.16,17.2-.06,4.6a105.34,105.34,0,0,1-15-5.53l0-8.56a3.51,3.51,0,0,0-3.5-3.51h0a3.5,3.5,0,0,0-3.5,3.5v5a104.92,104.92,0,0,1-18.29-12.84l.18-14,.61-65.63a3.5,3.5,0,0,0-7-.06l-.34,36.12-.13.26c-1.65,4.35-3.9,7-6,7.17h-.14c-2,.21-2.69-.41-2.9-.62-2.1-2-1.71-8.73-1.47-12.75.07-1.28.14-2.49.16-3.57l0-.89c.22-13.8.53-32.7,2.43-40.59,0-.06,0-.13,0-.19.17-.94,3.58-4.09,16.58-6.17a146.76,146.76,0,0,1,34.55-1,3.5,3.5,0,0,0,.65-7,153.62,153.62,0,0,0-36.31,1.06C40.5,92.75,33.2,96.59,32.08,102.25c-2.06,8.68-2.36,27.17-2.6,42l0,.88c0,.94-.08,2.08-.15,3.28-.36,6.23-.81,14,3.62,18.22a9.67,9.67,0,0,0,6.94,2.6c.47,0,1,0,1.46-.07a10.58,10.58,0,0,0,5.5-2.12l-.16,17.2-.1,7.5a104.83,104.83,0,1,1,180.67-72.35,103.78,103.78,0,0,1-7.65,39.4,14.31,14.31,0,0,1,6.43,2.77,110.66,110.66,0,0,0,8.22-42.17A112,112,0,0,0,122.39,7.57Z"/><path class="cls-1" d="M63.5,43.2a22.32,22.32,0,1,0,11.25-3A22.36,22.36,0,0,0,63.5,43.2ZM90.06,62.46a15.32,15.32,0,1,1-15.31-15.3A15.38,15.38,0,0,1,90.06,62.46Z"/><path class="cls-1" d="M194.74,115.19h0a3.5,3.5,0,0,0-3.46,3.53l.08,8.78a14.51,14.51,0,0,1,7.08,9.24l-.16-18.08A3.51,3.51,0,0,0,194.74,115.19Z"/><path class="cls-1" d="M215.58,146.12l-2-43.15a8.78,8.78,0,0,0-3.31-6.28c-8.32-7.21-33.86-9-53.67-7.1a3.5,3.5,0,0,0,.68,7c20.53-2,42.7.48,48.4,5.43a2.27,2.27,0,0,1,.9,1.31l2,43.14c0,1.15.16,2.34.28,3.48.42,4.25.5,6.94-.64,8.71h7.47a29.12,29.12,0,0,0,.13-9.39C215.73,148.12,215.62,147.08,215.58,146.12Z"/><path class="cls-1" d="M198.83,158.62h2.66a17.33,17.33,0,0,1-2.66-4.81Z"/><path class="cls-1" d="M180.58,81.87a22.31,22.31,0,1,0-11.25,3A22.37,22.37,0,0,0,180.58,81.87ZM154,62.61a15.31,15.31,0,1,1,15.3,15.3A15.37,15.37,0,0,1,154,62.61Z"/><path class="cls-1" d="M143.52,150.15l.08,8.47h4.79V146.89a3.45,3.45,0,0,0-1.37-.27h0A3.49,3.49,0,0,0,143.52,150.15Z"/><path class="cls-1" d="M165.87,135.74a3.61,3.61,0,0,1,.14.81h0l0-.81Z"/><path class="cls-1" d="M110.62,74.63a22.3,22.3,0,1,0,11.26-3A22.37,22.37,0,0,0,110.62,74.63Zm26.56,19.26a15.31,15.31,0,1,1-15.3-15.31A15.34,15.34,0,0,1,137.18,93.89Z"/><path class="cls-1" d="M198.4,136.74l.16,16.46c0,.1.1.19.14.29s.09.21.13.32V140.15A14.29,14.29,0,0,0,198.4,136.74Z"/><path class="cls-2" d="M217.29,168.62H188.83V140.15a4.43,4.43,0,0,0-4.42-4.41H162.8a4.42,4.42,0,0,0-4.41,4.41v28.47H129.92A4.43,4.43,0,0,0,125.5,173v21.62a4.43,4.43,0,0,0,4.42,4.41h28.47v28.47a4.42,4.42,0,0,0,4.41,4.41h21.61a4.43,4.43,0,0,0,4.42-4.41V199.06h28.46a4.43,4.43,0,0,0,4.42-4.41V173A4.43,4.43,0,0,0,217.29,168.62Z"/></svg>