<svg id="Layer_1" data-name="Layer 1" xmlns="http://www.w3.org/2000/svg" viewBox="0 0 250 250"><defs><style>.cls-1{fill:#fff;}</style></defs><path class="cls-1" d="M237.9,59.83a3.24,3.24,0,0,0-3.24-3.24H180a23,23,0,0,0-16.16,6.59L159,67.83a3.24,3.24,0,1,0,4.5,4.66l4.82-4.66A16.53,16.53,0,0,1,180,63.07h54.69A3.24,3.24,0,0,0,237.9,59.83Z"/><path class="cls-1" d="M234.66,100.36h-8.12A29.73,29.73,0,0,0,229.74,87a3.25,3.25,0,0,0-6.49,0c0,13-11.2,23.92-24.46,23.92h-7.48a3.24,3.24,0,1,0,0,6.48h7.48a31.11,31.11,0,0,0,23.38-10.54h12.49a3.24,3.24,0,1,0,0-6.48Z"/><path class="cls-1" d="M187.85,162.77l-4.64-4.8a3.24,3.24,0,0,0-4.66,4.51l4.66,4.82A16.51,16.51,0,0,1,188,178.94v54.68a3.24,3.24,0,1,0,6.48,0V178.94A23,23,0,0,0,187.85,162.77Z"/><path class="cls-1" d="M164.05,222.22c-13,0-23.91-11.21-23.91-24.47v-7.48a3.25,3.25,0,0,0-6.49,0v7.48a31.07,31.07,0,0,0,10.55,23.38v12.49a3.24,3.24,0,0,0,6.48,0V225.5a29.68,29.68,0,0,0,13.37,3.2,3.24,3.24,0,0,0,0-6.48Z"/><path class="cls-1" d="M68.86,82.7a16.5,16.5,0,0,1-4.75-11.64V16.38a3.25,3.25,0,0,0-6.49,0V71.06a23,23,0,0,0,6.6,16.17L68.86,92a3.24,3.24,0,0,0,4.66-4.51Z"/><path class="cls-1" d="M107.88,28.87V16.38a3.25,3.25,0,0,0-6.49,0V24.5A29.68,29.68,0,0,0,88,21.3a3.24,3.24,0,1,0,0,6.48c13,0,23.91,11.21,23.91,24.47v7.48a3.25,3.25,0,0,0,6.49,0V52.25A31.1,31.1,0,0,0,107.88,28.87Z"/><path class="cls-1" d="M93.14,177.59a3.25,3.25,0,0,0-4.58-.08l-4.82,4.66a16.53,16.53,0,0,1-11.64,4.76H17.42a3.24,3.24,0,1,0,0,6.48H72.1a23,23,0,0,0,16.16-6.59l4.81-4.65A3.24,3.24,0,0,0,93.14,177.59Z"/><path class="cls-1" d="M17.42,149.64h8.11A29.73,29.73,0,0,0,22.33,163a3.25,3.25,0,0,0,6.49,0c0-13,11.2-23.92,24.46-23.92h7.49a3.24,3.24,0,1,0,0-6.48H53.28A31.11,31.11,0,0,0,29.9,143.16H17.42a3.24,3.24,0,1,0,0,6.48Z"/><path class="cls-1" d="M95.38,70.71a3.24,3.24,0,0,1-1.53-6.1,68.6,68.6,0,0,1,32.19-8,3.24,3.24,0,0,1,0,6.48,62.06,62.06,0,0,0-29.13,7.26A3.24,3.24,0,0,1,95.38,70.71Z"/><path class="cls-1" d="M186.42,92.81a3.24,3.24,0,0,0-5.72,3.06A62.07,62.07,0,0,1,188,125a3.24,3.24,0,0,0,6.48,0A68.61,68.61,0,0,0,186.42,92.81Z"/><path class="cls-1" d="M126,56.59A3.5,3.5,0,0,0,122.72,60v27.1a4.26,4.26,0,0,0,7.47,2.82,4,4,0,0,1,4.13-1.22A3.9,3.9,0,0,1,137,91.41a4,4,0,0,1-.69,3.55,4.1,4.1,0,0,1-6.15.2A4.3,4.3,0,0,0,125.47,94a4.23,4.23,0,0,0-2.75,4v27.1a3.24,3.24,0,0,0,6.48,0V102.21a10.68,10.68,0,0,0,12.28-3.28A10.46,10.46,0,0,0,136,82.41a10.67,10.67,0,0,0-6.76.43V63.24a61.91,61.91,0,0,1,43.49,21A3.24,3.24,0,1,0,177.57,80,68.43,68.43,0,0,0,126,56.59Z"/><path class="cls-1" d="M219.9,78.32a3.24,3.24,0,0,0-4.53.7,17.45,17.45,0,0,1-21.3,5.2,2.73,2.73,0,0,0-.56-.15,2.84,2.84,0,0,0-.57-.16,3.44,3.44,0,0,0-.85.06c-.13,0-.26,0-.38,0a3.18,3.18,0,0,0-.82.42c-.09.06-.19.08-.28.14l-.08.07,0,0L172.39,99.1a4,4,0,0,1-4.73.46,3.81,3.81,0,0,1-.34-6.11L192.7,70.82A3.24,3.24,0,1,0,188.38,66L163.06,88.56a10.3,10.3,0,0,0,.93,16.35,10,10,0,0,0,5.66,1.73,10.56,10.56,0,0,0,6.86-2.54l16.63-13.24a23.28,23.28,0,0,0,8.49,1.6,23.6,23.6,0,0,0,19-9.6A3.25,3.25,0,0,0,219.9,78.32Z"/><path class="cls-1" d="M155.16,179.66A61.94,61.94,0,0,1,126,186.93a3.24,3.24,0,1,0,0,6.48,68.59,68.59,0,0,0,32.18-8,3.25,3.25,0,0,0-3.06-5.73Z"/><path class="cls-1" d="M191.21,121.76c-.13,0-.23.06-.35.07H164a4.27,4.27,0,0,0-2.81,7.47,4,4,0,0,1,1.23,3.9,3.92,3.92,0,0,1-2.72,2.89,4.05,4.05,0,0,1-3.58-.64,3.92,3.92,0,0,1-1.55-3.14,4,4,0,0,1,1.36-3,4.27,4.27,0,0,0-2.81-7.48H126a3.24,3.24,0,1,0,0,6.48h22.87a10.43,10.43,0,0,0,9.63,14.43,10.92,10.92,0,0,0,2.88-.39,10.37,10.37,0,0,0,7.38-7.84,10.68,10.68,0,0,0-.54-6.2h19.61a61.9,61.9,0,0,1-21,43.34,3.24,3.24,0,1,0,4.26,4.88A68.42,68.42,0,0,0,194.45,125,3.24,3.24,0,0,0,191.21,121.76Z"/><path class="cls-1" d="M185.06,187.35,162.47,162a10.28,10.28,0,1,0-15.53,13.46l13.24,16.63a23.27,23.27,0,0,0-1.61,8.48,23.62,23.62,0,0,0,9.61,19,3.24,3.24,0,0,0,4.53-.69,3.24,3.24,0,0,0-.69-4.53,17.15,17.15,0,0,1-7-13.75,16.93,16.93,0,0,1,1.77-7.56,3.9,3.9,0,0,0,.12-.46,2.91,2.91,0,0,0,.19-.7,3.24,3.24,0,0,0,0-.62,3.09,3.09,0,0,0-.08-.61,3.44,3.44,0,0,0-.34-.66,4,4,0,0,0-.21-.41l-14.52-18.22a4,4,0,0,1-.46-4.73,3.83,3.83,0,0,1,6.12-.34l22.63,25.38a3.24,3.24,0,1,0,4.84-4.31Z"/><path class="cls-1" d="M64.11,125a3.25,3.25,0,0,0-6.49,0,68.61,68.61,0,0,0,8,32.19,3.24,3.24,0,1,0,5.72-3.06A62.06,62.06,0,0,1,64.11,125Z"/><path class="cls-1" d="M129.21,189.81V163.07a4.27,4.27,0,0,0-7.48-2.82,4,4,0,0,1-3.9,1.23,3.91,3.91,0,0,1-2.88-2.72,4,4,0,0,1,.64-3.58,4.11,4.11,0,0,1,6.14-.2,4.26,4.26,0,0,0,7.48-2.8V125.07a3.25,3.25,0,0,0-6.49,0v22.87a10.43,10.43,0,0,0-14,12.51,10.36,10.36,0,0,0,7.83,7.38,10.67,10.67,0,0,0,6.2-.54v19.46a61.86,61.86,0,0,1-43.34-21A3.24,3.24,0,1,0,74.5,170a68.45,68.45,0,0,0,51.44,23.41h.1a3.24,3.24,0,0,0,3.24-3.24C129.28,190,129.22,189.93,129.21,189.81Z"/><path class="cls-1" d="M88.08,145.09a10.37,10.37,0,0,0-12.52.81L58.93,159.14a23.28,23.28,0,0,0-8.49-1.6,23.6,23.6,0,0,0-19,9.6,3.24,3.24,0,0,0,2.61,5.17A3.21,3.21,0,0,0,36.7,171a17.47,17.47,0,0,1,21.3-5.2,3,3,0,0,0,.49.13,3.08,3.08,0,0,0,.66.18,3.21,3.21,0,0,0,.69-.05,2.52,2.52,0,0,0,.54-.08,3.47,3.47,0,0,0,.67-.33,4,4,0,0,0,.41-.21L79.69,150.9a3.93,3.93,0,0,1,4.72-.46,3.81,3.81,0,0,1,.34,6.11L59.37,179.18A3.24,3.24,0,0,0,63.69,184L89,161.44a10.3,10.3,0,0,0-.93-16.35Z"/><path class="cls-1" d="M126,121.83H103.1a10.48,10.48,0,1,0-19.87-6.47,10.56,10.56,0,0,0,.51,6.47H64.28a61.89,61.89,0,0,1,21-43.48A3.25,3.25,0,0,0,81,73.46,68.46,68.46,0,0,0,57.62,125s0,0,0,0v0a3.24,3.24,0,0,0,3.24,3.24H87.94a4.24,4.24,0,0,0,4-2.79,4.16,4.16,0,0,0-1.16-4.65,4.07,4.07,0,0,1-1.26-4A4,4,0,0,1,92.32,114a4,4,0,0,1,3.54.7,4,4,0,0,1,1.55,3.15,4,4,0,0,1-1.38,3,4.26,4.26,0,0,0,2.84,7.45H126a3.24,3.24,0,1,0,0-6.48Z"/><path class="cls-1" d="M105.14,74.52,91.89,57.89a23.23,23.23,0,0,0,1.61-8.48,23.6,23.6,0,0,0-9.61-19,3.24,3.24,0,0,0-3.84,5.23,17.1,17.1,0,0,1,7,13.74A16.87,16.87,0,0,1,85.25,57a3.59,3.59,0,0,0-.12.47,2.89,2.89,0,0,0-.19.68,3.28,3.28,0,0,0,0,.63,4.07,4.07,0,0,0,.08.61,3.87,3.87,0,0,0,.33.64,3.48,3.48,0,0,0,.22.43l14.52,18.22a4,4,0,0,1,.46,4.73,3.77,3.77,0,0,1-3,1.7,3.71,3.71,0,0,1-3.14-1.36L71.85,58.34A3.24,3.24,0,1,0,67,62.65L89.6,88a10.19,10.19,0,0,0,7.8,3.59H98a10.27,10.27,0,0,0,7.17-17Z"/></svg>