<svg id="Layer_1" data-name="Layer 1" xmlns="http://www.w3.org/2000/svg" viewBox="0 0 250 250"><defs><style>.cls-1{fill:none;stroke:#333;stroke-linecap:round;stroke-linejoin:round;stroke-width:7px;}</style></defs><path class="cls-1" d="M96.45,95.17c-12.74,0-22.85,7.82-22.85,29.71s10.11,29.7,22.85,29.71,22.85-7.83,22.85-29.71S109.18,95.17,96.45,95.17Z"/><line class="cls-1" x1="59.88" y1="204.86" x2="69.02" y2="204.86"/><path class="cls-1" d="M77.37,143.71s-14.4,6.85-19.56,9.43-7.27,9.41-9.19,14.19-13.2,38.06-13.2,38.06c-1.78,4.16.11,9.46,3.95,11.86l15.94,10.47H73.6c15.07,0,15.07-22.86,0-22.86H69v-32H96.45"/><path class="cls-1" d="M115.52,143.71s14.4,6.85,19.56,9.43,7.27,9.41,9.19,14.19,13.21,38.06,13.21,38.06a10,10,0,0,1-3.95,11.86l-15.95,10.47H119.3c-15.08,0-15.08-22.86,0-22.86h4.57v-32H96.45"/><line class="cls-1" x1="133.01" y1="204.86" x2="123.87" y2="204.86"/><path class="cls-1" d="M133,31.18V99.74a13.71,13.71,0,0,0,13.71,13.71h9.15V139a4.57,4.57,0,0,0,7.8,3.23l24.19-28.76H229a13.71,13.71,0,0,0,13.72-13.71V31.18A13.71,13.71,0,0,0,229,17.47H146.72A13.71,13.71,0,0,0,133,31.18Z"/><line class="cls-1" x1="73.6" y1="227.72" x2="119.3" y2="227.72"/><ellipse class="cls-1" cx="187.86" cy="60.89" rx="13.71" ry="16"/><path class="cls-1" d="M169.58,90.6c0-7.57,8.18-13.71,18.28-13.71S206.14,83,206.14,90.6"/></svg>