<svg id="Layer_1" data-name="Layer 1" xmlns="http://www.w3.org/2000/svg" viewBox="0 0 250 250"><defs><style>.cls-1{fill:none;stroke:#333;stroke-linecap:round;stroke-linejoin:round;stroke-width:7px;}</style></defs><path class="cls-1" d="M167.67,106.57a58.05,58.05,0,0,0,21.6-14.15c17.32,17.32,34.63,18,50.4,18,0,71.78-21.6,92.23-50.4,104.4a84,84,0,0,1-21.6-12.67A62.18,62.18,0,0,1,153.27,185c-9-15.59-14.4-38.67-14.4-74.56a130.68,130.68,0,0,0,14.4-.61A59.35,59.35,0,0,0,167.67,106.57Z"/><path class="cls-1" d="M63.27,38.42a7.22,7.22,0,0,1,7.2-7.2h2.41a7.23,7.23,0,0,0,6.52-4.1,18,18,0,0,1,32.54,0,7.28,7.28,0,0,0,6.52,4.1h2.41a7.22,7.22,0,0,1,7.2,7.2v14.4H63.27Z"/><path class="cls-1" d="M167.67,222v3.6a7.22,7.22,0,0,1-7.2,7.2H30.87a7.22,7.22,0,0,1-7.2-7.2v-180a7.22,7.22,0,0,1,7.2-7.2h32.4"/><path class="cls-1" d="M128.07,38.42h32.4a7.22,7.22,0,0,1,7.2,7.2v43.2"/><polyline class="cls-1" points="153.27 207.62 153.27 218.42 38.07 218.42 38.07 52.82 63.27 52.82"/><polyline class="cls-1" points="128.07 52.82 153.27 52.82 153.27 96.02"/><rect class="cls-1" x="56.07" y="70.82" width="79.2" height="14.4"/><polygon class="cls-1" points="167.67 146.42 182.07 146.42 182.07 128.42 196.47 128.42 196.47 146.42 214.47 146.42 214.47 160.82 196.47 160.82 196.47 178.82 182.07 178.82 182.07 160.82 167.67 160.82 164.07 160.82 164.07 146.42 167.67 146.42"/><polyline class="cls-1" points="56.07 110.42 63.27 117.62 77.67 103.22"/><line class="cls-1" x1="88.47" y1="114.02" x2="124.47" y2="114.02"/><polyline class="cls-1" points="56.07 142.82 63.27 150.02 77.67 135.62"/><line class="cls-1" x1="88.47" y1="146.42" x2="124.47" y2="146.42"/><line class="cls-1" x1="56.07" y1="171.62" x2="124.47" y2="171.62"/><line class="cls-1" x1="56.07" y1="189.62" x2="110.07" y2="189.62"/></svg>