<?xml version="1.0" encoding="utf-8"?>
<!-- Generator: Adobe Illustrator 25.3.1, SVG Export Plug-In . SVG Version: 6.00 Build 0)  -->
<svg version="1.1" id="Layer_1" xmlns="http://www.w3.org/2000/svg" xmlns:xlink="http://www.w3.org/1999/xlink" x="0px" y="0px"
	 viewBox="0 0 250 250" style="enable-background:new 0 0 250 250;" xml:space="preserve">
<style type="text/css">
	.st0{fill:#C0E1F5;}
	.st1{fill:none;stroke:#027353;stroke-width:7;stroke-miterlimit:10;}
	.st2{fill:#027353;}
</style>
<g>
	<circle class="st0" cx="125.5" cy="125.5" r="124.5"/>
</g>
<g>
	<path class="st2" d="M129.1,129.1H180c2,0,3.6-1.6,3.6-3.6s-1.6-3.6-3.6-3.6h-50.9c-2,0-3.6,1.6-3.6,3.6S127.1,129.1,129.1,129.1z"
		/>
	<path class="st2" d="M129.1,143.7H180c2,0,3.6-1.6,3.6-3.6s-1.6-3.6-3.6-3.6h-50.9c-2,0-3.6,1.6-3.6,3.6S127.1,143.7,129.1,143.7z"
		/>
	<path class="st2" d="M201.9,71H49.1c-2,0-3.6,1.6-3.6,3.6c0,0,0,0,0,0v101.8c0,2,1.6,3.6,3.6,3.6c0,0,0,0,0,0h152.7
		c2,0,3.6-1.6,3.6-3.6c0,0,0,0,0,0V74.6C205.5,72.6,203.9,71,201.9,71C201.9,71,201.9,71,201.9,71z M52.8,78.2h145.5v14.5H52.8V78.2
		z M198.2,172.8H52.8V100h145.5V172.8z"/>
	<path class="st2" d="M87.3,143.7H71c-2,0-3.6,1.6-3.6,3.6c0,2,1.6,3.6,3.6,3.6h7.3v3.6c0,2,1.6,3.6,3.6,3.6c2,0,3.6-1.6,3.6-3.6
		V151h1.8c5,0,9.1-4.1,9.1-9.1c0-5-4.1-9.1-9.1-9.1H76.4c-1,0-1.8-0.8-1.8-1.8s0.8-1.8,1.8-1.8h16.4c2,0,3.6-1.6,3.6-3.6
		s-1.6-3.6-3.6-3.6h-7.3v-3.6c0-2-1.6-3.6-3.6-3.6c-2,0-3.6,1.6-3.6,3.6v3.6h-1.8c-5,0-9.1,4.1-9.1,9.1c0,5,4.1,9.1,9.1,9.1h10.9
		c1,0,1.8,0.8,1.8,1.8S88.3,143.7,87.3,143.7z"/>
	<path class="st2" d="M129.1,158.2H151c2,0,3.6-1.6,3.6-3.6c0-2-1.6-3.6-3.6-3.6h-21.8c-2,0-3.6,1.6-3.6,3.6
		C125.5,156.6,127.1,158.2,129.1,158.2z"/>
</g>
</svg>
