<svg id="Layer_1" data-name="Layer 1" xmlns="http://www.w3.org/2000/svg" viewBox="0 0 250 250"><defs><style>.cls-1{fill:none;stroke:#333;stroke-linecap:round;stroke-linejoin:round;stroke-width:7px;}</style></defs><path class="cls-1" d="M171.94,158.61l0,59.38c0,14.77,28.49,14.56,28.33-.22L199.7,177,199,104.82"/><path class="cls-1" d="M199.8,144.47c4,10.43,9.9,11.74,14.1,9.35,6.91-3.93,4.51-12.16,4.21-18.65L216,87.7c-.73-16.36-85-15.15-87.76-.16C126,96.82,125.66,118,125.4,134c-.13,7.81-3,23.77,8.88,22.53,3.43-.22,7.18-3.06,9.95-10.35"/><path class="cls-1" d="M145,104.82,144.33,177l-.53,40.76c-.16,14.78,28.11,15,28.1.22"/><path class="cls-1" d="M171.37,22.28a21.07,21.07,0,1,1-10.48,2.85,20.69,20.69,0,0,1,10.48-2.85Z"/><line class="cls-1" x1="29.91" y1="97.7" x2="97.88" y2="97.7"/><polyline class="cls-1" points="73.14 70.4 100.44 97.7 73.14 125"/></svg>