<svg id="Layer_1" data-name="Layer 1" xmlns="http://www.w3.org/2000/svg" viewBox="0 0 250 250"><defs><style>.cls-1{fill:#333;}.cls-2{fill:none;stroke:#333;stroke-linecap:round;stroke-linejoin:round;stroke-width:7px;}</style></defs><polygon class="cls-1" points="104.99 22.23 104.99 28.91 205.04 28.91 205.04 229.01 105.73 229.01 105.59 235.68 211.71 235.68 211.71 22.23 104.99 22.23"/><rect class="cls-1" x="131.67" y="55.59" width="56.7" height="6.67"/><polygon class="cls-1" points="177.38 74.62 172.67 69.9 183.65 58.92 172.67 47.94 177.38 43.22 193.08 58.92 177.38 74.62"/><path class="cls-1" d="M178.36,152.3A13.34,13.34,0,1,1,191.7,139,13.36,13.36,0,0,1,178.36,152.3Zm0-20A6.67,6.67,0,1,0,185,139,6.68,6.68,0,0,0,178.36,132.29Z"/><rect class="cls-1" x="118.33" y="215.67" width="73.37" height="6.67"/><path class="cls-2" d="M73,162.06,73,221.44c0,14.77,28.5,14.56,28.34-.23l-.53-40.75-.67-72.19"/><path class="cls-2" d="M100.86,147.92c4,10.43,9.91,11.74,14.11,9.35,6.91-3.93,4.51-12.16,4.21-18.65L117,91.15C116.29,74.79,32,76,29.27,91c-2.24,9.28-2.54,30.47-2.8,46.46-.13,7.81-3,23.77,8.88,22.53,3.43-.22,7.18-3.06,9.95-10.35"/><path class="cls-2" d="M46.07,108.27l-.67,72.19-.53,40.75c-.16,14.79,28.1,15,28.09.23"/><path class="cls-2" d="M72.44,25.73A21.07,21.07,0,1,1,62,28.58a20.69,20.69,0,0,1,10.48-2.85Z"/></svg>