<svg id="Layer_1" data-name="Layer 1" xmlns="http://www.w3.org/2000/svg" viewBox="0 0 250 250"><defs><style>.cls-1{fill:none;stroke:#333;stroke-linecap:round;stroke-linejoin:round;stroke-width:7px;}</style></defs><path class="cls-1" d="M58.93,175.91v47.66c0,14.51-23.7,11.78-23.7,0l1.11-87-9,27.36c-6.32,16.64-20,5.81-17.15-1.77L22.23,122.5c4.38-16.77,20.87-7.79,28.75-7.41a37,37,0,0,0,8.54.91c20.52.1,20.88-10,43.92-22.93,12.34-6.92,22.71,9.41,9.07,17.57L81.46,134.81l1.27,88.76c.18,14.49-23.71,11.85-23.71,0m.76-163.39A20.9,20.9,0,1,1,38.89,81.07,20.89,20.89,0,0,1,59.78,60.18Zm37.38,93.09,35-28.16,23.46,7.31,36.35-61-22.76,5.4m24.49-5.39,3.52,23.81M51.06,46.81V31.27H227.67V172.14H97.28m42.09.43v48.17m0-190V15.32m.28,182.12,39.63,36m-40.19-36-39.64,36"/></svg>