<svg id="Layer_1" data-name="Layer 1" xmlns="http://www.w3.org/2000/svg" viewBox="0 0 250 250"><defs><style>.cls-1{fill:none;stroke:#333;stroke-linecap:round;stroke-linejoin:round;stroke-width:7px;}</style></defs><ellipse class="cls-1" cx="194.7" cy="145.29" rx="29" ry="12.43"/><path class="cls-1" d="M165.7,204.5c0,6.87,13,12.43,29,12.43s29-5.56,29-12.43"/><path class="cls-1" d="M165.7,204.5c0,6.87,13,12.43,29,12.43s29-5.56,29-12.43"/><path class="cls-1" d="M165.7,184.76c0,6.87,13,12.43,29,12.43s29-5.56,29-12.43"/><path class="cls-1" d="M165.7,165c0,6.86,13,12.43,29,12.43s29-5.57,29-12.43"/><line class="cls-1" x1="165.7" y1="145.29" x2="165.7" y2="204.5"/><line class="cls-1" x1="223.7" y1="145.29" x2="223.7" y2="204.5"/><ellipse class="cls-1" cx="123.7" cy="165.03" rx="29" ry="12.43"/><path class="cls-1" d="M94.7,204.5c0,6.87,13,12.43,29,12.43s29-5.56,29-12.43"/><path class="cls-1" d="M94.7,204.5c0,6.87,13,12.43,29,12.43s29-5.56,29-12.43"/><path class="cls-1" d="M94.7,184.76c0,6.87,13,12.43,29,12.43s29-5.56,29-12.43"/><path class="cls-1" d="M94.7,184.76c0,6.87,13,12.43,29,12.43s29-5.56,29-12.43"/><line class="cls-1" x1="94.7" y1="165.03" x2="94.7" y2="204.5"/><line class="cls-1" x1="152.7" y1="165.03" x2="152.7" y2="204.5"/><ellipse class="cls-1" cx="52.7" cy="184.76" rx="29" ry="12.43"/><path class="cls-1" d="M23.7,204.5c0,6.87,13,12.43,29,12.43s29-5.56,29-12.43"/><path class="cls-1" d="M23.7,204.5c0,6.87,13,12.43,29,12.43s29-5.56,29-12.43"/><path class="cls-1" d="M23.7,184.76c0,6.87,13,12.43,29,12.43s29-5.56,29-12.43"/><path class="cls-1" d="M23.7,184.76c0,6.87,13,12.43,29,12.43s29-5.56,29-12.43"/><line class="cls-1" x1="23.7" y1="184.76" x2="23.7" y2="204.5"/><line class="cls-1" x1="81.7" y1="184.76" x2="81.7" y2="204.5"/><path class="cls-1" d="M165.7,204.5c0,6.87,13,12.43,29,12.43s29-5.56,29-12.43"/><path class="cls-1" d="M94.7,204.5c0,6.87,13,12.43,29,12.43s29-5.56,29-12.43"/><path class="cls-1" d="M23.7,204.5c0,6.87,13,12.43,29,12.43s29-5.56,29-12.43"/><path class="cls-1" d="M38.26,160.34V71A16.42,16.42,0,0,1,54.68,54.62h138A16.42,16.42,0,0,1,209.14,71v49.2"/><path class="cls-1" d="M100.06,33.07h47.29a5.39,5.39,0,0,1,5.39,5.39V54.62a0,0,0,0,1,0,0H94.67a0,0,0,0,1,0,0V38.45A5.39,5.39,0,0,1,100.06,33.07Z"/><path class="cls-1" d="M81.35,105.75H67.83a21.3,21.3,0,0,1-15.35-6.52h0a50.7,50.7,0,0,1-14.1-31.72"/><line class="cls-1" x1="147.33" y1="105.75" x2="100.08" y2="105.75"/><path class="cls-1" d="M209,67.33A50.74,50.74,0,0,1,194,99.4l-.23.23a21.34,21.34,0,0,1-15,6.12H166.4"/><path class="cls-1" d="M100.08,94.94v21.62L98.8,118a10.7,10.7,0,0,1-16.18,0l-1.27-1.47V94.94Z"/><path class="cls-1" d="M166.4,94.94v21.62l-1.51,1.72a10.71,10.71,0,0,1-16,0l-1.51-1.72V94.94Z"/></svg>