<svg id="Layer_1" data-name="Layer 1" xmlns="http://www.w3.org/2000/svg" viewBox="0 0 250 250"><defs><style>.cls-1{fill:none;stroke:#fff;stroke-linecap:round;stroke-linejoin:round;stroke-width:7px;}</style></defs><path class="cls-1" d="M55.41,206.66A42.14,42.14,0,0,1,80.1,201.5l58.33,7.84a4.45,4.45,0,0,0,3.15-.77l73.9-51.48a4.48,4.48,0,0,0,1.31-5.92h0a17.81,17.81,0,0,0-23.31-7l-52.33,26"/><path class="cls-1" d="M99.82,173.6l29.58,2.9a11.94,11.94,0,0,0,13.06-10.72h0a11.94,11.94,0,0,0-10.72-13.06l-25.21-2.47a22.21,22.21,0,0,1-8.26-2.51l-2.75-1.48A46.78,46.78,0,0,0,51,146.4l-15,7.23"/><polyline class="cls-1" points="17.4 153.43 33.28 147.23 59.7 214.91 42.14 221.76"/><line class="cls-1" x1="22.52" y1="165.2" x2="29.17" y2="162.61"/><polyline class="cls-1" points="48.91 104.21 93.05 65.72 151.48 92.1 187.82 31.11 165.07 36.51"/><line class="cls-1" x1="189.56" y1="31.13" x2="193.08" y2="54.93"/><line class="cls-1" x1="57.96" y1="96.32" x2="57.96" y2="139.94"/><line class="cls-1" x1="81.76" y1="77.09" x2="81.76" y2="139.94"/><line class="cls-1" x1="105.56" y1="73.53" x2="105.56" y2="145.25"/><line class="cls-1" x1="129.36" y1="83.77" x2="129.36" y2="152.48"/><line class="cls-1" x1="153.08" y1="92.1" x2="153.25" y2="160.31"/><line class="cls-1" x1="176.96" y1="49.35" x2="176.96" y2="149.77"/></svg>