<svg id="Layer_1" data-name="Layer 1" xmlns="http://www.w3.org/2000/svg" viewBox="0 0 250 250"><defs><style>.cls-1{fill:none;stroke-linecap:round;stroke-linejoin:round;stroke-width:6px;}.cls-1,.cls-2{stroke:#fff;}.cls-2{fill:#fff;stroke-miterlimit:10;}</style></defs><path class="cls-1" d="M173.61,86.77V52.5a4.69,4.69,0,0,0-4.69-4.69H52.62a4.69,4.69,0,0,0-4.69,4.69V205.85a4.69,4.69,0,0,0,4.69,4.69h116.3a4.69,4.69,0,0,0,4.69-4.69V194"/><polyline class="cls-1" points="70.73 97.7 70.73 70.09 98.34 70.09"/><polyline class="cls-1" points="85.31 85.4 94.69 100.57 115.13 72.96"/><polyline class="cls-1" points="70.73 145.85 70.73 118.24 98.34 118.24"/><polyline class="cls-1" points="85.31 133.55 94.69 148.72 115.13 121.11"/><polyline class="cls-1" points="70.73 194 70.73 166.39 98.34 166.39"/><circle class="cls-1" cx="173.61" cy="140.24" r="46.81" transform="translate(33.15 313.68) rotate(-89.93)"/><circle class="cls-1" cx="173.61" cy="140.24" r="46.81" transform="translate(33.15 313.68) rotate(-89.93)"/><polyline class="cls-1" points="191.77 122.08 173.62 140.24 148.95 115.57"/><line class="cls-2" x1="138.63" y1="140.24" x2="144.41" y2="140.24"/><line class="cls-1" x1="138.63" y1="140.24" x2="144.41" y2="140.24"/><line class="cls-2" x1="208.6" y1="140.24" x2="202.82" y2="140.24"/><line class="cls-1" x1="208.6" y1="140.24" x2="202.82" y2="140.24"/><line class="cls-2" x1="173.62" y1="169.45" x2="173.62" y2="175.22"/><line class="cls-1" x1="173.62" y1="169.45" x2="173.62" y2="175.22"/></svg>