<?xml version="1.0" encoding="UTF-8"?><svg id="Layer_1" xmlns="http://www.w3.org/2000/svg" viewBox="0 0 250 250"><defs><style>.cls-1{fill:#cde7f7;}.cls-2{stroke-width:8px;}.cls-2,.cls-3{fill:none;stroke:#027353;stroke-linecap:round;stroke-linejoin:round;}.cls-3{stroke-width:7px;}</style></defs><circle class="cls-1" cx="125.6" cy="125.04" r="124.5"/><g><line class="cls-2" x1="125.63" y1="67.83" x2="182.6" y2="67.96"/><circle class="cls-3" cx="89.01" cy="70.11" r="20.38" transform="translate(-20.45 40.85) rotate(-23.26)"/><polyline class="cls-3" points="82.7 70.32 86.46 75.06 95.42 67.26"/><line class="cls-2" x1="125.62" y1="124.92" x2="182.59" y2="125.06"/><path class="cls-3" d="M109.38,125.04c0,11.26-9.13,20.38-20.38,20.38-11.26,0-20.38-9.13-20.38-20.38,0-11.26,9.13-20.38,20.38-20.38,11.26,0,20.38,9.13,20.38,20.38Z"/><polyline class="cls-3" points="82.69 125.25 86.45 129.99 95.41 122.19"/><line class="cls-2" x1="125.62" y1="182.02" x2="182.58" y2="182.15"/><path class="cls-3" d="M109.37,179.97c0,11.26-9.13,20.38-20.38,20.38-11.26,0-20.38-9.13-20.38-20.38,0-11.26,9.13-20.38,20.38-20.38,11.26,0,20.38,9.13,20.38,20.38Z"/><polyline class="cls-3" points="82.68 180.18 86.44 184.92 95.4 177.12"/></g></svg>