<svg id="Layer_1" data-name="Layer 1" xmlns="http://www.w3.org/2000/svg" viewBox="0 0 250 250"><defs><style>.cls-1{fill:#333;}</style></defs><path class="cls-1" d="M135.38,36.4a14.5,14.5,0,1,0-20.77,0,25.47,25.47,0,0,0-15.16,21,3.33,3.33,0,0,0,3,3.63l.32,0a3.32,3.32,0,0,0,3.31-3,19,19,0,0,1,37.82-.15,3.33,3.33,0,1,0,6.63-.67A25.47,25.47,0,0,0,135.38,36.4ZM117.17,26.31A7.83,7.83,0,1,1,125,34.14,7.84,7.84,0,0,1,117.17,26.31Z"/><path class="cls-1" d="M150.55,196.24a3.33,3.33,0,0,0-6.63-.63,19,19,0,0,1-37.84,0,3.36,3.36,0,0,0-3.63-3,3.33,3.33,0,0,0-3,3.63,25.44,25.44,0,0,0,15.16,21,14.5,14.5,0,1,0,20.78,0A25.44,25.44,0,0,0,150.55,196.24Zm-17.72,31.07a7.83,7.83,0,1,1-7.83-7.83A7.84,7.84,0,0,1,132.83,227.31Z"/><path class="cls-1" d="M56.2,145.73a19,19,0,0,1-.15-37.82,3.33,3.33,0,1,0-.67-6.63,25.47,25.47,0,0,0-20.79,15.15,14.5,14.5,0,1,0,0,20.77,25.44,25.44,0,0,0,21,15.16l.32,0a3.33,3.33,0,0,0,.31-6.65ZM24.5,134.64a7.83,7.83,0,1,1,7.83-7.83A7.84,7.84,0,0,1,24.5,134.64Z"/><path class="cls-1" d="M225.5,112.31a14.45,14.45,0,0,0-10.08,4.11,25.44,25.44,0,0,0-21-15.16,3.29,3.29,0,0,0-3.63,3,3.33,3.33,0,0,0,3,3.63,19,19,0,0,1,0,37.84,3.33,3.33,0,0,0,.31,6.65l.32,0a25.44,25.44,0,0,0,21-15.16,14.49,14.49,0,1,0,10.08-24.89Zm0,22.33a7.83,7.83,0,1,1,7.83-7.83A7.84,7.84,0,0,1,225.5,134.64Z"/><path class="cls-1" d="M93.83,59.53a25.49,25.49,0,0,0-25.42-4,14.37,14.37,0,0,0-4.22-10,14.87,14.87,0,0,0-20.51,0,14.48,14.48,0,0,0,10,24.73,25.45,25.45,0,0,0,4.12,25.57A3.33,3.33,0,0,0,63,91.54,19,19,0,0,1,89.61,64.69a3.33,3.33,0,0,0,4.22-5.16ZM48.4,61.28a7.83,7.83,0,1,1,11.08,0A7.83,7.83,0,0,1,48.4,61.28Z"/><path class="cls-1" d="M206.32,187.62a14.47,14.47,0,0,0-10-4.22,25.45,25.45,0,0,0-4.12-25.57,3.33,3.33,0,0,0-5.14,4.25,19,19,0,0,1-26.63,26.85,3.33,3.33,0,0,0-4.22,5.16,25.31,25.31,0,0,0,25.42,4,14.49,14.49,0,1,0,24.73-10.5Zm-4.72,15.79a7.81,7.81,0,1,1,2.3-5.53A7.83,7.83,0,0,1,201.6,203.41Z"/><path class="cls-1" d="M94.42,189.27a3.34,3.34,0,0,0-4.69-.44A19,19,0,0,1,62.88,162.2,3.33,3.33,0,1,0,57.72,158a25.47,25.47,0,0,0-4,25.41,14.5,14.5,0,1,0,14.68,14.73A25.29,25.29,0,0,0,94,194,3.33,3.33,0,0,0,94.42,189.27Zm-32.65,8.61a7.84,7.84,0,1,1-2.29-5.54A7.8,7.8,0,0,1,61.77,197.88Z"/><path class="cls-1" d="M210.56,55.75a14.4,14.4,0,0,0-4.24-10.26,14.87,14.87,0,0,0-20.51,0,14.4,14.4,0,0,0-4.22,10A25.5,25.5,0,0,0,156,59.65a3.33,3.33,0,0,0,4.25,5.14A19,19,0,0,1,187,91.54a3.33,3.33,0,1,0,5.14,4.25,25.45,25.45,0,0,0,4.12-25.57,14.44,14.44,0,0,0,14.28-14.47Zm-9,5.53a7.81,7.81,0,1,1,2.3-5.53A7.75,7.75,0,0,1,201.6,61.28Z"/><path class="cls-1" d="M184.21,174.2a75.59,75.59,0,0,0,0-94.78.32.32,0,0,1,0-.09c-.07-.13-.19-.2-.27-.32A75.76,75.76,0,0,0,66.1,79a2.88,2.88,0,0,0-.28.33.32.32,0,0,1,0,.09,75.55,75.55,0,0,0,0,94.78.32.32,0,0,1,0,.09c.07.13.19.2.27.32A75.75,75.75,0,0,0,184,174.44c0-.06.11-.08.15-.15A.32.32,0,0,1,184.21,174.2Zm9.87-50.72H161.75A146.17,146.17,0,0,0,158.07,93a97,97,0,0,0,22.17-7.8A68.8,68.8,0,0,1,194.08,123.48Zm-32.33,6.66h32.33a68.8,68.8,0,0,1-13.84,38.25,96.88,96.88,0,0,0-22.17-7.8A146.17,146.17,0,0,0,161.75,130.14ZM175.87,80a93.17,93.17,0,0,1-19.51,6.62c-3.35-11.24-8.09-20.43-13.75-26.69A69.24,69.24,0,0,1,175.87,80ZM125,196.06c-10.12,0-19.27-12.17-24.77-30.34a148.53,148.53,0,0,1,49.54,0C144.27,183.89,135.12,196.06,125,196.06ZM125,157a152.88,152.88,0,0,0-26.51,2.3,140.21,140.21,0,0,1-3.58-29.14h60.18a140.21,140.21,0,0,1-3.58,29.14A152.88,152.88,0,0,0,125,157Zm-30.09-33.5a140.21,140.21,0,0,1,3.58-29.14A152.88,152.88,0,0,0,125,96.64a152.88,152.88,0,0,0,26.51-2.3,140.21,140.21,0,0,1,3.58,29.14ZM125,57.56c10.12,0,19.27,12.17,24.77,30.34A147.08,147.08,0,0,1,125,90a147.08,147.08,0,0,1-24.77-2.08C105.73,69.73,114.88,57.56,125,57.56Zm-17.61,2.36C101.73,66.17,97,75.36,93.64,86.6A92.87,92.87,0,0,1,74.14,80,69.12,69.12,0,0,1,107.39,59.92ZM55.92,130.14H88.25a146.17,146.17,0,0,0,3.68,30.45,97,97,0,0,0-22.17,7.8A68.8,68.8,0,0,1,55.92,130.14ZM69.76,85.23A97,97,0,0,0,91.93,93a146.17,146.17,0,0,0-3.68,30.45H55.92A68.8,68.8,0,0,1,69.76,85.23Zm4.38,88.41A92.87,92.87,0,0,1,93.64,167c3.35,11.24,8.09,20.43,13.75,26.68A69.12,69.12,0,0,1,74.14,173.64Zm68.47,20.07c5.66-6.26,10.4-15.45,13.75-26.69a93.17,93.17,0,0,1,19.51,6.62A69.24,69.24,0,0,1,142.61,193.71Z"/></svg>