<svg id="Layer_1" data-name="Layer 1" xmlns="http://www.w3.org/2000/svg" viewBox="0 0 250 250"><defs><style>.cls-1,.cls-2{fill:none;stroke:#fff;stroke-linecap:round;stroke-linejoin:round;}.cls-1{stroke-width:7px;}.cls-2{stroke-width:5px;}</style></defs><path class="cls-1" d="M186.83,228V218c0-4.75,34.45-42.6,34.45-50.42v-36a4.31,4.31,0,0,0-4.31-4.32,7.78,7.78,0,0,0-7.74,7.17L207.11,162"/><path class="cls-1" d="M63.17,228V218c0-4.75-34.45-42.6-34.45-50.42v-36A4.31,4.31,0,0,1,33,127.35a7.78,7.78,0,0,1,7.74,7.17L42.89,162"/><path class="cls-1" d="M183.89,187.75l22.35-22.34a7.16,7.16,0,0,0,.81-2.48l.06-.92a6.66,6.66,0,0,0-.32-2.1,7,7,0,0,0-3.57-4.2,8.21,8.21,0,0,0-9.09,1.21l-19.3,17.14a16.43,16.43,0,0,1-4.94,3.08c-13.75,5.61-20.51,20-20.51,25a39.32,39.32,0,0,0,2,12.17,17.63,17.63,0,0,1,.86,5.44V228"/><path class="cls-1" d="M66.11,187.75,43.76,165.41a7.16,7.16,0,0,1-.81-2.48l-.06-.92a6.66,6.66,0,0,1,.32-2.1,7,7,0,0,1,3.57-4.2,8.21,8.21,0,0,1,9.09,1.21l19.3,17.14a16.43,16.43,0,0,0,4.94,3.08c13.75,5.61,20.51,20,20.51,25a39.32,39.32,0,0,1-2,12.17,17.63,17.63,0,0,0-.86,5.44V228"/><path class="cls-2" d="M122.38,101.12l0,38c0,8.93,15.75,8.81,15.66-.14l-.3-23.64-.37-43.7m.43,25c2.19,6.32,5.49,7.11,7.81,5.66,3.82-2.37,2.49-7.36,2.33-11.29l-1.19-29.76c-.39-9.91-47.09-9.17-48.61-.1-1.23,5.62-1.4,18.45-1.54,28.12-.07,4.73-1.68,14.4,4.91,13.64,1.9-.13,4-1.85,5.52-6.27m.42-25-.37,43.7-.3,23.64c-.08,8.95,15.61,9.08,15.6.14M122,20.65c6.32,0,11.45,5.61,11.45,12.52a12.76,12.76,0,0,1-5.81,10.9,10.72,10.72,0,0,1-5.8,1.72c-6.33,0-11.46-5.6-11.46-12.52a12.74,12.74,0,0,1,5.81-10.89A10.65,10.65,0,0,1,122,20.65ZM83.35,108.84l0,31c0,8,14.52,7.91,14.44-.12l-.26-20.87,0-3.64M85.07,64.26C74.1,64.21,62.7,66.42,62,70.6c-1.11,5-1.26,12.09-1.38,20.76-.07,4.24-1.51,12.9,4.4,12.23,1.71-.12,3.57-1.66,4.94-5.62m.38-18.32L70,118.82l-.26,20.87c-.08,8,13.58,8.15,13.57.12m.12-106.2c5.67,0,10.26,5,10.26,11.23a11.43,11.43,0,0,1-5.2,9.77,9.61,9.61,0,0,1-5.21,1.54c-5.67,0-10.26-5-10.26-11.22a11.43,11.43,0,0,1,5.2-9.77,9.62,9.62,0,0,1,5.21-1.55Zm77.14,75.23,0,31c0,8,14.52,7.91,14.44-.12l-.27-20.87-.33-39.17M174.78,97c2,5.66,4.92,6.37,7,5.08,3.43-2.14,2.27-6.6,2.09-10.13l-1.06-21.31c-.25-4.94-13.28-6.92-25-6.31m-10.4,51.55-.13,2.9L147,139.69c-.08,8,13.58,8.15,13.58.12m.11-106.2c5.67,0,10.27,5,10.27,11.23a11.43,11.43,0,0,1-5.21,9.77,9.58,9.58,0,0,1-5.2,1.54c-5.67,0-10.27-5-10.27-11.22a11.43,11.43,0,0,1,5.21-9.77,9.56,9.56,0,0,1,5.2-1.55Z"/></svg>