<svg id="Layer_1" data-name="Layer 1" xmlns="http://www.w3.org/2000/svg" viewBox="0 0 250 250"><defs><style>.cls-1{fill:#fff;}</style></defs><path class="cls-1" d="M228.25,235.11H186.5a3.12,3.12,0,0,1,0-6.23h37.15L186.5,136l-18.7,46.76a3.12,3.12,0,0,1-5.79-2.31l21.6-54a3.1,3.1,0,0,1,2.89-2h0a3.09,3.09,0,0,1,2.89,2l41.75,104.38a3.11,3.11,0,0,1-2.89,4.27Z"/><path class="cls-1" d="M61.24,235.11H19.48a3.11,3.11,0,0,1-2.89-4.27L58.35,126.46c.94-2.37,4.83-2.37,5.78,0l21.6,54a3.12,3.12,0,1,1-5.79,2.31L61.24,136,24.08,228.88H61.24a3.12,3.12,0,0,1,0,6.23Z"/><path class="cls-1" d="M179.81,49.32l9.28-13.93a3.11,3.11,0,0,0-2.59-4.84H158.3V23.23a3.12,3.12,0,0,0-3.12-3.12H123.87a3.12,3.12,0,0,0-3.11,3.12V85.86a3.12,3.12,0,0,0,6.23,0V57.66h25.08V65a3.12,3.12,0,0,0,3.11,3.12H186.5a3.12,3.12,0,0,0,2.59-4.85ZM127,26.34h25.08V51.43H127ZM158.3,61.86V36.78h22.38L173.47,47.6a3.1,3.1,0,0,0,0,3.45l7.21,10.81Z"/><path class="cls-1" d="M189.37,230.77,126.73,84.63a3.24,3.24,0,0,0-5.72,0L58.38,230.77a3.11,3.11,0,0,0,2.86,4.34H186.5a3.12,3.12,0,0,0,2.87-4.34Zm-65.5-137,23.37,54.52-2.31,4-7.84-15.67a3.17,3.17,0,0,0-3-1.72,3.12,3.12,0,0,0-2.74,2.13l-7.48,22.45-7.49-22.45a3.11,3.11,0,0,0-2.73-2.13,3.16,3.16,0,0,0-3,1.72l-7.84,15.67-2.31-4ZM66,228.88l31.47-73.41,2.86,5a3.35,3.35,0,0,0,2.79,1.57,3.1,3.1,0,0,0,2.7-1.72l7.08-14.15,8.06,24.18a1.63,1.63,0,0,0,.11.23c.06.13.12.24.19.36a2.9,2.9,0,0,0,.45.58,1.54,1.54,0,0,0,.26.25,2.94,2.94,0,0,0,.89.51l.07,0h0a3,3,0,0,0,1.94,0h0l.07,0a2.82,2.82,0,0,0,.89-.51,1.54,1.54,0,0,0,.26-.25,2.9,2.9,0,0,0,.45-.58c.07-.12.13-.23.19-.36s.09-.14.12-.23l8.06-24.18L142,160.32a3.1,3.1,0,0,0,2.7,1.72,3.39,3.39,0,0,0,2.79-1.57l2.86-5,31.47,73.41Z"/></svg>