<svg id="Layer_1" data-name="Layer 1" xmlns="http://www.w3.org/2000/svg" viewBox="0 0 250 250"><defs><style>.cls-1{fill:none;stroke:#fff;stroke-linecap:round;stroke-linejoin:round;stroke-width:7px;}</style></defs><path class="cls-1" d="M108.56,234V216.14S122,206.07,122,193.77v-8.94"/><path class="cls-1" d="M63.82,180.35l35.79-35.78c8.24-8.24,19.48,11.83,9,22.36l-9,8.95v9c0,17.54-15.94,22.36-18.57,22.36"/><path class="cls-1" d="M77.24,131.15,54.88,153.51c-4.48,4.48-9,9-9,17.9V234"/><polyline class="cls-1" points="99.61 184.82 206.97 184.82 206.97 23.79 77.24 23.79 77.24 166.93"/><ellipse class="cls-1" cx="117.5" cy="61.81" rx="13.42" ry="15.66"/><path class="cls-1" d="M99.61,90.89c0-7.42,8-13.42,17.89-13.42s17.9,6,17.9,13.42"/><line class="cls-1" x1="153.29" y1="55.1" x2="184.6" y2="55.1"/><line class="cls-1" x1="153.29" y1="72.99" x2="184.6" y2="72.99"/><line class="cls-1" x1="153.29" y1="90.89" x2="184.6" y2="90.89"/><line class="cls-1" x1="99.61" y1="108.78" x2="184.6" y2="108.78"/><line class="cls-1" x1="126.45" y1="126.67" x2="184.6" y2="126.67"/></svg>