<svg id="Layer_1" data-name="Layer 1" xmlns="http://www.w3.org/2000/svg" viewBox="0 0 250 250"><defs><style>.cls-1{fill:none;stroke:#fff;stroke-linecap:round;stroke-linejoin:round;stroke-width:7px;}</style></defs><path class="cls-1" d="M190.39,95.77H192a12.39,12.39,0,0,1,12.31,13.82l-.78,6.71a12.39,12.39,0,0,1-12.31,11h0a12.38,12.38,0,0,1-12.3-11l-.78-6.71A12.39,12.39,0,0,1,190.39,95.77Z"/><path class="cls-1" d="M220.26,158.35v-5.59c0-6.59-5.39-12.37-13.15-14.08h0a74.15,74.15,0,0,0-31.87,0h0c-7.76,1.71-13.16,7.49-13.16,14.08v5.59"/><circle class="cls-1" cx="191.17" cy="119.45" r="48.33"/><path class="cls-1" d="M196.07,177.72v54.46H48.84A4.15,4.15,0,0,1,44.69,228V38.33a4.15,4.15,0,0,1,4.15-4.15H93.6"/><path class="cls-1" d="M147.16,34.18h44.76a4.15,4.15,0,0,1,4.15,4.15V61.18"/><path class="cls-1" d="M148.32,51.28V34.18H92.39v17.1a8.88,8.88,0,0,0,8.88,8.87h38.18A8.87,8.87,0,0,0,148.32,51.28Z"/><polyline class="cls-1" points="178.97 176.63 178.97 214.91 113.08 214.91 61.78 214.91 61.78 51.28 92.39 51.28"/><polyline class="cls-1" points="150.9 51.28 178.97 51.28 178.97 62.28"/><path class="cls-1" d="M103.39,34.18a17,17,0,1,1,34,0"/><line class="cls-1" x1="106.37" y1="119.45" x2="132.69" y2="119.45"/><polyline class="cls-1" points="76.99 118.26 84.13 125.4 96.03 113.5"/><polyline class="cls-1" points="76.99 149.08 84.13 156.22 96.03 144.32"/><polyline class="cls-1" points="76.99 179.89 84.13 187.03 96.03 175.13"/><line class="cls-1" x1="106.37" y1="150.27" x2="141.51" y2="150.27"/><line class="cls-1" x1="106.37" y1="88.64" x2="141.49" y2="88.64"/><polyline class="cls-1" points="76.63 87.45 83.77 94.59 95.66 82.69"/><line class="cls-1" x1="106.37" y1="181.08" x2="164.14" y2="181.08"/></svg>