<svg id="Layer_1" data-name="Layer 1" xmlns="http://www.w3.org/2000/svg" viewBox="0 0 250 250"><defs><style>.cls-1{fill:none;stroke:#333;stroke-linecap:round;stroke-linejoin:round;stroke-width:7px;}</style></defs><path class="cls-1" d="M89.7,18.89c-38.65,0-70,29.47-70,65.82s31.34,65.81,70,65.81a73.89,73.89,0,0,0,22.08-3.35c7.86,7.81,12.2,10.59,26.42,18.23l.14-33.37a63.81,63.81,0,0,0,21.35-47.32c0-36.35-31.33-65.82-70-65.82Z"/><path class="cls-1" d="M77.54,63.06c7.51-13.68,28.63-14.55,28.63,4.29,0,12.86-16.23,12.08-16.23,27.68"/><path class="cls-1" d="M89.92,113.58a21.73,21.73,0,0,0-.11,2.2"/><line class="cls-1" x1="187.82" y1="121.96" x2="183.17" y2="163.81"/><path class="cls-1" d="M182,182.32a20.6,20.6,0,0,0-.25,2.19"/><path class="cls-1" d="M116.4,231.11l-.14-33.38a63.79,63.79,0,0,1-21.35-47.32"/><path class="cls-1" d="M164.9,84.6c38.65,0,70,29.46,70,65.81s-31.34,65.81-70,65.81a74.21,74.21,0,0,1-22.08-3.34c-7.86,7.8-12.2,10.58-26.42,18.23"/><path class="cls-1" d="M163.31,182.32a20.54,20.54,0,0,0-.26,2.19"/><path class="cls-1" d="M144.61,182.32a20.6,20.6,0,0,0-.25,2.19"/></svg>