<svg id="Layer_1" data-name="Layer 1" xmlns="http://www.w3.org/2000/svg" viewBox="0 0 250 250"><defs><style>.cls-1{fill:none;stroke:#333;stroke-linecap:round;stroke-linejoin:round;stroke-width:7px;}</style></defs><path class="cls-1" d="M63.2,220a42.17,42.17,0,0,1,24.69-5.17l58.34,7.84a4.46,4.46,0,0,0,3.15-.76l73.9-51.48a4.49,4.49,0,0,0,1.31-5.93h0a17.81,17.81,0,0,0-23.31-7l-52.34,26"/><path class="cls-1" d="M107.62,186.9l29.58,2.9a12,12,0,0,0,13.06-10.73h0A12,12,0,0,0,139.53,166l-25.2-2.47a22,22,0,0,1-8.26-2.51l-2.76-1.48a46.8,46.8,0,0,0-44.52.14l-15,7.23"/><polyline class="cls-1" points="25.19 166.72 41.08 160.52 67.5 228.2 49.94 235.06"/><line class="cls-1" x1="30.32" y1="178.49" x2="36.96" y2="175.9"/><line class="cls-1" x1="204.58" y1="159.46" x2="204.58" y2="159.46"/><path class="cls-1" d="M124.33,53.63h1.73A13.77,13.77,0,0,1,139.74,69l-.87,7.45a13.76,13.76,0,0,1-13.68,12.18h0a13.77,13.77,0,0,1-13.68-12.18L110.65,69A13.77,13.77,0,0,1,124.33,53.63Z"/><path class="cls-1" d="M159.72,127.91v-6.63c0-7.84-6.4-14.69-15.61-16.72h0a88.08,88.08,0,0,0-37.83,0h0c-9.21,2-15.62,8.88-15.62,16.72v6.63"/><circle class="cls-1" cx="125.19" cy="81.74" r="57.37" transform="translate(-21.13 112.47) rotate(-45)"/></svg>