<svg id="Layer_1" data-name="Layer 1" xmlns="http://www.w3.org/2000/svg" viewBox="0 0 250 250"><defs><style>.cls-1{fill:none;stroke:#fff;stroke-linecap:round;stroke-linejoin:round;stroke-width:7px;}</style></defs><path class="cls-1" d="M65,217.55a42.07,42.07,0,0,1,24.69-5.17L148,220.22a4.49,4.49,0,0,0,3.16-.76L225.05,168a4.48,4.48,0,0,0,1.31-5.92h0a17.81,17.81,0,0,0-23.31-7l-52.33,26"/><path class="cls-1" d="M109.39,184.49l29.59,2.9A12,12,0,0,0,152,176.66h0a12,12,0,0,0-10.73-13.06l-25.21-2.47a22.16,22.16,0,0,1-8.25-2.51l-2.76-1.48a46.8,46.8,0,0,0-44.52.14l-15,7.23"/><polyline class="cls-1" points="26.97 164.31 42.86 158.11 69.27 225.79 51.72 232.64"/><line class="cls-1" x1="32.09" y1="176.08" x2="38.74" y2="173.49"/><line class="cls-1" x1="206.35" y1="157.05" x2="206.35" y2="157.05"/><path class="cls-1" d="M126.1,51.22h1.73a13.76,13.76,0,0,1,13.68,15.35L140.65,74A13.77,13.77,0,0,1,127,86.21h0A13.77,13.77,0,0,1,113.29,74l-.87-7.46A13.77,13.77,0,0,1,126.1,51.22Z"/><path class="cls-1" d="M161.5,125.5v-6.64c0-7.83-6.41-14.68-15.62-16.71h0a88,88,0,0,0-37.82,0h0c-9.22,2-15.62,8.88-15.62,16.71v6.64"/><circle class="cls-1" cx="126.97" cy="79.33" r="57.37" transform="translate(-18.91 113.01) rotate(-45)"/></svg>