<?xml version="1.0" encoding="UTF-8"?><svg id="Layer_1" xmlns="http://www.w3.org/2000/svg" viewBox="0 0 250 250"><defs><style>.cls-1{fill:#027353;}.cls-2{fill:#cde7f7;}</style></defs><circle class="cls-2" cx="124.96" cy="125.04" r="124.5"/><g><path class="cls-1" d="M102.23,129.03l-18.6-45.18c-.53-1.33-1.86-2.13-3.19-2.39-1.33,0-2.66,.8-3.46,2.13l-21.53,45.45c-1.06,.53-1.86,1.86-1.86,3.19,0,13.82,11.16,24.98,24.98,25.25h.8c13.82-.27,24.98-11.43,24.98-25.25-.27-1.33-1.06-2.66-2.13-3.19Zm-22.06-34.82l14.09,34.29h-30.3l16.21-34.29Zm-1.33,55.81c-8.5,0-15.42-6.11-17.28-14.09h34.55c-1.59,7.97-8.77,13.82-17.28,14.09Z"/><path class="cls-1" d="M171.6,205.04H80.44c-2.13,0-3.72-1.59-3.72-3.72s1.59-3.72,3.72-3.72h91.16c2.13,0,3.72,1.59,3.72,3.72,0,2.13-1.59,3.72-3.72,3.72Z"/><path class="cls-1" d="M194.19,128.76l-18.6-45.18c-.53-1.33-1.86-2.13-3.19-2.39-1.33,0-2.66,.8-3.46,2.13l-21.53,45.45c-1.06,.53-1.86,1.86-1.86,3.19,0,13.82,11.16,24.98,24.98,25.25h.8c13.82-.27,24.98-11.43,24.98-25.25-.27-1.33-1.06-2.66-2.13-3.19Zm-22.06-34.82l14.09,34.29h-30.3l16.21-34.29Zm-1.33,55.81c-8.5,0-15.42-6.11-17.28-14.09h34.55c-1.59,7.97-8.77,13.82-17.28,14.09Z"/><path class="cls-1" d="M171.6,66.04h-34.02c-1.06-3.72-4.25-6.91-7.97-7.97v-9.3c0-2.13-1.59-3.72-3.46-3.72-2.13,0-3.72,1.59-3.72,3.72v9.3c-3.72,1.33-6.64,4.25-7.71,7.97h-34.29c-2.13,0-3.72,1.59-3.72,3.72s1.59,3.72,3.72,3.72h34.29c1.33,3.46,3.99,6.38,7.71,7.44v103.39h-23.39c-2.13,0-3.72,1.59-3.72,3.72s1.59,3.72,3.72,3.72h53.95c2.13,0,3.72-1.59,3.72-3.72s-1.59-3.72-3.72-3.72h-23.39V80.92c3.72-1.06,6.64-3.99,7.71-7.71h34.29c2.13,0,3.72-1.59,3.72-3.72s-1.59-3.46-3.72-3.46Zm-45.45,8.24c-2.66,0-4.78-2.13-4.78-4.78s2.13-4.78,4.78-4.78,4.78,2.13,4.78,4.78-2.13,4.78-4.78,4.78Z"/></g></svg>